<svg width="20" height="20" viewBox="0 0 20 20" fill="none" xmlns="http://www.w3.org/2000/svg">
<path d="M18.3469 12.5878L12.2595 19.3652L8.30147 15.5976L9.31016 14.538L12.1775 17.2674L17.2585 11.6101L18.3469 12.5878ZM8.57487 17.8774L10.1117 19.3403H3.75886C2.54887 19.3403 1.56445 18.356 1.56445 17.146V2.80964C1.56445 1.59954 2.54887 0.615234 3.75886 0.615234H11.2107L16.4088 5.83992V10.4423L14.9499 12.0455V6.87309H12.3492C11.1394 6.87309 10.1548 5.88879 10.1548 4.67892V2.07802H3.75886C3.35545 2.07802 3.02735 2.40623 3.02735 2.80964V17.146C3.02735 17.5493 3.35545 17.8774 3.75886 17.8774H8.57487ZM12.3492 5.41031H13.921L11.6179 3.09757V4.67892C11.6179 5.08209 11.946 5.41031 12.3492 5.41031ZM4.49036 13.0133H10.2321V11.5503H4.49036V13.0133ZM13.4871 8.62472H4.49036V10.0875H13.4871V8.62472Z" fill="#64B564"/>
</svg>
