<svg width="133" height="150" viewBox="0 0 133 150" fill="none" xmlns="http://www.w3.org/2000/svg">
<g clip-path="url(#clip0)">
<path d="M112.019 84.7113V32.2294C112.019 26.1179 107.061 21.1641 100.945 21.1641H6.69531V133.746C6.69531 139.356 11.2386 143.907 16.8524 143.921L79.8797 144.076C85.3346 147.81 91.9332 149.999 99.0449 149.999C117.798 149.999 133.001 134.808 133.001 116.07C133.001 101.923 124.334 89.8043 112.019 84.7113Z" fill="#EDEFF0"/>
<path d="M97.3936 122.641C97.3836 126.772 94.0284 130.115 89.8944 130.113L64.4097 130.101H7.57752C3.43771 130.101 0.0820312 126.748 0.0820312 122.611V7.48955C0.0820312 3.35302 3.43771 0 7.57752 0H89.9606C94.1004 0 97.4561 3.35302 97.4561 7.48955V96.2289L97.3936 122.641Z" fill="white"/>
<path d="M83.8454 47.3707H15.1121C14.4265 47.3707 13.8711 46.8153 13.8711 46.1307C13.8711 45.4456 14.427 44.8906 15.1121 44.8906H83.8454C84.531 44.8906 85.0864 45.4461 85.0864 46.1307C85.087 46.8153 84.531 47.3707 83.8454 47.3707Z" fill="#ACB4B9"/>
<path d="M83.8454 53.4254H15.1121C14.4265 53.4254 13.8711 52.8705 13.8711 52.1854C13.8711 51.5003 14.427 50.9453 15.1121 50.9453H83.8454C84.531 50.9453 85.0864 51.5003 85.0864 52.1854C85.087 52.8699 84.531 53.4254 83.8454 53.4254Z" fill="#ACB4B9"/>
<path d="M83.8454 32.2106H15.1121C14.4265 32.2106 13.8711 31.6551 13.8711 30.9705C13.8711 30.2854 14.427 29.7305 15.1121 29.7305H83.8454C84.531 29.7305 85.0864 30.286 85.0864 30.9705C85.087 31.6551 84.531 32.2106 83.8454 32.2106Z" fill="#ACB4B9"/>
<path d="M83.8454 38.2653H15.1121C14.4265 38.2653 13.8711 37.7103 13.8711 37.0252C13.8711 36.3401 14.427 35.7852 15.1121 35.7852H83.8454C84.531 35.7852 85.0864 36.3401 85.0864 37.0252C85.087 37.7103 84.531 38.2653 83.8454 38.2653Z" fill="#ACB4B9"/>
<path d="M83.8454 19.0778H15.1121C14.4265 19.0778 13.8711 18.5223 13.8711 17.8377C13.8711 17.1526 14.427 16.5977 15.1121 16.5977H83.8454C84.531 16.5977 85.0864 17.1531 85.0864 17.8377C85.087 18.5228 84.531 19.0778 83.8454 19.0778Z" fill="#ACB4B9"/>
<path d="M83.8454 25.1325H15.1121C14.4265 25.1325 13.8711 24.5775 13.8711 23.8924C13.8711 23.2073 14.427 22.6523 15.1121 22.6523H83.8454C84.531 22.6523 85.0864 23.2073 85.0864 23.8924C85.087 24.5775 84.531 25.1325 83.8454 25.1325Z" fill="#ACB4B9"/>
<path d="M69.1826 73.1207H37.7801C37.0945 73.1207 36.5391 72.5653 36.5391 71.8807C36.5391 71.1956 37.0945 70.6406 37.7801 70.6406H69.1826C69.8682 70.6406 70.4236 71.1956 70.4236 71.8807C70.4236 72.5658 69.8682 73.1207 69.1826 73.1207Z" fill="#ACB4B9"/>
<path d="M83.8474 66.3239H37.7801C37.0945 66.3239 36.5391 65.7689 36.5391 65.0838C36.5391 64.3987 37.0945 63.8438 37.7801 63.8438H83.8474C84.533 63.8438 85.0884 64.3987 85.0884 65.0838C85.089 65.7684 84.533 66.3239 83.8474 66.3239Z" fill="#ACB4B9"/>
<path d="M29.0098 77.8929H14.4922V63.3867H29.0098V77.8929ZM16.2367 76.1497H27.2658V65.1294H16.2367V76.1497Z" fill="#ACB4B9"/>
<path d="M21.3738 73.9366L17.7852 71.0364L19.1194 69.5895L21.1774 71.2528L24.7819 67.3438L26.3126 68.5806L21.3738 73.9366Z" fill="#64B564"/>
<path d="M76.0464 96.1129H37.7801C37.0945 96.1129 36.5391 95.558 36.5391 94.8729C36.5391 94.1883 37.0945 93.6328 37.7801 93.6328H76.0464C76.7321 93.6328 77.2875 94.1883 77.2875 94.8729C77.2875 95.5574 76.7321 96.1129 76.0464 96.1129Z" fill="#ACB4B9"/>
<path d="M83.8474 89.3161H37.7801C37.0945 89.3161 36.5391 88.7611 36.5391 88.076C36.5391 87.3909 37.0945 86.8359 37.7801 86.8359H83.8474C84.533 86.8359 85.0884 87.3909 85.0884 88.076C85.089 88.7611 84.533 89.3161 83.8474 89.3161Z" fill="#ACB4B9"/>
<path d="M29.0098 100.885H14.4922V86.3789H29.0098V100.885ZM16.2367 99.1424H27.2658V88.1221H16.2367V99.1424Z" fill="#ACB4B9"/>
<path d="M21.3738 96.9282L17.7852 94.0286L19.1194 92.5817L21.1774 94.2444L24.7819 90.3359L26.3126 91.5728L21.3738 96.9282Z" fill="#64B564"/>
<path d="M116.054 128.023C129.315 114.773 129.315 93.29 116.054 80.04C102.794 66.7899 81.2943 66.7899 68.0337 80.04C54.7732 93.29 54.7732 114.773 68.0338 128.023C81.2943 141.273 102.794 141.273 116.054 128.023Z" fill="#64B564"/>
<path d="M88.2565 121.65L69.7695 104.333L77.6552 96.9453L88.2565 106.876L109.564 86.918L117.45 94.3049L88.2565 121.65Z" fill="white"/>
</g>
<defs>
<clipPath id="clip0">
<rect width="133" height="150" fill="white"/>
</clipPath>
</defs>
</svg>
