<svg width="40" height="40" viewBox="0 0 40 40" fill="none" xmlns="http://www.w3.org/2000/svg">
<path opacity="0.8" fill-rule="evenodd" clip-rule="evenodd" d="M20 40C31.0457 40 40 31.0457 40 20C40 8.95431 31.0457 0 20 0C8.95431 0 0 8.95431 0 20C0 31.0457 8.95431 40 20 40Z" fill="#868C90"/>
<g clip-path="url(#clip0)">
<path d="M26.5339 17.3796L20.2624 11.1084C20.1179 10.9639 19.8836 10.9639 19.7391 11.1084L13.4678 17.3796C13.3232 17.5241 13.3232 17.7583 13.4678 17.9028L15.1385 19.5738C15.2079 19.6431 15.3019 19.6822 15.4001 19.6822C15.4982 19.6822 15.5924 19.6431 15.6618 19.5738L18.3509 16.885V28.6299C18.3509 28.8342 18.5167 29 18.7209 29H21.2807C21.485 29 21.6508 28.8342 21.6508 28.6299V16.8852L24.3395 19.5739C24.4783 19.7127 24.724 19.7127 24.8628 19.5739L26.5337 17.903C26.6031 17.8336 26.6422 17.7394 26.6422 17.6414C26.6423 17.5433 26.6033 17.4489 26.5339 17.3796Z" fill="white"/>
</g>
<defs>
<clipPath id="clip0">
<rect width="18" height="18" fill="white" transform="translate(11 11)"/>
</clipPath>
</defs>
</svg>
