<svg width="26" height="26" viewBox="0 0 26 26" fill="none" xmlns="http://www.w3.org/2000/svg">
<path d="M14.5156 15.5653V26.0001H23.0997C24.2154 26.0001 25.1203 25.0957 25.1203 23.9794V15.5653H14.5156Z" fill="#353839"/>
<path d="M11.4808 15.5653H0.879883V23.9794C0.879883 25.0957 1.78498 26.0001 2.90054 26.0001H11.4808V15.5653ZM3.63462 23.8796C3.2157 23.8796 2.87583 23.5397 2.87583 23.1209V18.9107C2.87583 18.4919 3.21576 18.152 3.63462 18.152C4.05347 18.152 4.3934 18.492 4.3934 18.9107V23.1209C4.3934 23.5397 4.05353 23.8796 3.63462 23.8796Z" fill="#353839"/>
<path d="M23.7569 7.65276H19.9618C20.4857 7.40135 20.9251 7.14161 21.1907 6.87618C22.7539 5.31323 22.7539 2.77791 21.1907 1.2147C20.4082 0.43319 19.3837 0.0424997 18.3592 0.0424997C17.3345 0.0424997 16.3098 0.43319 15.5283 1.2147C14.8792 1.86397 14.2548 3.46654 13.745 5.11795C13.5069 5.0526 13.2618 5.00683 13.004 5.00683C12.7471 5.00683 12.5019 5.05266 12.2649 5.1175C11.7531 3.45118 11.1228 1.82685 10.4676 1.17213C9.68606 0.390626 8.66249 0 7.63686 0C6.61226 0 5.58766 0.39069 4.80609 1.17213C3.24295 2.73592 3.24295 5.27073 4.80609 6.83362C5.08573 7.11447 5.55688 7.38912 6.12217 7.65276H2.24222C1.12661 7.65276 0.222656 8.55703 0.222656 9.67252V11.3912C0.222656 12.5068 1.12661 13.4106 2.24222 13.4106H11.4805V7.7329H14.5156V13.4106H23.757C24.8725 13.4106 25.7765 12.5067 25.7765 11.3911V9.67246C25.7765 8.55703 24.8724 7.65276 23.7569 7.65276ZM16.9592 2.64548C17.3326 2.27181 17.8304 2.06578 18.3592 2.06578C18.8886 2.06578 19.3858 2.27181 19.7603 2.64548C20.1337 3.01933 20.3393 3.5164 20.3393 4.04547C20.3393 4.57454 20.1337 5.07154 19.7622 5.44303C19.3442 5.83737 17.7072 6.45176 15.6834 7.02403C15.6262 6.82779 15.549 6.64211 15.4513 6.46616C16.0026 4.5618 16.5817 3.04455 16.9592 2.64548ZM6.23681 2.60298C6.61034 2.22957 7.10824 2.02354 7.63693 2.02354C8.16644 2.02354 8.66351 2.22906 9.0359 2.60195C9.41641 3.00461 10.0023 4.54151 10.5575 6.46565C10.4656 6.63059 10.3926 6.80462 10.3352 6.98781C8.30188 6.41483 6.65476 5.7973 6.23674 5.40316C5.46509 4.63099 5.46509 3.37514 6.23681 2.60298Z" fill="#353839"/>
</svg>
