<svg width="32" height="32" viewBox="0 0 32 32" fill="none" xmlns="http://www.w3.org/2000/svg">
<rect width="32" height="32" rx="16" fill="#D0E4FF"/>
<path d="M11.3762 13.5459H9.5268C9.27148 13.5459 9.06445 13.7562 9.06445 14.0156V21.5302C9.06445 21.7896 9.27145 21.9999 9.5268 21.9999H11.3761C11.6315 21.9999 11.8385 21.7896 11.8385 21.5302V14.0155C11.8385 13.7562 11.6315 13.5459 11.3762 13.5459Z" fill="#2F80ED"/>
<path d="M22.9258 14.7913C22.8443 14.0627 22.1743 13.5463 21.4525 13.5463H17.848C18.1543 12.9891 18.3187 11.4131 18.3114 10.7693C18.2994 9.7036 17.4306 8.84961 16.3816 8.84961H16C15.7445 8.84961 15.5377 9.05967 15.5377 9.31929C15.5377 10.4054 15.1214 12.3657 14.3363 13.1633C13.8078 13.7002 13.356 13.8947 12.7637 14.1954V21.2428C13.6706 21.5499 14.8221 22.0003 16.5773 22.0003H19.6017C20.5982 22.0003 21.3743 21.0627 20.9882 20.0721C21.5765 19.9093 22.0104 19.3612 22.0104 18.7126C22.0104 18.5296 21.9756 18.3544 21.9128 18.1934C22.9043 17.919 23.2692 16.6755 22.5811 15.8946C22.8339 15.6077 22.9733 15.2153 22.9258 14.7913Z" fill="#2F80ED"/>
</svg>
