<svg width="32" height="32" viewBox="0 0 32 32" fill="none" xmlns="http://www.w3.org/2000/svg">
<rect width="32" height="32" rx="16" fill="#FFEFBD"/>
<g clip-path="url(#clip0)">
<path d="M20.391 13.7698C20.2683 13.5595 20.0515 13.4311 19.8176 13.4311H16.7216L18.395 7.92668C18.4605 7.71073 18.4247 7.47432 18.298 7.29119C18.1718 7.10855 17.9695 7 17.755 7H14.6777C14.3854 7 14.1265 7.19925 14.0377 7.4929L11.5419 15.704C11.4764 15.9199 11.5121 16.1562 11.6389 16.3395C11.7652 16.5221 11.9674 16.6307 12.1819 16.6307H12.7237H15.2084L14.4064 25.6716C14.3936 25.8153 14.4795 25.948 14.611 25.988C14.742 26.0282 14.8817 25.9646 14.9436 25.8357L20.4173 14.4628C20.5231 14.2424 20.5131 13.9803 20.391 13.7698Z" fill="#F2C94C"/>
</g>
<defs>
<clipPath id="clip0">
<rect width="18" height="19" fill="white" transform="translate(7 7)"/>
</clipPath>
</defs>
</svg>
