<svg width="90" height="90" viewBox="0 0 90 90" fill="none" xmlns="http://www.w3.org/2000/svg">
<circle cx="45" cy="45" r="45" fill="#F5F7F8"/>
<g clip-path="url(#clip0)">
<path d="M72.9087 69.2354L17.0458 69.3118C14.6277 69.3151 12.664 67.3501 12.6607 64.9224L12.6172 33.0313C12.6139 30.6035 14.5716 28.633 16.9903 28.6298L72.8532 28.5527C75.2713 28.5495 77.235 30.5145 77.2382 32.9422L77.2818 64.8339C77.2845 67.261 75.3268 69.2315 72.9087 69.2354Z" fill="#64B564"/>
<path d="M77.252 43.123L12.6315 43.212L12.6201 35.0329L77.2406 34.9438L77.252 43.123Z" fill="#509050"/>
<path d="M47.6869 46.2297L15.5127 46.2749L15.5213 52.4093L47.6954 52.364L47.6869 46.2297Z" fill="white"/>
<path opacity="0.6" d="M66.4858 61.1852C66.969 58.7419 65.3874 56.368 62.9532 55.883C60.5189 55.3981 58.1539 56.9856 57.6708 59.429C57.1876 61.8723 58.7692 64.2462 61.2034 64.7312C63.6377 65.2161 66.0027 63.6286 66.4858 61.1852Z" fill="white"/>
<path opacity="0.6" d="M68.367 64.8106C70.8489 64.8106 72.8609 62.791 72.8609 60.2998C72.8609 57.8086 70.8489 55.7891 68.367 55.7891C65.885 55.7891 63.873 57.8086 63.873 60.2998C63.873 62.791 65.885 64.8106 68.367 64.8106Z" fill="white"/>
<path d="M56.8148 47.2869L48.9062 47.2979L48.9118 51.223L56.8204 51.212L56.8148 47.2869Z" fill="white"/>
<path d="M50.4316 48.4288L50.1285 48.4293L50.1279 48.089L50.8061 48.0879L50.8093 50.4736H50.4343L50.4316 48.4288Z" fill="#353839"/>
<path d="M51.7154 50.1678C52.2754 49.6729 52.8649 49.2402 52.8643 48.7721C52.8638 48.5235 52.756 48.353 52.479 48.3536C52.2183 48.3541 52.0784 48.5371 52.0686 48.8054L51.71 48.8059C51.7219 48.2891 52.0545 48.0367 52.4752 48.0356C52.9574 48.0351 53.2317 48.3257 53.2328 48.7546C53.2333 49.3336 52.6472 49.7761 52.2662 50.1269L53.2997 50.1252L53.3003 50.4361L51.7159 50.4383L51.7154 50.1678Z" fill="#353839"/>
<path d="M54.8196 48.0269C55.292 48.0263 55.55 48.3006 55.5506 48.6474C55.5511 48.9321 55.372 49.1255 55.1859 49.1877V49.2008C55.4341 49.2757 55.5941 49.4816 55.5941 49.8121C55.5946 50.1918 55.328 50.4803 54.8321 50.4808C54.382 50.4814 54.0332 50.2465 54.0098 49.7783L54.3684 49.7777C54.3848 50.0001 54.5486 50.1705 54.8283 50.17C55.1053 50.1694 55.242 49.999 55.242 49.7766C55.2414 49.4625 55.0395 49.3549 54.6514 49.3554H54.5665L54.566 49.0479H54.6542C54.99 49.0441 55.1952 48.9457 55.1952 48.6906C55.1952 48.4841 55.0607 48.347 54.8066 48.3475C54.5459 48.3481 54.4256 48.5054 54.4027 48.672L54.0408 48.6726C54.0669 48.2601 54.3858 48.0274 54.8196 48.0269Z" fill="#353839"/>
<path opacity="0.3" d="M47.7025 57.5588L15.5283 57.604L15.5294 58.3633L47.7036 58.3181L47.7025 57.5588Z" fill="white"/>
<path opacity="0.3" d="M47.7054 59.8439L15.5312 59.8892L15.5323 60.6485L47.7065 60.6033L47.7054 59.8439Z" fill="white"/>
<path opacity="0.3" d="M31.1674 62.1523L15.5342 62.1743L15.5352 62.9337L31.1684 62.9117L31.1674 62.1523Z" fill="white"/>
<path opacity="0.2" d="M72.9091 69.2354L17.0462 69.3118C14.6281 69.3151 12.6644 67.3501 12.6611 64.9224L72.8536 28.5527C75.2717 28.5495 77.2354 30.5145 77.2386 32.9422L77.2822 64.8339C77.2849 67.261 75.3272 69.2315 72.9091 69.2354Z" fill="white"/>
<ellipse cx="45.5442" cy="28.0214" rx="13.3342" ry="13.3842" fill="#EDEFF0"/>
<path d="M40.653 23.3252C40.653 20.6707 42.7716 18.5127 45.4041 18.4623C48.1207 18.4101 50.3443 20.6939 50.3443 23.4213V26.9807H48.7389V23.3252C48.7389 21.5262 47.2808 20.0627 45.4885 20.0627C43.6962 20.0627 42.2381 21.5262 42.2381 23.3252V23.3453L42.2226 26.9803H40.6172L40.653 23.3252Z" fill="#3664C9"/>
<path d="M44.9156 31.6217C44.4158 31.4037 44.0664 30.9038 44.0664 30.3219C44.0664 29.5034 44.7576 28.847 45.5861 28.9088C46.2649 28.9593 46.818 29.501 46.8834 30.1813C46.945 30.8226 46.5805 31.3861 46.0408 31.6217L46.6969 35.1818C46.7186 35.2999 46.6284 35.4088 46.5086 35.4088H44.4474C44.3277 35.4088 44.2375 35.2999 44.2592 35.1818L44.9156 31.6217Z" fill="#3664C9"/>
<path d="M39.2852 27.1726V34.7363C39.2852 35.9998 40.3054 37.0239 41.5642 37.0239H49.3974C50.6562 37.0239 51.6764 35.9998 51.6764 34.7363V27.1726C51.6764 27.0665 51.5907 26.9805 51.485 26.9805H50.3447H48.7393H42.2227H40.6176H39.4765C39.3709 26.9805 39.2852 27.0665 39.2852 27.1726ZM44.9182 31.6216C44.4184 31.4036 44.069 30.9036 44.069 30.3218C44.069 29.5033 44.7602 28.8469 45.5887 28.9087C46.2675 28.9592 46.8206 29.5009 46.886 30.1812C46.9476 30.8225 46.5831 31.386 46.0434 31.6216L46.6995 35.1816C46.7212 35.2998 46.631 35.4086 46.5112 35.4086H44.4504C44.3306 35.4086 44.2404 35.2998 44.2621 35.1816L44.9182 31.6216Z" fill="#5383EC"/>
<path opacity="0.1" d="M51.5957 27.0459L46.7379 30.9832C46.5895 31.2776 46.3458 31.5153 46.0429 31.6476L46.699 35.2073C46.7207 35.3255 46.6305 35.4347 46.5107 35.4347H44.4502C44.3305 35.4347 44.2403 35.3255 44.262 35.2073L44.7425 32.6005L40.0312 36.419C40.4367 36.7911 40.9713 37.024 41.564 37.024H49.3976C50.6564 37.024 51.6766 35.9999 51.6766 34.7364V27.1986C51.6763 27.1347 51.6432 27.0811 51.5957 27.0459Z" fill="white"/>
<g opacity="0.5">
<path opacity="0.1" d="M40.6172 26.9804H42.2226L42.2284 25.5693L40.6172 26.9804Z" fill="white"/>
<path opacity="0.1" d="M48.8001 19.8145L47.6084 20.8579C48.2989 21.4566 48.7384 22.3397 48.7384 23.3251V26.9805H50.3439V23.4215C50.3442 22.0129 49.748 20.7259 48.8001 19.8145Z" fill="white"/>
</g>
</g>
<defs>
<clipPath id="clip0">
<rect width="64.7664" height="55.514" fill="white" transform="translate(12.6172 14.2988)"/>
</clipPath>
</defs>
</svg>
