<svg width="90" height="90" viewBox="0 0 90 90" fill="none" xmlns="http://www.w3.org/2000/svg">
<circle cx="45" cy="45" r="45" fill="#F5F7F8"/>
<g clip-path="url(#clip0)">
<path d="M50.6415 31.6187C50.6415 35.7037 47.3135 38.8175 43.2087 38.8175C39.1039 38.8175 35.7759 35.7037 35.7759 31.6187C35.7759 27.5332 39.1039 24.2217 43.2087 24.2217C47.3135 24.2213 50.6415 27.5332 50.6415 31.6187Z" fill="#FFC30D"/>
<path d="M43.2089 39.8769C37.6605 39.8769 33.3145 35.6564 33.3145 30.2682C33.3145 24.8386 37.7531 20.4214 43.2089 20.4214C48.6648 20.4214 53.1034 24.8386 53.1034 30.2682C53.1034 35.6564 48.757 39.8769 43.2089 39.8769Z" fill="#FFDD00"/>
<path d="M43.2091 21.792C38.508 21.792 34.6836 25.5979 34.6836 30.2765C34.6836 34.8915 38.4286 38.5062 43.2091 38.5062C47.9897 38.5062 51.7347 34.8911 51.7347 30.2765C51.7347 25.5979 47.9103 21.792 43.2091 21.792Z" fill="#F0A700"/>
<mask id="mask0" mask-type="alpha" maskUnits="userSpaceOnUse" x="34" y="22" width="18" height="17">
<path d="M43.2091 22.2051C38.6243 22.2051 34.894 25.9173 34.894 30.4801C34.894 34.9809 38.5465 38.507 43.2091 38.507C47.8718 38.507 51.5242 34.9813 51.5242 30.4801C51.5242 25.9169 47.794 22.2051 43.2091 22.2051Z" fill="#FFC000"/>
</mask>
<g mask="url(#mask0)">
<path d="M50.5401 21.1533L49.3037 19.9229L34.6456 34.5104L35.882 35.7409L50.5401 21.1533Z" fill="#FFDD00"/>
<path d="M54.1943 24.9025L51.2915 22.0137L35.4665 37.7624L38.3693 40.6512L54.1943 24.9025Z" fill="#FFDD00"/>
</g>
<path d="M66.8376 16.1378C66.8376 19.6785 63.9537 22.3771 60.3959 22.3771C56.8381 22.3771 53.9541 19.6785 53.9541 16.1378C53.9541 12.5971 56.8381 9.72705 60.3959 9.72705C63.9537 9.72705 66.8376 12.5971 66.8376 16.1378Z" fill="#FFC30D"/>
<path d="M60.396 23.2954C55.5875 23.2954 51.8203 19.6374 51.8203 14.9679C51.8203 10.262 55.6673 6.43359 60.396 6.43359C65.1246 6.43359 68.9716 10.262 68.9716 14.9679C68.9716 19.6374 65.2044 23.2954 60.396 23.2954Z" fill="#FFDD00"/>
<path d="M60.3959 7.62158C56.3217 7.62158 53.0068 10.92 53.0068 14.975C53.0068 18.9749 56.2526 22.1079 60.3959 22.1079C64.5391 22.1079 67.7849 18.9749 67.7849 14.975C67.7849 10.9205 64.47 7.62158 60.3959 7.62158Z" fill="#F0A700"/>
<mask id="mask1" mask-type="alpha" maskUnits="userSpaceOnUse" x="53" y="7" width="15" height="16">
<path d="M60.396 7.979C56.422 7.979 53.1895 11.196 53.1895 15.1509C53.1895 19.0521 56.3549 22.1078 60.396 22.1078C64.4371 22.1078 67.6026 19.0521 67.6026 15.1509C67.6026 11.1965 64.3695 7.979 60.396 7.979Z" fill="#FFC000"/>
</mask>
<g mask="url(#mask1)">
<path d="M66.7496 7.06723L65.6777 6.00049L52.9737 18.6433L54.0456 19.7101L66.7496 7.06723Z" fill="#FFDD00"/>
<path d="M69.9175 10.3174L67.4014 7.81348L53.6861 21.4626L56.2022 23.9666L69.9175 10.3174Z" fill="#FFDD00"/>
</g>
<path d="M35.4392 14.3995C35.4392 17.0041 33.3173 18.9892 30.7001 18.9892C28.0829 18.9892 25.9614 17.0041 25.9614 14.3995C25.9614 11.7949 28.0833 9.68359 30.7001 9.68359C33.3177 9.68322 35.4392 11.7949 35.4392 14.3995Z" fill="#FFC30D"/>
<path d="M30.7005 19.6647C27.1633 19.6647 24.3921 16.9738 24.3921 13.5388C24.3921 10.077 27.222 7.26074 30.7005 7.26074C34.179 7.26074 37.009 10.077 37.009 13.5388C37.0086 16.9738 34.2377 19.6647 30.7005 19.6647Z" fill="#FFDD00"/>
<path d="M30.7007 8.13428C27.7037 8.13428 25.2651 10.5607 25.2651 13.5436C25.2651 16.486 27.6528 18.7908 30.7007 18.7908C33.7489 18.7908 36.1362 16.486 36.1362 13.5436C36.1362 10.561 33.6977 8.13428 30.7007 8.13428Z" fill="#F0A700"/>
<mask id="mask2" mask-type="alpha" maskUnits="userSpaceOnUse" x="25" y="8" width="12" height="11">
<path d="M30.7007 8.39746C27.7777 8.39746 25.3994 10.764 25.3994 13.6733C25.3994 16.5427 27.728 18.7909 30.7007 18.7909C33.6735 18.7909 36.0021 16.5431 36.0021 13.6733C36.0021 10.7643 33.6237 8.39746 30.7007 8.39746Z" fill="#FFC000"/>
</mask>
<g mask="url(#mask2)">
<path d="M35.3737 7.72684L34.5854 6.94238L25.2401 16.2427L26.0283 17.0272L35.3737 7.72684Z" fill="#FFDD00"/>
<path d="M37.7041 10.1176L35.8535 8.27588L25.7643 18.3165L27.6149 20.1582L37.7041 10.1176Z" fill="#FFDD00"/>
</g>
<path d="M70.9339 69.5593H17.5398C16.6755 69.5593 15.9746 68.8617 15.9746 68.0016V30.9615C15.9746 30.101 16.6755 29.4038 17.5398 29.4038H70.9339C71.7983 29.4038 72.4992 30.1013 72.4992 30.9615V68.0016C72.4992 68.8621 71.7983 69.5593 70.9339 69.5593Z" fill="#64B564"/>
<path opacity="0.05" d="M70.9339 69.5591H17.5398C16.6755 69.5591 15.9746 68.8616 15.9746 68.0014C15.9746 68.0014 27.4344 65.5972 48.1235 53.151C63.3542 43.9884 70.9339 29.4033 70.9339 29.4033C71.7983 29.4033 72.4992 30.1009 72.4992 30.961V68.0011C72.4992 68.8619 71.7983 69.5591 70.9339 69.5591Z" fill="white"/>
<path opacity="0.1" d="M21.2573 29.165H15.9087V69.1913H21.2573V29.165Z" fill="white"/>
<path d="M40.7224 31.4805H39.2114V31.9851H40.7224V31.4805Z" fill="#509050"/>
<path d="M43.7449 66.9775H42.2339V67.4821H43.7449V66.9775Z" fill="#509050"/>
<path d="M52.8121 31.4805H51.3008V31.9851H52.8121V31.4805Z" fill="#509050"/>
<path d="M40.7228 66.9775H39.2114V67.4821H40.7228V66.9775Z" fill="#509050"/>
<path d="M37.7 66.9775H36.189V67.4821H37.7V66.9775Z" fill="#509050"/>
<path d="M46.7672 31.4805H45.2559V31.9851H46.7672V31.4805Z" fill="#509050"/>
<path d="M49.7897 31.4805H48.2783V31.9851H49.7897V31.4805Z" fill="#509050"/>
<path d="M46.7669 66.9775H45.2559V67.4821H46.7669V66.9775Z" fill="#509050"/>
<path d="M52.8121 66.9775H51.3008V67.4821H52.8121V66.9775Z" fill="#509050"/>
<path d="M34.6778 31.4805H33.1665V31.9851H34.6778V31.4805Z" fill="#509050"/>
<path d="M49.7897 66.9775H48.2783V67.4821H49.7897V66.9775Z" fill="#509050"/>
<path d="M43.7452 31.4805H42.2339V31.9851H43.7452V31.4805Z" fill="#509050"/>
<path d="M18.7693 31.9903V31.9851H19.4982V31.4805H18.04V31.9903H18.7693Z" fill="#509050"/>
<path d="M34.6778 66.9775H33.1665V67.4821H34.6778V66.9775Z" fill="#509050"/>
<path d="M22.589 66.9775H21.0776V67.4821H22.589V66.9775Z" fill="#509050"/>
<path d="M22.5886 31.4805H21.0776V31.9851H22.5886V31.4805Z" fill="#509050"/>
<path d="M25.6109 31.4805H24.0996V31.9851H25.6109V31.4805Z" fill="#509050"/>
<path d="M18.7693 66.9609H18.04V67.4819H19.4982V66.9773H18.7693V66.9609Z" fill="#509050"/>
<path d="M31.6559 31.4805H30.1445V31.9851H31.6559V31.4805Z" fill="#509050"/>
<path d="M25.6109 66.9775H24.0996V67.4821H25.6109V66.9775Z" fill="#509050"/>
<path d="M31.6559 66.9775H30.1445V67.4821H31.6559V66.9775Z" fill="#509050"/>
<path d="M28.6334 66.9775H27.1221V67.4821H28.6334V66.9775Z" fill="#509050"/>
<path d="M28.6331 31.4805H27.1221V31.9851H28.6331V31.4805Z" fill="#509050"/>
<path d="M37.7003 31.4805H36.189V31.9851H37.7003V31.4805Z" fill="#509050"/>
<path d="M55.8346 66.9775H54.3232V67.4821H55.8346V66.9775Z" fill="#509050"/>
<path d="M70.4489 45.7876H69.9419V47.2652H70.4489V45.7876Z" fill="#509050"/>
<path d="M70.4489 51.6973H69.9419V53.1749H70.4489V51.6973Z" fill="#509050"/>
<path d="M70.4489 60.5625H69.9419V62.0397H70.4489V60.5625Z" fill="#509050"/>
<path d="M70.4489 57.6074H69.9419V59.085H70.4489V57.6074Z" fill="#509050"/>
<path d="M70.4489 54.6523H69.9419V56.1299H70.4489V54.6523Z" fill="#509050"/>
<path d="M69.4351 31.4805V31.9851H69.9421V32.49H70.4491V31.4805H69.4351Z" fill="#509050"/>
<path d="M70.4489 33.9673H69.9419V35.4449H70.4489V33.9673Z" fill="#509050"/>
<path d="M70.4489 42.8325H69.9419V44.3101H70.4489V42.8325Z" fill="#509050"/>
<path d="M70.4489 36.9224H69.9419V38.4H70.4489V36.9224Z" fill="#509050"/>
<path d="M70.4489 39.8774H69.9419V41.355H70.4489V39.8774Z" fill="#509050"/>
<path d="M70.4489 48.7427H69.9419V50.2199H70.4489V48.7427Z" fill="#509050"/>
<path d="M61.879 66.9775H60.3677V67.4821H61.879V66.9775Z" fill="#509050"/>
<path d="M58.8566 31.4805H57.3452V31.9851H58.8566V31.4805Z" fill="#509050"/>
<path d="M55.8342 31.4805H54.3232V31.9851H55.8342V31.4805Z" fill="#509050"/>
<path d="M58.8562 66.9775H57.3452V67.4821H58.8562V66.9775Z" fill="#509050"/>
<path d="M61.879 31.4805H60.3677V31.9851H61.879V31.4805Z" fill="#509050"/>
<path d="M67.9235 66.9775H66.4121V67.4821H67.9235V66.9775Z" fill="#509050"/>
<path d="M67.9236 31.4805H66.4126V31.9851H67.9236V31.4805Z" fill="#509050"/>
<path d="M69.9421 66.9776H69.4351V67.4822H70.4491V66.4727H69.9421V66.9776Z" fill="#509050"/>
<path d="M64.9015 31.4805H63.3901V31.9851H64.9015V31.4805Z" fill="#509050"/>
<path d="M70.4489 63.5176H69.9419V64.9948H70.4489V63.5176Z" fill="#509050"/>
<path d="M64.9015 66.9775H63.3901V67.4821H64.9015V66.9775Z" fill="#509050"/>
<path opacity="0.05" d="M68.4117 69.5641H71.2814C71.954 69.5641 72.4988 69.015 72.4988 68.3376V30.6254C72.4988 29.9481 71.9536 29.3989 71.2814 29.3989H68.4117L68.3343 51.0004L60.561 52.9171V54.9324C60.561 55.337 60.7154 55.7264 60.9928 56.022L68.4113 63.923V69.5641H68.4117Z" fill="white"/>
<path d="M74.4444 55.2543H60.7205C60.491 55.2543 60.3052 55.0694 60.3052 54.841V44.6824C60.3052 44.454 60.491 44.269 60.7205 44.269H74.4444C74.6739 44.269 74.8597 44.454 74.8597 44.6824V54.841C74.8597 55.0691 74.6736 55.2543 74.4444 55.2543Z" fill="#509050"/>
<path d="M74.2139 54.9741H60.4901C60.2605 54.9741 60.0747 54.7891 60.0747 54.5607V44.4021C60.0747 44.1737 60.2609 43.9888 60.4901 43.9888H74.2139C74.4435 43.9888 74.6293 44.1737 74.6293 44.4021V54.5607C74.6296 54.7891 74.4435 54.9741 74.2139 54.9741Z" fill="#58A55C"/>
<path opacity="0.05" d="M71.6295 54.949H74.179C74.4278 54.949 74.6297 54.7484 74.6297 54.5004V44.437C74.6297 44.1894 74.4282 43.9888 74.179 43.9888H71.6295V49.8918C71.6295 51.7706 70.1108 53.2997 68.2233 53.3217L60.0752 53.4167V54.5339C60.0752 54.7769 60.2736 54.9741 60.5179 54.9737L71.6295 54.949Z" fill="white"/>
<path d="M61.9011 52.6372H61.3794V53.676H62.4229V53.1568H61.9011V52.6372Z" fill="#509050"/>
<path d="M65.24 53.1572H63.8315V53.6765H65.24V53.1572Z" fill="#509050"/>
<path d="M61.3794 46.3256H61.9011V45.8063H62.4229V45.2871H61.3794V46.3256Z" fill="#509050"/>
<path d="M61.9011 50.1128H61.3794V51.3752H61.9011V50.1128Z" fill="#509050"/>
<path d="M61.9011 47.5879H61.3794V48.8503H61.9011V47.5879Z" fill="#509050"/>
<path d="M73.3252 45.8063V45.2871H72.2817V45.8063H72.8035H73.3252Z" fill="#509050"/>
<path d="M68.0564 45.2871H66.6479V45.8063H68.0564V45.2871Z" fill="#509050"/>
<path d="M70.8733 53.1572H69.4648V53.6765H70.8733V53.1572Z" fill="#509050"/>
<path d="M70.8733 45.2871H69.4648V45.8063H70.8733V45.2871Z" fill="#509050"/>
<path d="M65.24 45.2871H63.8315V45.8063H65.24V45.2871Z" fill="#509050"/>
<path d="M72.8035 53.1509V53.1568H72.2817V53.676H73.3252V53.1509H72.8035Z" fill="#509050"/>
<path d="M68.0569 53.1572H66.6484V53.6765H68.0569V53.1572Z" fill="#509050"/>
<path opacity="0.2" d="M68.2804 49.9397C68.2804 51.3417 67.1386 52.478 65.7298 52.478C64.321 52.478 63.1792 51.3417 63.1792 49.9397C63.1792 48.5377 64.321 47.4014 65.7298 47.4014C67.1383 47.4014 68.2804 48.538 68.2804 49.9397Z" fill="white"/>
<path d="M68.0326 49.3421C68.0326 50.6923 66.9328 51.7868 65.5761 51.7868C64.2195 51.7868 63.1196 50.6923 63.1196 49.3421C63.1196 47.992 64.2195 46.8975 65.5761 46.8975C66.9331 46.8975 68.0326 47.992 68.0326 49.3421Z" fill="#5383EC"/>
<path opacity="0.53" d="M65.6773 47.5071C65.5555 47.3079 65.0866 47.3705 64.6299 47.647C64.1733 47.9235 63.9017 48.3091 64.0239 48.5082C64.1456 48.7074 64.6146 48.6448 65.0712 48.3683C65.5279 48.0921 65.7991 47.7062 65.6773 47.5071Z" fill="white"/>
<path fill-rule="evenodd" clip-rule="evenodd" d="M45.1895 62.2034C45.1895 61.7389 45.566 61.3623 46.0306 61.3623H55.7848C56.2493 61.3623 56.6259 61.7389 56.6259 62.2034C56.6259 62.668 56.2493 63.0445 55.7848 63.0445H46.0306C45.566 63.0445 45.1895 62.668 45.1895 62.2034Z" fill="#509050"/>
<path fill-rule="evenodd" clip-rule="evenodd" d="M58.1948 62.2034C58.1948 61.7389 58.5714 61.3623 59.0359 61.3623H64.4287C64.8932 61.3623 65.2698 61.7389 65.2698 62.2034C65.2698 62.668 64.8932 63.0445 64.4287 63.0445H59.0359C58.5714 63.0445 58.1948 62.668 58.1948 62.2034Z" fill="#509050"/>
</g>
<defs>
<clipPath id="clip0">
<rect width="59.7197" height="64.2123" fill="white" transform="translate(15.1401 5.8877)"/>
</clipPath>
</defs>
</svg>
