<svg width="168" height="26" viewBox="0 0 168 26" fill="none" xmlns="http://www.w3.org/2000/svg">
<path fill-rule="evenodd" clip-rule="evenodd" d="M8.36045 0C8.01917 0 7.77818 0.334347 7.8861 0.658112L16.1987 25.5959C16.2667 25.8 16.4578 25.9378 16.673 25.9378H17.2207C17.2291 25.9382 17.2375 25.9384 17.246 25.9384H22.4799C22.6951 25.9384 22.8861 25.8007 22.9542 25.5965L30.4808 3.01671C30.5887 2.69294 30.3477 2.3586 30.0064 2.3586H29.7022H24.4122H17.7892C17.4488 2.3586 17.2079 2.6913 17.3142 3.01467L18.7934 7.51662C18.8608 7.72183 19.0524 7.86055 19.2684 7.86055H22.5782L19.5765 16.8656L14.0686 0.341886C14.0006 0.137715 13.8095 0 13.5943 0H8.36045ZM0.500384 2.3586C0.159105 2.3586 -0.0818802 2.69294 0.0260416 3.01671L7.55264 25.5965C7.62069 25.8007 7.81176 25.9384 8.02698 25.9384H13.2608C13.6021 25.9384 13.8431 25.604 13.7352 25.2803L6.20857 2.70048C6.14052 2.49631 5.94945 2.3586 5.73423 2.3586H0.500384Z" fill="#64B564"/>
<path fill-rule="evenodd" clip-rule="evenodd" d="M39.524 17.2921C39.3609 17.2921 39.2572 17.218 39.2127 17.0698L35.2776 2.01851L35.2554 1.92958C35.2554 1.79619 35.3369 1.72949 35.4999 1.72949H38.2567C38.405 1.72949 38.5013 1.8036 38.5458 1.95182L40.6578 11.0004C40.6727 11.0597 40.6949 11.0893 40.7245 11.0893C40.7542 11.0893 40.7764 11.0597 40.7912 11.0004L42.8366 1.97405C42.8811 1.81101 42.9774 1.72949 43.1256 1.72949H45.8157C45.9788 1.72949 46.0825 1.8036 46.127 1.95182L48.3502 11.0004C48.3651 11.0449 48.3873 11.0708 48.4169 11.0782C48.4466 11.0856 48.4688 11.0597 48.4836 11.0004L50.529 1.97405C50.5735 1.81101 50.6698 1.72949 50.818 1.72949H53.4414C53.6489 1.72949 53.7305 1.82583 53.686 2.01851L50.0399 17.0698C49.9954 17.218 49.8917 17.2921 49.7286 17.2921H47.083C46.9348 17.2921 46.8384 17.218 46.794 17.0698L44.5263 7.44321C44.5114 7.38392 44.4892 7.35428 44.4596 7.35428C44.4299 7.35428 44.4077 7.38392 44.3929 7.44321L42.2808 17.0476C42.2512 17.2106 42.1548 17.2921 41.9918 17.2921H39.524ZM65.7017 17.2919C65.5535 17.2919 65.4497 17.2252 65.3905 17.0918L62.6114 10.9335C62.5818 10.8742 62.5373 10.8445 62.478 10.8445H60.4104C60.3363 10.8445 60.2992 10.8816 60.2992 10.9557V17.0251C60.2992 17.0992 60.2733 17.1622 60.2214 17.2141C60.1696 17.266 60.1066 17.2919 60.0325 17.2919H57.4313C57.3572 17.2919 57.2942 17.266 57.2423 17.2141C57.1904 17.1622 57.1645 17.0992 57.1645 17.0251V1.99605C57.1645 1.92194 57.1904 1.85895 57.2423 1.80708C57.2942 1.7552 57.3572 1.72926 57.4313 1.72926H63.7897C64.7383 1.72926 65.572 1.92194 66.2909 2.3073C67.0097 2.69267 67.5655 3.24106 67.9583 3.9525C68.3511 4.66394 68.5475 5.48653 68.5475 6.42029C68.5475 7.42816 68.2955 8.29151 67.7916 9.01036C67.2876 9.72921 66.5836 10.2368 65.6795 10.5333C65.6054 10.5629 65.5831 10.6148 65.6128 10.6889L68.6364 16.9807C68.666 17.04 68.6809 17.0844 68.6809 17.1141C68.6809 17.2326 68.5993 17.2919 68.4363 17.2919H65.7017ZM60.4092 4.42052C60.3351 4.42052 60.298 4.45758 60.298 4.53169V8.33342C60.298 8.40753 60.3351 8.44458 60.4092 8.44458H63.3216C63.9441 8.44458 64.4518 8.25931 64.8446 7.88877C65.2373 7.51823 65.4337 7.03654 65.4337 6.44367C65.4337 5.8508 65.2373 5.3654 64.8446 4.98745C64.4518 4.6095 63.9441 4.42052 63.3216 4.42052H60.4092ZM72.6701 17.2919C72.596 17.2919 72.533 17.266 72.4811 17.2141C72.4292 17.1622 72.4033 17.0992 72.4033 17.0251V1.99605C72.4033 1.92194 72.4292 1.85895 72.4811 1.80708C72.533 1.7552 72.596 1.72926 72.6701 1.72926H75.2713C75.3454 1.72926 75.4084 1.7552 75.4603 1.80708C75.5121 1.85895 75.5381 1.92194 75.5381 1.99605V17.0251C75.5381 17.0992 75.5121 17.1622 75.4603 17.2141C75.4084 17.266 75.3454 17.2919 75.2713 17.2919H72.6701ZM90.5763 1.72926C90.6504 1.72926 90.7134 1.7552 90.7653 1.80708C90.8171 1.85895 90.8431 1.92194 90.8431 1.99605V4.17482C90.8431 4.24893 90.8171 4.31192 90.7653 4.3638C90.7134 4.41567 90.6504 4.44161 90.5763 4.44161H86.5967C86.5226 4.44161 86.4855 4.47867 86.4855 4.55277V17.0251C86.4855 17.0992 86.4596 17.1622 86.4077 17.2141C86.3558 17.266 86.2929 17.2919 86.2187 17.2919H83.6176C83.5434 17.2919 83.4805 17.266 83.4286 17.2141C83.3767 17.1622 83.3508 17.0992 83.3508 17.0251V4.55277C83.3508 4.47867 83.3137 4.44161 83.2396 4.44161H79.3712C79.2971 4.44161 79.2341 4.41567 79.1822 4.3638C79.1303 4.31192 79.1044 4.24893 79.1044 4.17482V1.99605C79.1044 1.92194 79.1303 1.85895 79.1822 1.80708C79.2341 1.7552 79.2971 1.72926 79.3712 1.72926H90.5763ZM105.237 4.15259C105.237 4.2267 105.211 4.28969 105.159 4.34157C105.107 4.39344 105.044 4.41938 104.97 4.41938H97.6777C97.6036 4.41938 97.5666 4.45643 97.5666 4.53054V7.97656C97.5666 8.05067 97.6036 8.08772 97.6777 8.08772H102.458C102.532 8.08772 102.595 8.11366 102.647 8.16553C102.699 8.21741 102.724 8.2804 102.724 8.35451V10.511C102.724 10.5852 102.699 10.6481 102.647 10.7C102.595 10.7519 102.532 10.7778 102.458 10.7778H97.6777C97.6036 10.7778 97.5666 10.8149 97.5666 10.889V14.4906C97.5666 14.5647 97.6036 14.6018 97.6777 14.6018H104.97C105.044 14.6018 105.107 14.6277 105.159 14.6796C105.211 14.7315 105.237 14.7945 105.237 14.8686V17.0251C105.237 17.0992 105.211 17.1622 105.159 17.2141C105.107 17.266 105.044 17.2919 104.97 17.2919H94.6986C94.6245 17.2919 94.5615 17.266 94.5096 17.2141C94.4577 17.1622 94.4318 17.0992 94.4318 17.0251V1.99605C94.4318 1.92194 94.4577 1.85895 94.5096 1.80708C94.5615 1.7552 94.6245 1.72926 94.6986 1.72926H104.97C105.044 1.72926 105.107 1.7552 105.159 1.80708C105.211 1.85895 105.237 1.92194 105.237 1.99605V4.15259ZM117.541 17.2919C117.393 17.2919 117.289 17.2252 117.23 17.0918L114.451 10.9335C114.421 10.8742 114.377 10.8445 114.318 10.8445H112.25C112.176 10.8445 112.139 10.8816 112.139 10.9557V17.0251C112.139 17.0992 112.113 17.1622 112.061 17.2141C112.009 17.266 111.946 17.2919 111.872 17.2919H109.271C109.197 17.2919 109.134 17.266 109.082 17.2141C109.03 17.1622 109.004 17.0992 109.004 17.0251V1.99605C109.004 1.92194 109.03 1.85895 109.082 1.80708C109.134 1.7552 109.197 1.72926 109.271 1.72926H115.629C116.578 1.72926 117.412 1.92194 118.13 2.3073C118.849 2.69267 119.405 3.24106 119.798 3.9525C120.191 4.66394 120.387 5.48653 120.387 6.42029C120.387 7.42816 120.135 8.29151 119.631 9.01036C119.127 9.72921 118.423 10.2368 117.519 10.5333C117.445 10.5629 117.423 10.6148 117.452 10.6889L120.476 16.9807C120.506 17.04 120.52 17.0844 120.52 17.1141C120.52 17.2326 120.439 17.2919 120.276 17.2919H117.541ZM112.249 4.42052C112.175 4.42052 112.138 4.45758 112.138 4.53169V8.33342C112.138 8.40753 112.175 8.44458 112.249 8.44458H115.161C115.784 8.44458 116.291 8.25931 116.684 7.88877C117.077 7.51823 117.273 7.03654 117.273 6.44367C117.273 5.8508 117.077 5.3654 116.684 4.98745C116.291 4.6095 115.784 4.42052 115.161 4.42052H112.249ZM133.468 9.1771C133.379 9.22157 133.379 9.26603 133.468 9.3105C134.876 10.0368 135.58 11.2447 135.58 12.9344C135.58 14.3721 135.091 15.4577 134.113 16.1914C133.135 16.9251 131.853 17.2919 130.267 17.2919H124.509C124.435 17.2919 124.372 17.266 124.32 17.2141C124.268 17.1622 124.242 17.0992 124.242 17.0251V1.99605C124.242 1.92194 124.268 1.85895 124.32 1.80708C124.372 1.7552 124.435 1.72926 124.509 1.72926H130.089C133.602 1.72926 135.358 3.15212 135.358 5.99788C135.358 7.48004 134.728 8.53977 133.468 9.1771ZM127.489 4.42052C127.414 4.42052 127.377 4.45758 127.377 4.53169V7.99993C127.377 8.07404 127.414 8.1111 127.489 8.1111H130.09C130.786 8.1111 131.327 7.94806 131.713 7.62198C132.098 7.29591 132.291 6.85127 132.291 6.28804C132.291 5.71 132.098 5.25424 131.713 4.92075C131.327 4.58727 130.786 4.42052 130.09 4.42052H127.489ZM130.268 14.5798C130.949 14.5798 131.483 14.4056 131.868 14.0573C132.254 13.709 132.446 13.231 132.446 12.6233C132.446 12.0156 132.254 11.5376 131.868 11.1893C131.483 10.841 130.942 10.6669 130.245 10.6669H127.489C127.414 10.6669 127.377 10.7039 127.377 10.778V14.4686C127.377 14.5427 127.414 14.5798 127.489 14.5798H130.268ZM148.663 17.2919C148.515 17.2919 148.419 17.2178 148.374 17.0696L147.707 14.8908C147.678 14.8315 147.641 14.8019 147.596 14.8019H142.127C142.083 14.8019 142.046 14.8315 142.016 14.8908L141.371 17.0696C141.327 17.2178 141.23 17.2919 141.082 17.2919H138.259C138.17 17.2919 138.103 17.266 138.059 17.2141C138.014 17.1622 138.007 17.0844 138.036 16.9807L142.839 1.95159C142.883 1.80337 142.979 1.72926 143.128 1.72926H146.618C146.766 1.72926 146.863 1.80337 146.907 1.95159L151.709 16.9807C151.724 17.0103 151.732 17.0474 151.732 17.0918C151.732 17.2252 151.65 17.2919 151.487 17.2919H148.663ZM142.815 12.2465C142.8 12.3354 142.83 12.3798 142.904 12.3798H146.817C146.906 12.3798 146.936 12.3354 146.906 12.2465L144.905 5.64344C144.89 5.58415 144.868 5.55822 144.838 5.56563C144.809 5.57304 144.787 5.59898 144.772 5.64344L142.815 12.2465ZM159.478 17.2697C159.404 17.2697 159.341 17.2437 159.289 17.1919C159.237 17.14 159.211 17.077 159.211 17.0029V11.3781C159.211 11.3188 159.204 11.2744 159.189 11.2447L154.609 2.04052C154.579 1.98123 154.564 1.93677 154.564 1.90712C154.564 1.78855 154.646 1.72926 154.809 1.72926H157.61C157.758 1.72926 157.862 1.79596 157.921 1.92935L160.701 7.84316C160.745 7.93209 160.789 7.93209 160.834 7.84316L163.613 1.92935C163.672 1.79596 163.776 1.72926 163.924 1.72926H166.77C166.874 1.72926 166.944 1.7552 166.981 1.80708C167.018 1.85895 167.015 1.93676 166.97 2.04052L162.346 11.2447C162.331 11.2744 162.324 11.3188 162.324 11.3781V17.0029C162.324 17.077 162.298 17.14 162.246 17.1919C162.194 17.2437 162.131 17.2697 162.057 17.2697H159.478Z" fill="#64B564"/>
<path fill-rule="evenodd" clip-rule="evenodd" d="M54.1342 25.9922C53.6132 25.9922 53.2016 25.8746 52.8996 25.6395C52.5976 25.4043 52.4466 25.0907 52.4466 24.6988V24.4844C52.4466 24.4383 52.4696 24.4152 52.5157 24.4152H52.8546C52.9007 24.4152 52.9238 24.4383 52.9238 24.4844V24.6711C52.9238 24.9386 53.0345 25.1541 53.2558 25.3178C53.4771 25.4815 53.7838 25.5634 54.1757 25.5634C54.5308 25.5634 54.8005 25.4885 54.985 25.3386C55.1694 25.1887 55.2617 24.9893 55.2617 24.7403C55.2617 24.5789 55.219 24.4406 55.1337 24.3253C55.0484 24.21 54.917 24.1016 54.7394 24.0002C54.5619 23.8988 54.3118 23.7812 53.989 23.6474C53.6431 23.5091 53.3745 23.3881 53.1832 23.2843C52.9918 23.1806 52.8373 23.0468 52.7198 22.8832C52.6022 22.7195 52.5434 22.5131 52.5434 22.2641C52.5434 21.8768 52.6783 21.5759 52.948 21.3615C53.2178 21.147 53.5878 21.0398 54.0581 21.0398C54.57 21.0398 54.9735 21.1597 55.2686 21.3995C55.5637 21.6393 55.7113 21.9575 55.7113 22.354V22.5062C55.7113 22.5523 55.6882 22.5754 55.6421 22.5754H55.2962C55.2501 22.5754 55.2271 22.5523 55.2271 22.5062V22.3817C55.2271 22.1142 55.1222 21.8952 54.9124 21.7246C54.7026 21.554 54.4109 21.4687 54.0374 21.4687C53.71 21.4687 53.4587 21.5355 53.2835 21.6693C53.1083 21.803 53.0206 21.9967 53.0206 22.2503C53.0206 22.4163 53.0633 22.5535 53.1486 22.6618C53.2339 22.7702 53.3561 22.8647 53.5152 22.9454C53.6743 23.0261 53.9198 23.131 54.2518 23.2601C54.5884 23.3984 54.8593 23.5276 55.0645 23.6474C55.2697 23.7673 55.4357 23.9137 55.5625 24.0867C55.6893 24.2596 55.7528 24.4705 55.7528 24.7195C55.7528 25.1069 55.6098 25.4158 55.3239 25.6464C55.038 25.8769 54.6415 25.9922 54.1342 25.9922ZM40.1899 25.9999C39.8671 25.9999 39.5835 25.9365 39.3391 25.8097C39.0947 25.6829 38.9045 25.5031 38.7685 25.2702C38.6325 25.0374 38.5645 24.7688 38.5645 24.4644V22.5623C38.5645 22.2626 38.6325 21.9974 38.7685 21.7669C38.9045 21.5363 39.0947 21.3577 39.3391 21.2308C39.5835 21.104 39.8671 21.0406 40.1899 21.0406C40.5127 21.0406 40.7963 21.1029 41.0406 21.2274C41.285 21.3519 41.4752 21.5271 41.6113 21.7531C41.7473 21.979 41.8153 22.2395 41.8153 22.5346C41.8153 22.5577 41.8084 22.5761 41.7946 22.59C41.7807 22.6038 41.7646 22.6107 41.7462 22.6107L41.3934 22.6315C41.3473 22.6315 41.3242 22.6107 41.3242 22.5692V22.5485C41.3242 22.2211 41.2205 21.9594 41.013 21.7634C40.8055 21.5675 40.5311 21.4695 40.1899 21.4695C39.8487 21.4695 39.5743 21.5686 39.3668 21.7669C39.1593 21.9652 39.0555 22.2257 39.0555 22.5485V24.4852C39.0555 24.8079 39.1593 25.0685 39.3668 25.2668C39.5743 25.465 39.8487 25.5642 40.1899 25.5642C40.5311 25.5642 40.8055 25.4662 41.013 25.2702C41.2205 25.0742 41.3242 24.8126 41.3242 24.4852V24.4713C41.3242 24.4298 41.3473 24.4091 41.3934 24.4091L41.7462 24.4298C41.7923 24.4298 41.8153 24.4506 41.8153 24.4921C41.8153 24.7918 41.7473 25.0558 41.6113 25.284C41.4752 25.5123 41.285 25.6887 41.0406 25.8132C40.7963 25.9377 40.5127 25.9999 40.1899 25.9999ZM48.7184 25.9369C48.6769 25.9369 48.6493 25.9185 48.6354 25.8816L48.3588 25.0101C48.3542 24.9963 48.3449 24.9893 48.3311 24.9893H46.263C46.2492 24.9893 46.2399 24.9963 46.2353 25.0101L45.9587 25.8816C45.9448 25.9185 45.9172 25.9369 45.8757 25.9369H45.5022C45.4514 25.9369 45.433 25.9116 45.4468 25.8609L46.9754 21.1506C46.9893 21.1137 47.0169 21.0952 47.0584 21.0952H47.5288C47.5703 21.0952 47.5979 21.1137 47.6118 21.1506L49.1473 25.8609L49.1542 25.8885C49.1542 25.9208 49.1334 25.9369 49.0919 25.9369H48.7184ZM46.378 24.5792C46.3711 24.5723 46.3699 24.5642 46.3745 24.555L47.2737 21.733C47.2783 21.7237 47.2852 21.7191 47.2945 21.7191C47.3037 21.7191 47.3106 21.7237 47.3152 21.733L48.2144 24.555C48.219 24.5642 48.2178 24.5723 48.2109 24.5792C48.204 24.5861 48.1959 24.5896 48.1867 24.5896H46.4022C46.393 24.5896 46.3849 24.5861 46.378 24.5792ZM62.5386 21.0952C62.4925 21.0952 62.4694 21.1183 62.4694 21.1644V23.2602C62.4694 23.2786 62.4602 23.2878 62.4417 23.2878H60.2353C60.2169 23.2878 60.2076 23.2786 60.2076 23.2602V21.1644C60.2076 21.1183 60.1846 21.0952 60.1385 21.0952H59.7857C59.7396 21.0952 59.7166 21.1183 59.7166 21.1644V25.8678C59.7166 25.9139 59.7396 25.9369 59.7857 25.9369H60.1385C60.1846 25.9369 60.2076 25.9139 60.2076 25.8678V23.7443C60.2076 23.7259 60.2169 23.7167 60.2353 23.7167H62.4417C62.4602 23.7167 62.4694 23.7259 62.4694 23.7443V25.8678C62.4694 25.9139 62.4925 25.9369 62.5386 25.9369H62.8913C62.9374 25.9369 62.9605 25.9139 62.9605 25.8678V21.1644C62.9605 21.1183 62.9374 21.0952 62.8913 21.0952H62.5386ZM74.629 21.4549C74.629 21.501 74.6059 21.5241 74.5598 21.5241H72.0214C72.0029 21.5241 71.9937 21.5333 71.9937 21.5517V23.2602C71.9937 23.2786 72.0029 23.2878 72.0214 23.2878H73.799C73.8451 23.2878 73.8681 23.3109 73.8681 23.357V23.6475C73.8681 23.6936 73.8451 23.7167 73.799 23.7167H72.0214C72.0029 23.7167 71.9937 23.7259 71.9937 23.7443V25.8678C71.9937 25.9139 71.9707 25.9369 71.9245 25.9369H71.5718C71.5257 25.9369 71.5026 25.9139 71.5026 25.8678V21.1644C71.5026 21.1183 71.5257 21.0952 71.5718 21.0952H74.5598C74.6059 21.0952 74.629 21.1183 74.629 21.1644V21.4549ZM78.9722 25.7916C79.2212 25.9254 79.5094 25.9922 79.8368 25.9922C80.1642 25.9922 80.4535 25.9254 80.7049 25.7916C80.9562 25.6579 81.1498 25.47 81.2859 25.2279C81.4219 24.9858 81.4899 24.7057 81.4899 24.3875V22.6445C81.4899 22.3264 81.4219 22.0462 81.2859 21.8041C81.1498 21.5621 80.9562 21.3742 80.7049 21.2404C80.4535 21.1067 80.1642 21.0398 79.8368 21.0398C79.5094 21.0398 79.2212 21.1067 78.9722 21.2404C78.7232 21.3742 78.5307 21.5621 78.3947 21.8041C78.2586 22.0462 78.1906 22.3264 78.1906 22.6445V24.3875C78.1906 24.7057 78.2586 24.9858 78.3947 25.2279C78.5307 25.47 78.7232 25.6579 78.9722 25.7916ZM79.8371 25.5718C80.1875 25.5718 80.4688 25.4657 80.6809 25.2536C80.8931 25.0415 80.9991 24.7602 80.9991 24.4098V22.6391C80.9991 22.2887 80.8931 22.0062 80.6809 21.7918C80.4688 21.5774 80.1875 21.4702 79.8371 21.4702C79.4913 21.4702 79.2123 21.5774 79.0002 21.7918C78.7881 22.0062 78.682 22.2887 78.682 22.6391V24.4098C78.682 24.7602 78.7881 25.0415 79.0002 25.2536C79.2123 25.4657 79.4913 25.5718 79.8371 25.5718ZM88.3245 25.8885C88.3383 25.9208 88.366 25.9369 88.4075 25.9369H88.7741C88.811 25.9369 88.8294 25.9208 88.8294 25.8885C88.8294 25.8747 88.8271 25.8632 88.8225 25.8539L87.785 23.7236C87.7758 23.7097 87.7804 23.6982 87.7988 23.689C88.0986 23.6244 88.336 23.4792 88.5113 23.2532C88.6865 23.0273 88.7741 22.7529 88.7741 22.4302C88.7741 22.0336 88.6519 21.712 88.4075 21.4653C88.1631 21.2186 87.8426 21.0952 87.4461 21.0952H85.6547C85.6085 21.0952 85.5855 21.1183 85.5855 21.1644V25.8678C85.5855 25.9139 85.6085 25.9369 85.6547 25.9369H86.0074C86.0535 25.9369 86.0766 25.9139 86.0766 25.8678V23.7512C86.0766 23.7328 86.0858 23.7236 86.1042 23.7236H87.2801C87.2939 23.7236 87.3031 23.7305 87.3078 23.7443L88.3245 25.8885ZM86.1035 21.5238C86.0851 21.5238 86.0759 21.533 86.0759 21.5515V23.3014C86.0759 23.3198 86.0851 23.3291 86.1035 23.3291H87.39C87.6575 23.3291 87.8742 23.2461 88.0402 23.0801C88.2062 22.9141 88.2892 22.6973 88.2892 22.4299C88.2892 22.1624 88.2062 21.9446 88.0402 21.7763C87.8742 21.6079 87.6575 21.5238 87.39 21.5238H86.1035ZM100.145 21.5241C100.191 21.5241 100.214 21.501 100.214 21.4549V21.1644C100.214 21.1183 100.191 21.0952 100.145 21.0952H97.1497C97.1036 21.0952 97.0805 21.1183 97.0805 21.1644V25.8678C97.0805 25.9139 97.1036 25.9369 97.1497 25.9369H100.145C100.191 25.9369 100.214 25.9139 100.214 25.8678V25.5773C100.214 25.5312 100.191 25.5081 100.145 25.5081H97.5993C97.5809 25.5081 97.5716 25.4989 97.5716 25.4804V23.7443C97.5716 23.7259 97.5809 23.7167 97.5993 23.7167H99.3838C99.4299 23.7167 99.453 23.6936 99.453 23.6475V23.357C99.453 23.3109 99.4299 23.2878 99.3838 23.2878H97.5993C97.5809 23.2878 97.5716 23.2786 97.5716 23.2602V21.5517C97.5716 21.5333 97.5809 21.5241 97.5993 21.5241H100.145ZM105.491 25.9369C105.45 25.9369 105.422 25.9185 105.408 25.8816L103.9 21.1713L103.893 21.1436C103.893 21.1114 103.914 21.0952 103.956 21.0952H104.329C104.371 21.0952 104.398 21.1137 104.412 21.1506L105.671 25.2038C105.676 25.213 105.683 25.2176 105.692 25.2176C105.701 25.2176 105.708 25.213 105.713 25.2038L106.971 21.1506C106.985 21.1137 107.013 21.0952 107.054 21.0952H107.421C107.472 21.0952 107.49 21.1206 107.476 21.1713L105.955 25.8816C105.941 25.9185 105.913 25.9369 105.872 25.9369H105.491ZM114.283 21.5241C114.329 21.5241 114.352 21.501 114.352 21.4549V21.1644C114.352 21.1183 114.329 21.0952 114.283 21.0952H111.288C111.242 21.0952 111.219 21.1183 111.219 21.1644V25.8678C111.219 25.9139 111.242 25.9369 111.288 25.9369H114.283C114.329 25.9369 114.352 25.9139 114.352 25.8678V25.5773C114.352 25.5312 114.329 25.5081 114.283 25.5081H111.738C111.719 25.5081 111.71 25.4989 111.71 25.4804V23.7443C111.71 23.7259 111.719 23.7167 111.738 23.7167H113.522C113.568 23.7167 113.591 23.6936 113.591 23.6475V23.357C113.591 23.3109 113.568 23.2878 113.522 23.2878H111.738C111.719 23.2878 111.71 23.2786 111.71 23.2602V21.5517C111.71 21.5333 111.719 21.5241 111.738 21.5241H114.283ZM121.165 25.9369C121.123 25.9369 121.096 25.9208 121.082 25.8885L120.065 23.7443C120.06 23.7305 120.051 23.7236 120.037 23.7236H118.862C118.843 23.7236 118.834 23.7328 118.834 23.7512V25.8678C118.834 25.9139 118.811 25.9369 118.765 25.9369H118.412C118.366 25.9369 118.343 25.9139 118.343 25.8678V21.1644C118.343 21.1183 118.366 21.0952 118.412 21.0952H120.203C120.6 21.0952 120.92 21.2186 121.165 21.4653C121.409 21.712 121.531 22.0336 121.531 22.4302C121.531 22.7529 121.444 23.0273 121.269 23.2532C121.093 23.4792 120.856 23.6244 120.556 23.689C120.538 23.6982 120.533 23.7097 120.542 23.7236L121.58 25.8539C121.584 25.8632 121.587 25.8747 121.587 25.8885C121.587 25.9208 121.568 25.9369 121.531 25.9369H121.165ZM118.833 21.5515C118.833 21.533 118.842 21.5238 118.861 21.5238H120.147C120.415 21.5238 120.632 21.6079 120.798 21.7763C120.964 21.9446 121.047 22.1624 121.047 22.4299C121.047 22.6973 120.964 22.9141 120.798 23.0801C120.632 23.2461 120.415 23.3291 120.147 23.3291H118.861C118.842 23.3291 118.833 23.3198 118.833 23.3014V21.5515ZM126.566 25.93C126.52 25.93 126.497 25.907 126.497 25.8609V23.8135C126.497 23.7951 126.495 23.7835 126.49 23.7789L125.052 21.1782C125.042 21.1598 125.038 21.1459 125.038 21.1367C125.038 21.1091 125.059 21.0952 125.1 21.0952H125.474C125.515 21.0952 125.543 21.1114 125.557 21.1436L126.719 23.2532C126.723 23.2579 126.73 23.2602 126.739 23.2602C126.749 23.2602 126.756 23.2579 126.76 23.2532L127.929 21.1436C127.947 21.1114 127.975 21.0952 128.012 21.0952H128.386C128.413 21.0952 128.432 21.1033 128.441 21.1194C128.45 21.1356 128.448 21.1552 128.434 21.1782L126.995 23.7789C126.991 23.7835 126.988 23.7951 126.988 23.8135V25.8609C126.988 25.907 126.965 25.93 126.919 25.93H126.566ZM137.487 25.8816C137.501 25.9185 137.526 25.9369 137.563 25.9369H137.909C137.955 25.9369 137.981 25.9162 137.985 25.8747L138.974 22.0013C138.979 21.9921 138.985 21.9875 138.992 21.9875C138.999 21.9875 139.004 21.9921 139.009 22.0013L140.019 25.8747C140.028 25.9162 140.053 25.9369 140.095 25.9369H140.461C140.503 25.9369 140.528 25.9185 140.537 25.8816L141.845 21.1713C141.849 21.1482 141.846 21.1298 141.834 21.116C141.823 21.1021 141.806 21.0952 141.783 21.0952H141.43C141.388 21.0952 141.363 21.1137 141.354 21.1506L140.302 24.9409C140.298 24.9501 140.292 24.9548 140.285 24.9548C140.278 24.9548 140.272 24.9501 140.268 24.9409L139.251 21.1575C139.242 21.116 139.216 21.0952 139.175 21.0952H138.801C138.76 21.0952 138.735 21.116 138.725 21.1575L137.75 24.9409C137.745 24.9501 137.74 24.9548 137.733 24.9548C137.726 24.9548 137.72 24.9501 137.715 24.9409L136.664 21.1506C136.655 21.1137 136.63 21.0952 136.588 21.0952H136.221C136.175 21.0952 136.152 21.1137 136.152 21.1506L136.159 21.1713L137.487 25.8816ZM146.971 25.9922C146.643 25.9922 146.355 25.9254 146.106 25.7916C145.857 25.6579 145.664 25.47 145.528 25.2279C145.392 24.9858 145.324 24.7057 145.324 24.3875V22.6445C145.324 22.3264 145.392 22.0462 145.528 21.8041C145.664 21.5621 145.857 21.3742 146.106 21.2404C146.355 21.1067 146.643 21.0398 146.971 21.0398C147.298 21.0398 147.587 21.1067 147.839 21.2404C148.09 21.3742 148.284 21.5621 148.42 21.8041C148.556 22.0462 148.624 22.3264 148.624 22.6445V24.3875C148.624 24.7057 148.556 24.9858 148.42 25.2279C148.284 25.47 148.09 25.6579 147.839 25.7916C147.587 25.9254 147.298 25.9922 146.971 25.9922ZM147.814 25.2536C147.602 25.4657 147.32 25.5718 146.97 25.5718C146.624 25.5718 146.345 25.4657 146.133 25.2536C145.921 25.0415 145.815 24.7602 145.815 24.4098V22.6391C145.815 22.2887 145.921 22.0062 146.133 21.7918C146.345 21.5774 146.624 21.4702 146.97 21.4702C147.32 21.4702 147.602 21.5774 147.814 21.7918C148.026 22.0062 148.132 22.2887 148.132 22.6391V24.4098C148.132 24.7602 148.026 25.0415 147.814 25.2536ZM155.54 25.9369C155.499 25.9369 155.471 25.9208 155.457 25.8885L154.44 23.7443C154.436 23.7305 154.427 23.7236 154.413 23.7236H153.237C153.219 23.7236 153.209 23.7328 153.209 23.7512V25.8678C153.209 25.9139 153.186 25.9369 153.14 25.9369H152.787C152.741 25.9369 152.718 25.9139 152.718 25.8678V21.1644C152.718 21.1183 152.741 21.0952 152.787 21.0952H154.579C154.975 21.0952 155.296 21.2186 155.54 21.4653C155.785 21.712 155.907 22.0336 155.907 22.4302C155.907 22.7529 155.819 23.0273 155.644 23.2532C155.469 23.4792 155.231 23.6244 154.932 23.689C154.913 23.6982 154.909 23.7097 154.918 23.7236L155.955 25.8539C155.96 25.8632 155.962 25.8747 155.962 25.8885C155.962 25.9208 155.944 25.9369 155.907 25.9369H155.54ZM153.21 21.5515C153.21 21.533 153.219 21.5238 153.237 21.5238H154.524C154.791 21.5238 155.008 21.6079 155.174 21.7763C155.34 21.9446 155.423 22.1624 155.423 22.4299C155.423 22.6973 155.34 22.9141 155.174 23.0801C155.008 23.2461 154.791 23.3291 154.524 23.3291H153.237C153.219 23.3291 153.21 23.3198 153.21 23.3014V21.5515ZM159.96 25.9369C159.914 25.9369 159.891 25.9139 159.891 25.8678V21.1644C159.891 21.1183 159.914 21.0952 159.96 21.0952H161.592C162.049 21.0952 162.412 21.2151 162.681 21.4549C162.951 21.6947 163.086 22.0198 163.086 22.4302V24.602C163.086 25.0124 162.951 25.3375 162.681 25.5773C162.412 25.817 162.049 25.9369 161.592 25.9369H159.96ZM160.411 25.5078C160.392 25.5078 160.383 25.4986 160.383 25.4802V21.5515C160.383 21.533 160.392 21.5238 160.411 21.5238H161.614C161.918 21.5238 162.158 21.6114 162.333 21.7866C162.509 21.9619 162.596 22.1993 162.596 22.4991V24.5395C162.596 24.8346 162.508 25.0698 162.33 25.245C162.152 25.4202 161.914 25.5078 161.614 25.5078H160.411Z" fill="#25282A"/>
</svg>
