<svg width="68" height="68" viewBox="0 0 68 68" fill="none" xmlns="http://www.w3.org/2000/svg">
<circle cx="34" cy="34" r="34" fill="#F5F7F8"/>
<g clip-path="url(#clip0)">
<path d="M34.5436 16.3917L39.9109 27.2371C39.9993 27.4155 40.1699 27.5392 40.3674 27.5678L52.3691 29.307C52.8664 29.379 53.0649 29.9884 52.7051 30.3382L44.0206 38.7801C43.8777 38.919 43.8125 39.1191 43.8462 39.3152L45.8964 51.2355C45.9813 51.7294 45.4615 52.106 45.0168 51.8728L34.282 46.2448C34.1055 46.1523 33.8945 46.1523 33.7178 46.2448L22.9832 51.8728C22.5384 52.106 22.0186 51.7294 22.1036 51.2355L24.1537 39.3152C24.1874 39.1191 24.1222 38.919 23.9794 38.7802L15.2948 30.3382C14.935 29.9884 15.1336 29.379 15.6308 29.307L27.6326 27.5678C27.8301 27.5392 28.0007 27.4155 28.089 27.2371L33.4564 16.3917C33.6787 15.9424 34.3212 15.9424 34.5436 16.3917Z" fill="#F3CC30"/>
<path d="M34.0002 18.8984L29.2171 28.1374C28.9662 28.622 28.4846 28.9454 27.94 28.995L17.5549 29.9404L28.527 30.4521C29.2239 30.4845 29.8616 30.0633 30.1035 29.4107L34.0002 18.8984Z" fill="#F7DB5E"/>
<path d="M22.3396 49.8659L22.1037 51.2376C22.0187 51.7315 22.5385 52.1081 22.9833 51.8749L33.7179 46.2469C33.8946 46.1543 34.1055 46.1543 34.2821 46.2469L45.0168 51.8749C45.4616 52.1081 45.9813 51.7315 45.8964 51.2376L43.8463 39.3173C43.8126 39.1213 43.8778 38.9211 44.0207 38.7823L52.7052 30.3402C53.0651 29.9905 52.8665 29.3811 52.3692 29.3091L48.3493 28.7266C41.8475 40.3627 31.8916 46.4891 22.3396 49.8659Z" fill="#EDBD31"/>
</g>
<defs>
<clipPath id="clip0">
<rect width="37.7778" height="35.8889" fill="white" transform="translate(15.1108 16.0547)"/>
</clipPath>
</defs>
</svg>
