<svg width="168" height="165" viewBox="0 0 168 165" fill="none" xmlns="http://www.w3.org/2000/svg">
<g clip-path="url(#clip0)">
<path fill-rule="evenodd" clip-rule="evenodd" d="M49.3174 118.195C45.7543 127.992 30.9078 129.556 22.5613 126.37C16.4737 124.047 13.4294 120.385 9.24351 115.729C7.98232 114.326 4.64416 110.082 2.3551 110.559C-1.44255 111.351 0.25669 120.201 1.25765 122.481C3.9463 128.606 11.8897 136.19 18.1248 138.655C24.9052 141.336 32.5894 141.181 39.7746 140.823C44.4915 140.587 50.6282 138.499 55.2555 139.925C59.3107 141.175 60.0657 145.353 60.8531 149.007C61.8965 153.847 64.3218 157.981 68.4217 160.931C75.0997 165.734 88.3544 167.34 93.8278 159.825C96.7172 155.858 96.8143 150.423 99.488 146.267C101.686 142.851 105.302 139.693 108.885 137.757C118.056 132.805 130.179 132.763 140.298 131.609C147.725 130.762 155.151 128.956 159.014 122.077C161.987 116.784 161.896 106.716 160.729 100.812C158.803 91.0679 147.124 90.0685 140.511 84.4739C134.326 79.2423 135.853 72.9007 135.063 65.7903C134.695 62.4727 133.656 59.4946 133.957 56.0469C134.199 53.278 135.232 50.5883 135.58 47.8083C136.295 42.0852 134.468 34.697 131.44 29.6765C127.606 23.3208 117.609 24.4373 111.071 24.4373C101.387 24.4373 84.7447 25.3309 80.3822 35.6662C79.3369 38.1417 78.9873 40.411 76.9736 42.3572C74.3214 44.9206 70.7011 46.3443 67.6516 48.3675C65.1395 50.0339 62.5402 51.9343 60.7728 54.4115C58.4758 57.6305 58.6002 60.9126 57.7272 64.5823C56.2603 70.7497 51.5779 71.8738 46.8482 75.0783C42.5547 77.9873 40.682 81.3416 37.5083 85.1615C30.615 93.4589 24.2813 88.119 17.0255 84.1801C12.8568 81.9172 7.05934 78.6329 5.01831 85.013C2.46714 92.9872 10.2512 98.803 15.7483 102.993C20.5162 106.626 24.9954 110.652 30.4181 113.289C33.6911 114.88 36.9929 115.33 40.3007 116.279C43.216 117.115 47.4103 119.515 50.4092 119.285" fill="#FDDEDB"/>
<path fill-rule="evenodd" clip-rule="evenodd" d="M99.1631 0.609863C104.453 1.6718 104.346 8.12084 105.97 12.8413C110.076 13.1449 114.116 14.7619 116.862 16.9187C120.573 15.0959 126.194 11.9777 131.385 14.0495C127.98 16.238 124.591 18.4425 122.46 21.9019C123.531 22.0991 124.133 20.8351 124.729 20.2407C126.773 18.2005 129.239 16.2586 131.688 14.5025C134.33 18.7438 130.844 24.5509 129.872 28.5461C131.17 31.3384 131.426 33.997 131.234 38.3618C130.695 50.5727 123.224 60.918 111.719 63.2781C109.928 63.6455 107.472 64.283 106.122 64.0335C105.25 63.8719 104.502 62.8012 103.701 62.3723C100.607 60.7149 95.4554 60.1607 90.9938 60.4094C90.4183 60.4283 89.3761 58.7664 88.4224 59.9559C85.3748 55.7499 82.8662 51.0055 76.7743 49.8387C74.3034 46.2979 72.7387 42.6781 72.6897 37.0029C72.584 24.7291 79.3461 16.6493 88.1199 12.9924C90.7785 8.14644 93.518 3.38084 98.4066 0.760729C100.415 3.286 99.8232 8.40725 101.281 11.4825C101.716 7.91857 100.515 3.39469 99.1631 0.609863ZM91.4484 37.9088C94.131 37.9816 95.9622 35.6225 96.5914 33.0766C94.7429 34.4861 94.2682 37.5168 91.1457 37.154C89.2123 36.9293 87.9001 34.9026 87.969 32.9258C88.0258 31.2902 89.2222 30.1015 89.1793 28.6973C89.1459 28.5796 89.0528 28.5217 88.8769 28.5463C86.0711 31.6171 86.9441 37.7869 91.4484 37.9088ZM86.9098 43.1943C85.961 39.4581 82.4433 36.1781 77.9846 35.946C82.2436 37.0806 84.828 39.8868 86.9098 43.1943ZM112.627 46.6676C114.649 46.4185 116.071 44.5915 116.862 42.7415C115.255 43.2245 114.727 45.3599 112.778 45.7618C111.645 45.9953 110.24 45.5666 109.601 45.1577C107.214 43.6274 108.456 40.3148 108.845 37.607C105.493 40.979 107.393 47.312 112.627 46.6676ZM77.2283 39.721C80.4145 40.8191 82.351 43.1643 84.7921 45.0064C83.1841 42.031 80.1866 40.4422 76.9258 39.1172C76.8155 39.5293 77.2262 39.421 77.2283 39.721ZM98.5582 40.3251C98.0613 41.2639 98.1157 43.4845 98.7095 44.2514C97.8969 45.1516 97.9753 46.941 97.1967 47.8753C94.0337 47.8158 89.9743 49.2298 90.2381 51.9527C90.422 53.8504 92.6779 53.8338 94.625 54.3689C94.9758 55.277 94.5142 56.9965 95.3817 57.3891C97.3491 57.642 97.158 55.7395 98.1046 54.9727C103.032 55.6652 101.488 48.1418 97.9537 47.8751C98.4178 46.8791 98.7871 45.7882 99.0124 44.5529C100.178 43.8045 101.302 43.0136 101.886 41.684C101.264 40.7448 99.9043 40.5415 98.5582 40.3251ZM84.0356 46.2146C82.2188 44.3028 79.1493 43.6423 76.0178 43.0432C78.5675 44.2233 81.636 44.8855 84.0356 46.2146ZM106.122 51.8021C109.227 50.1627 114.225 50.0502 118.073 51.0467C115.07 49.3418 108.249 49.3108 106.122 51.8021ZM106.273 53.01C106.181 53.0184 106.094 53.0325 106.122 53.1607C110.471 53.2494 113.825 54.3301 117.014 55.5771C114.552 53.6989 110.504 52.6204 106.273 53.01ZM113.988 59.8051C112.443 57.4684 108.843 55.8828 105.97 54.3691C108.27 56.5532 111.594 57.7148 113.988 59.8051Z" fill="white"/>
<path fill-rule="evenodd" clip-rule="evenodd" d="M113.61 14.6476C113.61 14.6476 107.951 42.4875 130.283 46.4215C130.788 44.9087 133.415 36.8389 130.181 28.3659C131.293 25.9449 134.729 16.5641 132.102 13.7399C130.889 13.6389 125.332 10.8145 118.157 16.3623C117.046 16.0597 113.61 14.6476 113.61 14.6476Z" fill="#F3F0EF"/>
<path fill-rule="evenodd" clip-rule="evenodd" d="M112.802 53.6339C112.802 56.0016 110.879 57.9209 108.507 57.9209C106.136 57.9209 104.213 56.0016 104.213 53.6339C104.213 51.2663 106.135 49.3472 108.507 49.3472C110.879 49.3472 112.802 51.2663 112.802 53.6339Z" fill="#ECB9BF"/>
<path fill-rule="evenodd" clip-rule="evenodd" d="M72.8425 1.21394C71.8973 3.49204 69.9042 4.72393 68.4557 6.49928C69.3293 7.13716 71.4006 6.57923 72.086 7.40532C71.562 8.99329 68.6733 7.46659 67.5479 7.25424C68.1955 4.62888 70.6886 3.84581 71.7838 1.66717C70.3565 1.12833 68.2514 1.26661 67.5479 0.00596819C69.1317 -0.00263472 71.4819 0.499692 72.8425 1.21394Z" fill="black"/>
<path fill-rule="evenodd" clip-rule="evenodd" d="M106.576 12.2376C110.984 12.6195 114.146 14.2452 117.014 16.1637C119.636 14.8961 122.996 13.0563 126.545 12.6906C127.809 12.5601 130.207 12.538 131.234 13.1436C135.954 15.9255 131.846 25.0996 130.629 28.8483C131.191 30.2875 131.687 31.6747 131.839 33.2276C133.101 46.1339 127.568 54.997 120.796 60.2582C124.434 63.2825 125.747 68.2816 127.452 73.2453C129.431 79.004 130.876 85.0256 130.781 92.7254C137.148 90.3898 148.211 91.3704 153.774 94.2351C153.96 94.805 154.079 95.4412 154.077 96.1987C157.157 96.5825 156.813 101.193 156.497 105.108C156.088 110.176 155.992 115.229 155.59 120.209C155.388 122.704 155.405 125.31 153.774 126.4C143.97 126.238 132.001 125.339 121.552 126.098C116.67 126.453 111.728 125.447 107.03 125.343C103.493 132.559 98.2586 137.912 91.9024 142.86C90.2869 144.118 86.7538 146.239 86.3051 147.994C86.0001 149.188 86.3484 150.537 86.3051 151.618C86.0841 157.135 84.7847 162.545 79.1951 162.793C72.231 163.102 71.1046 157.258 69.3622 151.77C68.3432 148.56 67.2535 145.183 65.7317 142.86C61.9771 137.129 58.3399 133.588 54.386 128.967C45.0585 134.834 30.6061 136.329 19.29 131.384C12.5511 128.439 4.72056 122.713 1.89339 115.83C0.829784 113.24 -0.334715 108.405 1.43936 105.712C2.68731 103.818 6.37082 102.935 8.70087 104.05C10.8003 105.057 12.7487 107.958 14.2978 109.789C16.0427 111.851 17.6768 114.098 19.7439 115.679C21.8412 117.283 24.6053 118.406 27.3074 119.454C31.739 121.172 40.0389 121.689 42.5863 117.793C35.4293 112.04 26.7153 103.84 18.9871 97.7086C17.6091 96.6152 16.2077 95.6217 14.7516 94.688C13.2691 93.7379 11.5106 93.262 9.91078 92.272C7.41593 90.7281 4.09564 87.1245 3.85979 83.6645C3.51107 78.5533 6.90031 74.8408 12.3312 75.3587C18.3622 75.9342 21.7073 80.7989 25.946 83.2112C27.4441 76.4502 30.7183 71.2773 35.0225 67.2046C39.1477 63.3007 44.2036 59.3484 51.5116 58.7479C51.945 45.7388 59.6866 38.7216 71.7827 36.8514C72.3647 23.892 78.3619 16.3389 87.969 12.388C90.4304 7.7586 93.3097 1.59618 98.5584 0.15635C103.917 -1.31328 105.5 7.91912 106.576 12.2376ZM101.282 11.4826C99.824 8.4076 100.416 3.28634 98.4075 0.760862C93.5187 3.38098 90.7794 8.14657 88.1208 12.9925C79.3469 16.6494 72.5848 24.7292 72.6905 37.0031C72.7395 42.6783 74.3042 46.298 76.7751 49.8388C82.8673 51.0057 85.3758 55.7501 88.4232 59.9561C89.3769 58.7666 90.4191 60.4284 90.9946 60.4095C95.4565 60.1609 100.608 60.7152 103.702 62.3725C104.503 62.8013 105.25 63.8723 106.122 64.0337C107.473 64.2831 109.929 63.6457 111.72 63.2783C123.225 60.9181 130.696 50.5728 131.235 38.3619C131.426 33.9971 131.171 31.3386 129.873 28.5462C130.845 24.5509 134.33 18.7439 131.689 14.5027C129.24 16.2587 126.773 18.2007 124.73 20.2408C124.134 20.8352 123.532 22.0992 122.46 21.902C124.592 18.4424 127.981 16.2381 131.386 14.0496C126.194 11.9778 120.574 15.0961 116.863 16.9188C114.116 14.762 110.076 13.1451 105.971 12.8415C104.347 8.12076 104.454 1.67172 99.164 0.609996C100.516 3.39482 101.717 7.9187 101.282 11.4826ZM92.0538 74.453C92.7359 76.1917 94.21 77.6261 94.3229 79.5879C91.749 80.7462 88.2662 81.7926 85.2467 82.0035C84.4686 80.767 84.2979 78.924 84.1877 77.0207C81.2368 77.0805 77.5392 77.1642 75.2625 76.1147C76.9201 70.2691 79.9163 65.7601 84.3393 62.6748C80.3226 61.4996 74.3599 62.2671 71.6318 59.8054C72.0801 56.1729 74.5241 53.232 76.1699 50.2923C73.6787 47.0408 71.7566 43.2211 71.9342 37.3054C66.8436 38.3525 62.2355 40.0126 58.7735 43.0436C55.017 46.3322 51.8859 52.2672 52.2685 58.4464C52.7231 65.7832 58.1782 71.8071 67.0936 70.8293C66.8741 70.1894 66.274 69.1352 66.4886 68.564C67.1703 68.9908 67.1673 70.1014 67.5476 70.8293C68.0928 70.3167 69.0106 70.1757 69.2119 69.319C68.9677 68.5535 68.0519 67.6618 68.4554 66.7522C69.1066 67.2595 69.0127 68.5109 69.8167 68.8662C72.1089 64.3513 69.1119 61.415 67.5478 57.6918C67.0353 56.4717 66.5344 55.2608 66.1864 54.0675C65.824 52.8257 65.3989 51.4574 65.581 50.1412C66.7633 52.7506 67.2458 55.2106 68.4554 57.8427C69.5243 60.1693 71.62 62.7329 71.632 65.3931C71.6484 69.0832 68.9494 71.6907 65.7323 71.8862C58.6228 72.3189 52.4112 66.1044 51.6635 59.5035C44.5349 60.416 39.3837 64.1921 35.1745 68.1112C31.8305 71.2246 29.5563 75.2674 27.9132 79.7388C27.3553 81.2575 27.2538 82.9544 26.2493 84.4201C22.3215 82.4177 18.25 76.7739 12.3318 76.266C6.49295 75.7645 3.78559 79.9002 5.22209 85.3263C5.29608 83.3277 6.00087 81.1833 7.18871 80.7965C5.67107 83.2845 5.08294 88.1907 8.09613 89.4037C8.34984 87.3916 8.28636 85.0632 9.76027 84.2696C9.08974 85.8651 8.8169 87.8581 8.7015 90.0084C10.0749 91.5645 12.0237 92.1914 13.6935 93.1793C15.4081 94.1926 16.968 95.4847 18.5342 96.6524C24.9376 101.425 30.7219 106.723 36.6873 111.753C39.6988 114.292 42.5653 116.926 45.4612 119.605C51.4256 125.122 57.3202 129.937 62.1016 136.217C64.7271 139.665 66.5376 142.505 68.3039 146.636C69.1052 148.511 69.9193 150.587 70.573 152.677C71.8096 156.629 72.7176 161.287 77.2293 161.737C77.5621 160.867 77.5795 158.631 78.4394 157.811C78.7276 158.975 78.6581 160.897 78.2881 161.888C78.7417 161.888 79.1955 161.888 79.6498 161.888C80.6251 160.949 80.3356 158.748 81.011 157.509C81.6288 158.791 81.1029 160.444 80.709 161.586C84.3895 160.073 85.0487 156.423 85.2474 151.922C85.3062 150.578 85.0245 148.953 85.3983 147.693C85.9225 145.928 89.1423 143.712 90.8443 142.408C97.1374 137.588 102.766 132.263 106.123 125.344C99.384 124.788 92.335 124.561 85.3983 124.589C84.0595 113.543 85.4121 100.345 87.8189 91.0649C88.1758 90.7671 88.8314 90.7673 89.3315 90.6123C89.5478 89.3682 89.7523 88.1126 90.2391 87.1394C96.5127 86.0307 104.818 87.0114 109.602 89.1019C110.191 89.3596 111.146 90.3156 111.569 90.0086C111.1 85.6945 108.924 82.2796 108.846 78.0784C109.801 78.4607 109.516 79.6851 109.754 80.4948C110.19 81.9779 110.958 83.5178 111.418 85.3267C111.846 87.015 112.204 88.8057 112.628 90.6121C113.522 94.4234 113.688 98.5599 114.897 101.334C116.085 104.06 118.525 106.331 121.251 107.223C121.642 106.003 121.508 104.259 122.007 103.146C122.675 104.238 122.062 106.199 121.856 107.374C122.886 107.446 123.6 107.202 124.276 106.92C124.694 105.626 124.438 103.66 125.033 102.542C125.552 103.444 125.395 105.528 125.033 106.468C129.45 103.823 129.874 96.8116 129.874 90.6121C129.874 84.9774 128.703 78.7747 126.999 73.8502C125.198 68.6436 123.488 63.6448 120.495 60.7125C116.789 63.3559 111.633 64.5509 105.669 64.9405C104.955 66.5826 104.317 68.0596 103.4 69.9239C102.816 71.1136 101.8 74.3055 100.677 74.605C98.8796 75.0853 96.5918 72.0235 95.3827 70.9808C92.8221 68.772 90.7096 67.1206 89.3315 65.2425C90.4775 68.3588 90.9055 71.5262 92.0538 74.453ZM77.2289 50.7449C75.1381 53.2886 73.4319 56.2163 72.2367 59.6541C76.3299 61.4072 82.4593 61.1275 86.9104 62.5233C86.7509 61.2566 87.4168 60.8143 87.8181 60.1072C84.9983 56.278 82.5175 52.11 77.2289 50.7449ZM90.6923 61.1647C90.7659 62.597 89.8837 63.0752 89.3307 63.8828C91.2031 66.565 93.5769 68.4614 95.987 70.527C97.4164 71.7517 98.6151 73.2914 100.374 74.0002C102.258 71.0486 103.776 67.7314 105.064 64.1847C101.915 61.548 96.2195 60.9603 90.6923 61.1647ZM85.2467 62.8257C80.5185 65.5559 77.911 70.4023 75.8672 75.8123C78.6166 75.9374 81.0713 76.3558 84.0362 76.2655C84.1163 71.0094 85.2642 66.82 87.0616 63.2787C86.4013 63.1826 85.8008 63.0271 85.2467 62.8257ZM87.5154 63.8828C85.4227 68.1729 84.0641 75.4279 85.549 81.3994C88.4014 80.875 90.9032 79.9992 93.5666 79.2856C91.8322 75.8927 90.3747 71.7792 89.3309 67.8089C89.0004 66.5514 89.05 64.8018 87.8183 64.0339C87.7849 63.9159 87.6915 63.858 87.5154 63.8828ZM90.541 87.7416C88.724 97.7949 87.1921 109.616 87.5152 120.813C97.8332 118.741 109.648 120.814 118.527 122.927C119.508 118.219 120.09 113.112 120.948 108.28C114.261 106.245 112.887 98.9093 111.871 91.2149C106.809 88.1646 98.4766 86.9374 90.541 87.7416ZM89.1797 91.2151C89.0791 91.2151 88.978 91.2151 88.8773 91.2151C88.6837 91.2235 88.6679 91.4088 88.4234 91.3662C85.7701 100.364 85.2667 113.342 86.0028 124.286C92.6423 123.659 99.2173 124.268 106.123 124.589C111.011 124.816 116.041 125.821 120.948 125.645C122.078 125.605 123.914 125.12 125.334 125.042C129.089 124.833 133.323 125.343 137.588 125.343C142.076 125.343 145.922 125.405 149.841 125.645C151.199 125.729 152.72 126.064 153.472 125.494C154.538 124.686 154.673 120.734 154.834 118.85C155.291 113.467 155.306 108.586 155.741 103.447C155.939 101.114 156.5 97.8123 154.38 96.9539C152.931 105.538 153.768 116.298 151.657 123.984C146.582 123.344 141.33 122.975 135.924 123.229C133.207 123.357 130.403 123.328 127.755 123.38C124.996 123.435 122.399 123.916 119.889 123.984C116.717 124.07 113.862 122.922 110.661 122.323C108.359 121.892 106.016 121.22 103.702 120.964C98.0224 120.337 92.5662 121.025 86.9104 121.266C85.9173 110.675 87.7859 100.421 89.1797 91.2151ZM130.781 93.4806C130.402 101.257 129.144 108.156 121.25 108.43C121.096 113.863 120.026 118.383 119.283 123.229C129.052 122.263 142.029 121.286 151.051 123.531C151.89 114.149 152.967 104.202 153.17 94.6884C147.815 92.0962 137.298 91.3003 130.781 93.4806ZM45.7633 120.813C45.1692 120.232 43.5732 118.213 43.0406 118.246C42.7908 118.261 42.2309 119.293 41.8305 119.605C40.5371 120.613 38.9583 121.247 37.2923 121.417C29.5565 122.208 23.61 119.424 19.4416 116.434C17.6253 115.131 15.559 112.973 13.6931 110.695C12.3445 109.049 10.0699 105.529 8.24705 104.655C6.20035 103.674 2.97696 104.715 2.04473 106.014C1.35297 106.978 1.00908 109.312 1.28844 111.3C1.96317 116.102 4.63269 119.609 7.79324 122.474C9.96101 124.439 12.0281 126.841 14.9032 128.364C20.8779 131.526 27.7409 133.996 35.7795 133.497C42.9277 133.054 48.1911 131.515 53.4788 128.514C51.7354 125.764 48.4231 123.412 45.7633 120.813Z" fill="black"/>
<path fill-rule="evenodd" clip-rule="evenodd" d="M64.5219 18.5801C63.5977 21.1807 61.2275 22.3385 59.8324 24.4693C61.1005 25.3176 63.5491 24.9876 64.8244 25.8288C64.5869 27.1801 62.6266 26.5214 61.6477 26.2816C60.4964 26.0002 59.0988 25.5925 58.7734 24.9223C59.8442 22.5683 61.9113 21.209 63.3116 19.184C61.6666 18.8126 59.4215 19.0407 58.6221 17.8249C60.3112 17.762 62.7754 18.2011 64.5219 18.5801Z" fill="black"/>
<path fill-rule="evenodd" clip-rule="evenodd" d="M88.8768 28.5461C89.0527 28.5215 89.1459 28.5794 89.1793 28.6972C89.2222 30.1013 88.0257 31.29 87.969 32.9256C87.9 34.9024 89.2123 36.9291 91.1457 37.1538C94.2682 37.5164 94.7428 34.4859 96.5913 33.0765C95.9622 35.6223 94.1309 37.9814 91.4484 37.9086C86.9445 37.7867 86.0715 31.6169 88.8768 28.5461Z" fill="black"/>
<path fill-rule="evenodd" clip-rule="evenodd" d="M108.846 37.6069C108.457 40.3148 107.215 43.6273 109.602 45.1576C110.241 45.5665 111.646 45.9952 112.779 45.7617C114.728 45.3598 115.255 43.2244 116.863 42.7414C116.072 44.5914 114.65 46.4184 112.628 46.6675C107.394 47.3121 105.494 40.9791 108.846 37.6069Z" fill="black"/>
<path fill-rule="evenodd" clip-rule="evenodd" d="M101.887 41.6845C101.303 43.0142 100.179 43.805 99.0131 44.5535C98.7878 45.7887 98.4185 46.8796 97.9543 47.8757C101.489 48.1422 103.033 55.6655 98.1053 54.9733C97.1587 55.74 97.3498 57.6425 95.3824 57.3897C94.5149 56.9971 94.9765 55.2775 94.6256 54.3694C92.6786 53.8344 90.4227 53.8509 90.2388 51.9533C89.975 49.2301 94.0346 47.8163 97.1974 47.8759C97.976 46.9413 97.8976 45.1521 98.7102 44.252C98.1164 43.485 98.062 41.2645 98.5589 40.3257C99.9052 40.5418 101.265 40.7451 101.887 41.6845ZM99.164 43.4966C100.065 43.1884 100.671 42.5841 100.979 41.6845C100.196 41.6113 99.814 41.1365 99.0133 41.0806C99.0001 41.9495 98.9803 42.8247 99.164 43.4966ZM90.9951 51.9533C91.3272 53.566 93.8553 52.9132 95.231 53.7653C95.6453 54.5098 95.3863 55.9257 95.6848 56.7856C97.0604 56.6991 96.6906 54.8703 97.6512 54.3696C98.6186 54.1776 99.7526 54.1516 100.223 53.4638C102.688 46.768 90.2003 48.0908 90.9951 51.9533Z" fill="black"/>
<path fill-rule="evenodd" clip-rule="evenodd" d="M99.0128 41.0801C99.8137 41.1359 100.195 41.6107 100.979 41.684C100.67 42.5837 100.065 43.1878 99.1635 43.496C98.98 42.8242 98.9998 41.949 99.0128 41.0801Z" fill="#E293A2"/>
<path fill-rule="evenodd" clip-rule="evenodd" d="M89.2567 43.5458C89.2567 45.9135 87.3342 47.8328 84.9625 47.8328C82.5906 47.8328 80.668 45.9135 80.668 43.5458C80.668 41.1783 82.5906 39.2588 84.9625 39.2588C87.3344 39.259 89.2567 41.1783 89.2567 43.5458Z" fill="#ECB9BF"/>
<path fill-rule="evenodd" clip-rule="evenodd" d="M77.9854 35.9453C82.4441 36.1774 85.962 39.4574 86.9106 43.1936C84.8288 39.8861 82.2444 37.0799 77.9854 35.9453Z" fill="black"/>
<path fill-rule="evenodd" clip-rule="evenodd" d="M76.9261 39.1162C80.1869 40.4413 83.1841 42.0301 84.7923 45.0054C82.3515 43.1634 80.4147 40.8181 77.2285 39.7201C77.2264 39.42 76.8157 39.5283 76.9261 39.1162Z" fill="black"/>
<path fill-rule="evenodd" clip-rule="evenodd" d="M76.0186 43.043C79.1501 43.642 82.2196 44.3026 84.0364 46.2143C81.6365 44.8852 78.568 44.223 76.0186 43.043Z" fill="black"/>
<path fill-rule="evenodd" clip-rule="evenodd" d="M100.222 53.4633C99.752 54.1511 98.6178 54.1771 97.6506 54.3691C96.69 54.8698 97.0598 56.6988 95.6842 56.7851C95.3857 55.9252 95.6447 54.5095 95.2304 53.7648C93.8544 52.9127 91.3266 53.5655 90.9945 51.9528C90.1995 48.0905 102.688 46.7677 100.222 53.4633Z" fill="white"/>
<path fill-rule="evenodd" clip-rule="evenodd" d="M118.074 51.0465C114.226 50.05 109.229 50.1623 106.123 51.8019C108.25 49.3106 115.071 49.3417 118.074 51.0465Z" fill="black"/>
<path fill-rule="evenodd" clip-rule="evenodd" d="M87.8187 60.1079C87.4174 60.815 86.7515 61.2573 86.911 62.5241C82.4599 61.1283 76.3305 61.408 72.2373 59.6549C73.4325 56.2169 75.1387 53.2893 77.2295 50.7456C82.5181 52.1105 84.9989 56.2785 87.8187 60.1079Z" fill="#E08BA9"/>
<path fill-rule="evenodd" clip-rule="evenodd" d="M117.015 55.5774C113.827 54.3306 110.472 53.2498 106.123 53.161C106.096 53.0328 106.183 53.0187 106.275 53.0103C110.506 52.6207 114.554 53.6992 117.015 55.5774Z" fill="black"/>
<path fill-rule="evenodd" clip-rule="evenodd" d="M105.971 54.3691C108.844 55.8828 112.444 57.4685 113.988 59.8051C111.594 57.7148 108.271 56.5532 105.971 54.3691Z" fill="black"/>
<path fill-rule="evenodd" clip-rule="evenodd" d="M105.064 64.1847C103.777 67.7315 102.258 71.0486 100.374 74.0002C98.6155 73.2915 97.4167 71.7517 95.9874 70.527C93.5773 68.4614 91.2035 66.565 89.3311 63.8828C89.8841 63.0752 90.7661 62.597 90.6927 61.1647C96.2199 60.9601 101.915 61.5478 105.064 64.1847Z" fill="#E08BA9"/>
<path fill-rule="evenodd" clip-rule="evenodd" d="M87.0625 63.2777C85.2651 66.8192 84.1172 71.0086 84.0371 76.2646C81.0723 76.3548 78.6176 75.9364 75.8682 75.8114C77.9119 70.4016 80.5194 65.5552 85.2476 62.8247C85.8017 63.0264 86.4023 63.1818 87.0625 63.2777Z" fill="#E08BA9"/>
<path fill-rule="evenodd" clip-rule="evenodd" d="M87.8171 64.0337C89.0489 64.8018 88.9993 66.5512 89.3297 67.8087C90.3738 71.779 91.8311 75.8925 93.5654 79.2854C90.902 79.999 88.4004 80.8748 85.5478 81.3992C84.063 75.4277 85.4213 68.1725 87.5143 63.8826C87.6906 63.8578 87.7839 63.9157 87.8171 64.0337Z" fill="#E08BA9"/>
<path fill-rule="evenodd" clip-rule="evenodd" d="M111.871 91.2153C112.888 98.9096 114.262 106.246 120.949 108.28C120.091 113.112 119.509 118.219 118.528 122.927C109.648 120.814 97.834 118.742 87.516 120.813C87.1929 109.616 88.7248 97.7952 90.5418 87.742C98.4772 86.9375 106.809 88.1648 111.871 91.2153Z" fill="white"/>
<path fill-rule="evenodd" clip-rule="evenodd" d="M86.9103 121.266C92.5661 121.025 98.0222 120.337 103.702 120.964C106.016 121.22 108.358 121.893 110.661 122.323C113.862 122.922 116.717 124.071 119.889 123.985C122.398 123.916 124.996 123.435 127.755 123.38C130.403 123.329 133.208 123.357 135.924 123.229C141.33 122.975 146.582 123.344 151.657 123.985C153.767 116.298 152.931 105.538 154.379 96.9541C156.5 97.8125 155.938 101.114 155.741 103.447C155.306 108.586 155.291 113.467 154.833 118.85C154.673 120.735 154.538 124.686 153.472 125.494C152.72 126.065 151.199 125.729 149.841 125.645C145.922 125.405 142.076 125.344 137.587 125.344C133.323 125.344 129.089 124.833 125.334 125.042C123.914 125.12 122.078 125.605 120.948 125.645C116.04 125.821 111.011 124.816 106.122 124.589C99.2172 124.268 92.6422 123.659 86.0027 124.286C85.2663 113.342 85.77 100.365 88.4233 91.3664C88.6678 91.409 88.6835 91.2237 88.8771 91.2153C88.9778 91.2153 89.0789 91.2153 89.1796 91.2153C87.7858 100.421 85.9171 110.675 86.9103 121.266Z" fill="#8BB0E0"/>
<path fill-rule="evenodd" clip-rule="evenodd" d="M153.17 94.6879C152.967 104.202 151.89 114.149 151.051 123.531C142.029 121.286 129.052 122.262 119.283 123.229C120.026 118.382 121.096 113.863 121.25 108.43C129.144 108.155 130.402 101.257 130.781 93.4802C137.298 91.2998 147.815 92.0957 153.17 94.6879Z" fill="white"/>
<path fill-rule="evenodd" clip-rule="evenodd" d="M53.4783 128.515C48.1906 131.516 42.9272 133.055 35.779 133.498C27.7404 133.997 20.8774 131.527 14.9027 128.364C12.0276 126.842 9.96055 124.44 7.79277 122.474C4.63223 119.609 1.96292 116.103 1.28818 111.3C1.00883 109.312 1.35272 106.978 2.04448 106.015C2.97692 104.715 6.2001 103.674 8.2468 104.655C10.0694 105.53 12.3442 109.049 13.6928 110.696C15.5586 112.974 17.625 115.132 19.4413 116.435C23.6098 119.425 29.5563 122.208 37.292 121.418C38.958 121.248 40.5371 120.614 41.8302 119.605C42.2306 119.293 42.7908 118.262 43.0403 118.246C43.573 118.214 45.169 120.233 45.763 120.813C48.4229 123.412 51.7352 125.765 53.4783 128.515Z" fill="#F3F0EF"/>
<path fill-rule="evenodd" clip-rule="evenodd" d="M89.331 65.2417C90.7091 67.1199 92.8216 68.7712 95.3822 70.9801C96.5911 72.0229 98.8791 75.0845 100.677 74.6042C101.8 74.3046 102.815 71.1127 103.4 69.9232C104.317 68.0589 104.955 66.5819 105.669 64.9398C111.632 64.5499 116.789 63.355 120.494 60.7118C123.487 63.6443 125.198 68.6428 126.999 73.8495C128.702 78.7739 129.873 84.9764 129.873 90.6113C129.873 96.8111 129.449 103.822 125.032 106.467C125.395 105.527 125.551 103.443 125.032 102.541C124.438 103.659 124.694 105.626 124.276 106.92C123.6 107.202 122.886 107.445 121.855 107.373C122.061 106.198 122.674 104.237 122.007 103.145C121.507 104.258 121.642 106.002 121.25 107.222C118.524 106.33 116.085 104.06 114.897 101.333C113.688 98.5591 113.522 94.4226 112.628 90.6113C112.203 88.8049 111.846 87.014 111.417 85.326C110.958 83.5171 110.19 81.9771 109.753 80.4941C109.515 79.6846 109.8 78.4602 108.846 78.0777C108.923 82.2789 111.099 85.694 111.569 90.0078C111.145 90.3148 110.19 89.3586 109.602 89.1012C104.818 87.0105 96.5123 86.0297 90.2387 87.1387C89.7519 88.1118 89.5473 89.3675 89.331 90.6115C88.831 90.7666 88.1754 90.7664 87.8185 91.0641C85.4119 100.344 84.0591 113.543 85.3978 124.589C92.3346 124.561 99.3836 124.787 106.123 125.344C102.765 132.262 97.1372 137.587 90.8438 142.407C89.1417 143.711 85.922 145.927 85.3978 147.693C85.0243 148.952 85.3057 150.577 85.2469 151.921C85.0485 156.422 84.3891 160.072 80.7085 161.586C81.1024 160.444 81.6283 158.791 81.0105 157.508C80.3352 158.747 80.6248 160.948 79.6493 161.888C79.1953 161.888 78.7415 161.888 78.2876 161.888C78.6574 160.896 78.727 158.975 78.439 157.81C77.5791 158.63 77.5616 160.867 77.2289 161.736C72.7174 161.286 71.8093 156.629 70.5725 152.676C69.9188 150.586 69.1049 148.51 68.3034 146.636C66.5371 142.504 64.7267 139.665 62.1011 136.216C57.3197 129.936 51.4251 125.122 45.4607 119.605C42.5648 116.926 39.6982 114.292 36.6869 111.752C30.7212 106.723 24.9372 101.424 18.5337 96.6516C16.9675 95.4839 15.4076 94.1918 13.693 93.1785C12.0232 92.1907 10.0745 91.5637 8.70104 90.0076C8.81644 87.8573 9.08927 85.8646 9.75981 84.2689C8.28611 85.0624 8.34938 87.3909 8.09567 89.4029C5.08247 88.1901 5.67061 83.2839 7.18824 80.7958C6.00041 81.1825 5.29582 83.3267 5.22162 85.3256C3.78534 79.8996 6.49248 75.7639 12.3314 76.2652C18.2495 76.7734 22.3211 82.4169 26.2488 84.4193C27.2534 82.9539 27.3549 81.257 27.9128 79.7381C29.5559 75.2666 31.83 71.2241 35.1741 68.1105C39.3831 64.1913 44.5344 60.4153 51.6631 59.5027C52.4107 66.1035 58.6221 72.3181 65.7319 71.8855C68.9489 71.6897 71.6481 69.0824 71.6315 65.3924C71.6195 62.7322 69.5238 60.1685 68.455 57.842C67.2453 55.2099 66.7627 52.7497 65.5805 50.1405C65.3985 51.4567 65.8235 52.825 66.1859 54.0667C66.534 55.2598 67.0349 56.4709 67.5473 57.6911C69.1114 61.4143 72.1087 64.3506 69.8162 68.8654C69.0124 68.5104 69.1064 67.2588 68.455 66.7514C68.0514 67.661 68.9672 68.5528 69.2115 69.3182C69.0101 70.175 68.0926 70.316 67.5471 70.8286C67.1669 70.1007 67.17 68.9901 66.4882 68.5633C66.2735 69.1344 66.8739 70.1886 67.0931 70.8286C58.1777 71.8066 52.7227 65.7827 52.268 58.4456C51.8855 52.2662 55.0166 46.3315 58.773 43.0428C62.235 40.0119 66.8432 38.3517 71.9338 37.3047C71.7563 43.2201 73.6784 47.04 76.1695 50.2915C74.5236 53.2314 72.0796 56.1721 71.6313 59.8047C74.3597 62.2662 80.3222 61.4988 84.3388 62.6741C79.9156 65.7596 76.9197 70.2683 75.262 76.1139C77.5387 77.1635 81.2363 77.08 84.1873 77.02C84.2974 78.9233 84.4681 80.766 85.2463 82.0027C88.2655 81.7918 91.7485 80.7454 94.3224 79.5872C94.2095 77.6253 92.7354 76.1909 92.0533 74.4523C90.9056 71.5263 90.4777 68.3589 89.331 65.2417Z" fill="white"/>
</g>
<defs>
<clipPath id="clip0">
<rect width="168" height="165" fill="white"/>
</clipPath>
</defs>
</svg>
