<svg width="244" height="125" viewBox="0 0 244 125" fill="none" xmlns="http://www.w3.org/2000/svg">
<g clip-path="url(#clip0)">
<path fill-rule="evenodd" clip-rule="evenodd" d="M4.92556 94.827C2.6648 99.1005 -2.15632 101.264 1.08944 104.776C3.15484 107.117 7.28605 107.409 10.2367 107.994C18.7938 110.043 24.6952 117.65 33.5474 120.284C44.4652 123.795 55.3828 124.088 66.5955 124.38C73.0872 124.38 79.2836 125.551 85.48 124.673C91.6766 123.795 97.578 122.332 103.479 121.747C115.873 120.284 127.97 116.772 140.363 116.48C161.609 115.895 182.854 116.772 204.099 116.772C215.016 116.772 232.721 119.113 236.852 106.239C241.868 90.7305 208.82 87.8045 199.083 85.7561C170.166 79.3188 141.249 73.1742 111.446 73.1742C88.4309 73.1742 64.235 70.8332 41.8096 74.0518C39.7442 74.3445 37.6786 74.6371 35.613 74.9297C35.613 74.9297 14.3677 76.978 4.92556 94.827Z" fill="#FDDEDB"/>
<path fill-rule="evenodd" clip-rule="evenodd" d="M222.263 91.7667C220.496 91.0683 218.775 90.4538 217.205 89.7456C219.096 90.1962 220.984 90.7054 222.806 91.2829C222.615 91.4077 222.434 91.5677 222.263 91.7667Z" fill="#FDDEDB"/>
<path fill-rule="evenodd" clip-rule="evenodd" d="M226.603 92.6318C228.046 93.2112 229.406 93.8472 230.645 94.5475C230.799 95.2674 230.866 96.0067 230.828 96.7481C230.232 96.9061 229.662 95.9794 229.001 95.5034C228.302 94.9962 227.458 94.567 226.831 94.1437C226.913 93.6131 226.819 93.0942 226.603 92.6318Z" fill="#FDDEDB"/>
<path fill-rule="evenodd" clip-rule="evenodd" d="M87.8255 79.3056C90.2629 77.4484 92.7849 75.6966 94.9036 73.459C100.483 73.619 106.036 73.7516 111.521 73.7516C141.323 73.7516 170.239 79.8967 199.158 86.3343C202.205 86.9762 207.542 87.7038 213.278 88.8763C215.643 90.2633 218.307 91.3772 221.006 92.4443C222.833 93.1661 224.639 94.0108 226.374 95.1618C227.968 96.2211 229.996 97.5691 230.714 98.9015C231.499 100.357 231.536 104.116 230.828 105.583C229.827 107.663 224.995 109.639 222.149 109.887C218.441 110.21 214.463 110.035 210.727 109.887C203.214 109.59 195.88 109.545 188.568 109.208C177.931 108.716 167.719 107.425 157.499 106.262C143.705 104.693 127.751 105.821 113.754 106.375C106.481 106.664 99.322 107.066 92.2813 107.622C85.4058 108.166 78.6306 109.309 71.8357 109.887C64.8422 110.482 57.9194 111.086 50.9338 111.699C45.4294 110.308 37.2968 112.522 32.0856 110.794C31.8318 109.059 32.7919 107.953 32.6581 106.716C31.3282 106.802 31.041 108.884 30.9446 110.567C30.0731 110.148 28.9223 110.006 28.2023 109.434C27.7931 107.097 29.1387 105.913 29.117 104.336C27.3485 104.66 27.26 106.648 27.0613 108.529C26.7111 108.714 25.7452 107.503 25.576 106.83C25.4658 106.391 25.7177 106.02 25.6901 105.47C25.6626 104.937 25.4304 104.578 25.4619 104.11C25.6114 101.876 27.7537 98.4118 29.2311 97.2004C32.0738 94.8711 37.5703 94.3015 42.1382 93.4646C48.6459 92.2707 55.2479 90.5344 61.4408 88.8197C63.0225 88.3827 64.5156 87.9321 66.0107 87.3468C67.3642 86.8181 68.6134 85.8271 70.0082 85.4214C71.7964 84.9005 73.6495 84.9844 75.2607 84.6293C79.9172 83.6013 84.3592 81.947 87.8255 79.3056Z" fill="#FDDEDB"/>
<path fill-rule="evenodd" clip-rule="evenodd" d="M98.1058 31.6204C97.793 30.684 97.1773 29.7496 97.0769 28.9029C96.9491 27.8144 97.3602 26.4508 97.4192 25.1652C97.6159 20.9983 97.3622 16.6597 97.0769 13.0448C93.109 14.8922 89.5385 17.596 86.7981 20.5203C86.444 20.8988 86.08 21.6245 85.4269 21.5406C86.2453 19.0338 88.5588 17.5551 90.3372 15.9905C92.2021 14.3518 94.4428 13.0233 96.8487 12.0265C95.9595 10.5887 93.8644 11.055 92.509 11.3456C91.0611 11.6578 89.5325 12.2333 88.3955 12.7054C85.7987 13.7861 82.9285 15.0619 81.0872 16.4431C80.4223 16.9406 79.9796 17.875 79.2596 18.1423C77.4006 17.5941 75.6064 16.5875 73.6628 15.9905C71.6641 15.376 69.5532 15.1068 67.7217 14.1782C67.1217 12.3015 66.8188 9.73037 66.0102 6.70271C65.4456 4.59389 64.5132 0.333315 61.6685 1.03951C62.121 3.62043 62.7899 7.35624 62.9256 10.5536C62.9689 11.5856 63.3171 13.1775 62.3551 13.7256C61.6331 13.117 61.8298 11.8509 61.7826 10.8931C61.6135 7.34063 61.3754 4.1491 60.6416 1.4921C57.8973 2.42068 55.4225 4.08668 53.3314 6.02383C50.7523 8.40967 47.9431 10.7389 46.3634 13.8388C41.1915 15.0951 37.5541 18.3276 34.7134 21.88C33.9127 22.8808 32.9901 23.8113 32.2012 24.8258C27.5271 30.8147 24.3539 39.9114 25.0051 50.3092C25.3021 55.0692 27.053 58.2275 28.432 62.3164C30.0333 64.2751 32.2943 69.156 33.8602 71.1517C34.7022 69.5852 35.2345 75.1274 36.6549 73.9823C38.9093 72.1641 40.7562 71.8542 44.4605 72.1136C45.0782 72.1565 46.7006 73.001 47.3144 73.1239C49.6849 73.596 49.7545 70.2457 51.2791 71.4513C53.5552 73.25 51.8553 72.4913 52.3354 75.8877C52.8016 79.1767 57.0986 80.1783 55.9576 83.4966C57.7931 83.996 59.3374 84.2867 60.9839 84.4037C75.032 85.4006 84.5299 81.7643 91.5942 75.2291C92.2336 74.638 92.8316 74.0371 93.3903 73.4168C95.271 71.3391 96.7504 69.0469 98.1058 66.1675C99.7799 62.6073 101.332 58.1556 101.645 54.0472C102.361 44.6967 100.211 37.9313 98.1058 31.6204ZM69.0929 52.4609C70.6864 49.4743 73.169 47.4298 77.7743 47.3654C78.1835 46.9792 77.7271 45.7326 78.6871 45.8926C78.9055 46.191 78.8071 46.9323 78.6871 47.2523C79.4819 47.6346 80.735 47.5625 81.4295 48.0443C81.9606 47.6288 81.4865 46.2144 82.5705 46.3451C82.8223 46.9675 82.4308 47.8434 82.2282 48.3838C82.9029 48.8851 83.7115 49.2538 84.284 49.8566C84.7266 49.5815 85.1023 48.8812 85.7692 49.1777C86.1902 49.96 85.1456 49.9971 84.9705 50.5355C85.7082 52.4668 87.7896 54.3981 87.0263 57.4453C86.4381 59.7921 81.1836 60.8065 77.7743 60.6173C74.194 60.4183 69.6005 59.3239 68.4083 57.8979C67.3381 56.6201 68.3847 53.7914 69.0929 52.4609ZM85.783 65.2154C85.6394 65.188 85.4958 65.1627 85.3522 65.1393C85.2558 65.1217 85.1574 65.1061 85.061 65.0925C84.9646 65.0768 84.8662 65.0632 84.7679 65.0495C84.6833 65.0378 84.6007 65.0261 84.5161 65.0164C84.2269 64.9774 83.9338 64.9442 83.6367 64.9169C83.5285 64.9052 83.4203 64.8954 83.3102 64.8876C83.1705 64.8759 83.0289 64.8642 82.8892 64.8545C82.6079 64.833 82.3226 64.8174 82.0374 64.8076C81.8957 64.7998 81.7541 64.7959 81.6105 64.792C81.4669 64.7862 81.3232 64.7842 81.1777 64.7823C81.0183 64.7803 80.859 64.7784 80.6996 64.7784C80.5344 64.7784 80.3691 64.7803 80.2039 64.7823C79.9993 64.7862 79.7927 64.7901 79.5901 64.7979C79.4426 64.8018 79.295 64.8076 79.1494 64.8154C79.055 64.8193 78.9606 64.8252 78.8681 64.831C78.7914 64.8349 78.7127 64.8388 78.636 64.8447C78.5003 64.8525 78.3645 64.8623 78.2288 64.874C77.8078 64.9052 77.3927 64.9442 76.9874 64.9949C76.8497 65.0105 76.712 65.0281 76.5763 65.0456C76.4543 65.0632 76.3304 65.0807 76.2104 65.0983C76.0412 65.1217 75.876 65.149 75.7107 65.1763C75.5356 65.2056 75.3625 65.2368 75.1914 65.2719C75.1363 65.2817 75.0832 65.2914 75.0281 65.3031C74.914 65.3265 74.8018 65.35 74.6897 65.3734C74.7409 65.2973 74.7999 65.2232 74.8668 65.1529C74.8982 65.1178 74.9317 65.0827 74.9691 65.0495C75.0438 64.9793 75.1245 64.913 75.213 64.8506C75.2543 64.8193 75.2956 64.7901 75.3409 64.7628C75.396 64.7257 75.455 64.6906 75.516 64.6574C75.5494 64.6379 75.5828 64.6184 75.6182 64.6008C75.8287 64.4877 76.0628 64.3843 76.3147 64.2946C76.3619 64.277 76.4091 64.2614 76.4602 64.2438C76.5645 64.2068 76.6707 64.1736 76.7809 64.1424C76.8438 64.1229 76.9088 64.1053 76.9756 64.0878C77.0288 64.0741 77.0819 64.0585 77.135 64.0468C77.2412 64.0195 77.3494 63.9941 77.4596 63.9707C77.5461 63.9512 77.6327 63.9337 77.7212 63.9181C77.7448 63.9122 77.7704 63.9064 77.794 63.9025H77.796C77.8157 63.8986 77.8353 63.8947 77.855 63.8927C77.9573 63.8732 78.0596 63.8556 78.1639 63.84C78.2229 63.8303 78.2799 63.8225 78.3389 63.8127C78.4039 63.803 78.4708 63.7932 78.5376 63.7854C78.6203 63.7737 78.7049 63.764 78.7894 63.7542C78.8406 63.7464 78.8917 63.7425 78.9449 63.7366C79.0216 63.7269 79.1022 63.7191 79.1809 63.7132C79.234 63.7074 79.2872 63.7035 79.3383 63.6996C79.4445 63.6898 79.5527 63.682 79.659 63.6762C79.6688 63.6742 79.6806 63.6742 79.6904 63.6742C79.7986 63.6664 79.9068 63.6606 80.0131 63.6567C80.6937 63.6254 81.3705 63.6332 82 63.6742C83.9948 63.8069 86.4578 64.0975 87.0263 65.4865C86.625 65.3851 86.2099 65.2934 85.783 65.2154ZM85.9974 71.1517C84.341 70.582 82.8085 69.7217 81.0872 69.1111C80.6721 68.9648 80.2472 68.8439 79.8163 68.7385C79.3501 68.6234 78.878 68.5259 78.398 68.4283C78.2445 68.3971 78.0911 68.3659 77.9357 68.3328C77.7802 68.3015 77.6248 68.2684 77.4694 68.2352C77.3809 68.2157 77.2924 68.1962 77.2038 68.1767C77.1153 68.1572 77.0268 68.1377 76.9383 68.1162C76.4956 68.0128 76.0491 67.8958 75.6045 67.7534V67.412C75.6969 67.3925 75.7186 67.2988 75.8327 67.2988C77.2648 67.2325 78.5632 67.3593 79.7613 67.6246C80.7587 67.845 81.6872 68.163 82.5705 68.5454C83.9515 69.1443 85.8853 69.6847 85.9974 71.1517ZM37.4538 60.6173C37.3298 60.5978 37.2039 60.5802 37.0741 60.5627C37.0072 60.5529 36.9403 60.5432 36.8715 60.5354C36.7711 60.5217 36.6708 60.51 36.5685 60.4983C36.4682 60.4866 36.3659 60.4749 36.2616 60.4632C36.1495 60.4495 36.0354 60.4378 35.9193 60.4281C35.8524 60.4203 35.7836 60.4144 35.7147 60.4086C35.5967 60.3968 35.4787 60.3871 35.3606 60.3773C35.2052 60.3637 35.0478 60.352 34.8904 60.3422C34.7272 60.3305 34.5639 60.3208 34.4006 60.311C34.3849 60.311 34.3691 60.311 34.3534 60.3091C34.2039 60.3013 34.0524 60.2954 33.9029 60.2896C33.8596 60.2896 33.8163 60.2876 33.775 60.2857C33.6609 60.2837 33.5468 60.2798 33.4347 60.2779C33.2635 60.2739 33.0944 60.272 32.9271 60.272C32.758 60.272 32.5927 60.2739 32.4294 60.2779C32.2996 59.4078 33.7435 59.3844 34.4852 59.3707H34.5245C34.6859 59.3688 34.8531 59.3707 35.0262 59.3766C35.0891 59.3785 35.1541 59.3824 35.2209 59.3844C35.3744 59.3922 35.5278 59.4019 35.6852 59.4156C35.7737 59.4234 35.8642 59.4312 35.9547 59.441C36.061 59.4527 36.1652 59.4644 36.2714 59.4761C36.3482 59.4858 36.4249 59.4975 36.4996 59.5073C36.5921 59.519 36.6826 59.5326 36.7731 59.5463C37.0446 59.5873 37.3141 59.636 37.5757 59.6887C37.6643 59.7082 37.7508 59.7258 37.8354 59.7453C37.9495 59.7706 38.0597 59.796 38.1698 59.8233C38.278 59.8506 38.3843 59.8779 38.4885 59.9072C38.5397 59.9228 38.5908 59.9365 38.64 59.9521C38.6833 59.9638 38.7266 59.9774 38.7698 59.9911C38.9213 60.0379 39.0649 60.0867 39.1967 60.1393C39.2321 60.1511 39.2656 60.1647 39.299 60.1784C39.3148 60.1862 39.3325 60.192 39.3482 60.1998C39.3935 60.2193 39.4367 60.2369 39.4781 60.2564C39.5292 60.2798 39.5764 60.3032 39.6217 60.3266C39.663 60.3481 39.7023 60.3695 39.7397 60.391C39.4053 61.2513 38.2289 60.7343 37.4538 60.6173ZM39.4997 59.1717C39.3836 59.1093 39.2676 59.0469 39.1476 58.9864C39.0767 58.9493 39.0059 58.9123 38.9331 58.8791C38.8584 58.8421 38.7836 58.805 38.7069 58.7679C38.6026 58.7152 38.4964 58.6645 38.3882 58.6158C38.2525 58.5533 38.1148 58.4909 37.9751 58.4304C37.8256 58.3622 37.6741 58.2978 37.5187 58.2354C37.2511 58.1222 36.9777 58.013 36.7023 57.9076C36.417 57.7984 36.1278 57.693 35.8387 57.5916C35.6616 57.5292 35.4846 57.4667 35.3055 57.4082C35.2642 57.3926 35.2209 57.3789 35.1796 57.3672C35.0478 57.3224 34.916 57.2795 34.7822 57.2365C34.6091 57.18 34.434 57.1253 34.2609 57.0727C34.1547 57.0395 34.0485 57.0063 33.9442 56.9771C33.8478 56.9459 33.7534 56.9186 33.657 56.8912C33.5134 56.8483 33.3698 56.8074 33.2281 56.7664C32.7953 56.6435 32.1501 56.9556 31.9711 56.3118C32.095 56.2845 32.0497 56.0875 32.2012 56.0856C32.2917 56.0856 32.3861 56.0856 32.4825 56.0895C32.5416 56.0895 32.6025 56.0914 32.6635 56.0953C32.6793 56.0953 32.693 56.0953 32.7068 56.0973C32.7599 56.0992 32.815 56.1012 32.8701 56.1051C32.8917 56.1051 32.9153 56.107 32.937 56.109C33.0157 56.1129 33.0963 56.1187 33.177 56.1265C33.2576 56.1324 33.3383 56.1402 33.4209 56.148C33.5134 56.1577 33.6098 56.1675 33.7062 56.1792C33.8026 56.1889 33.899 56.2026 33.9973 56.2163C34.074 56.228 34.1508 56.2377 34.2275 56.2494C34.3042 56.2611 34.3809 56.2728 34.4596 56.2865C34.6032 56.3119 34.7468 56.3372 34.8924 56.3645C34.9436 56.3743 34.9947 56.384 35.0439 56.3957C35.3291 56.4562 35.6144 56.5225 35.8977 56.5986C35.9646 56.6162 36.0334 56.6337 36.1003 56.6532C36.2498 56.6962 36.3974 56.741 36.5429 56.7878C36.5921 56.8035 36.6393 56.8191 36.6885 56.8366C36.777 56.8659 36.8656 56.8971 36.9521 56.9303C36.96 56.9322 36.9659 56.9342 36.9738 56.9381C37.0387 56.9634 37.1036 56.9868 37.1685 57.0122C37.3829 57.0961 37.5895 57.1858 37.7882 57.2814C37.8472 57.3107 37.9043 57.3399 37.9633 57.3692C38.3056 57.5467 38.6184 57.7418 38.8859 57.9564C38.9331 57.9935 38.9784 58.0305 39.0217 58.0676C39.0826 58.1222 39.1417 58.1768 39.1987 58.2334C39.2164 58.2529 39.2361 58.2705 39.2518 58.29C39.2695 58.3075 39.2892 58.327 39.3049 58.3465C39.3344 58.3778 39.362 58.409 39.3876 58.4421C39.4171 58.4773 39.4466 58.5124 39.4721 58.5494C39.4977 58.5826 39.5213 58.6158 39.5449 58.6509C39.5705 58.6918 39.5961 58.7309 39.6197 58.7718C39.6453 58.8147 39.6689 58.8596 39.6905 58.9045C39.7181 58.9571 39.7417 59.0098 39.7613 59.0625C39.779 59.1074 39.7948 59.1522 39.8085 59.1971C39.8263 59.2537 39.842 59.3122 39.8538 59.3707C39.7377 59.3044 39.6197 59.2381 39.4997 59.1717ZM38.0262 55.4067C37.918 55.3208 37.8079 55.237 37.6957 55.157C37.68 55.1433 37.6623 55.1316 37.6465 55.1219C37.5679 55.0633 37.4892 55.0087 37.4085 54.9541C37.2039 54.8156 36.9954 54.6849 36.7829 54.56C36.7121 54.5171 36.6393 54.4761 36.5685 54.4371C36.5272 54.4118 36.4859 54.3883 36.4426 54.3669C36.4111 54.3493 36.3796 54.3318 36.3462 54.3142C36.3403 54.3103 36.3344 54.3084 36.3285 54.3045C36.236 54.2537 36.1416 54.205 36.0452 54.1582C35.9626 54.1172 35.88 54.0762 35.7954 54.0372C35.7442 54.0118 35.6931 53.9865 35.64 53.9631C35.5593 53.9241 35.4787 53.8889 35.398 53.8538C35.3527 53.8324 35.3075 53.8129 35.2623 53.7934C35.1954 53.7641 35.1285 53.7348 35.0616 53.7095C34.9672 53.6685 34.8708 53.6295 34.7724 53.5905C34.6249 53.53 34.4734 53.4715 34.3199 53.4168C34.2196 53.3778 34.1173 53.3408 34.0131 53.3056C33.8596 53.251 33.7062 53.1984 33.5488 53.1457C33.4052 53.0969 33.2616 53.0501 33.114 53.0033C32.7796 52.896 32.4373 52.7926 32.0852 52.6892C32.1816 52.1644 32.6832 52.1488 32.9999 52.1215C33.1101 52.1118 33.2262 52.1118 33.3481 52.1196C33.4052 52.1235 33.4622 52.1274 33.5212 52.1352C33.5547 52.1391 33.5862 52.143 33.6216 52.1488C33.6235 52.1488 33.6275 52.1488 33.6294 52.1508C33.6649 52.1547 33.7022 52.1605 33.7376 52.1683C33.7849 52.1761 33.834 52.1859 33.8832 52.1956C33.9442 52.2093 34.0072 52.2229 34.0721 52.2405C34.1272 52.2542 34.1822 52.2678 34.2393 52.2854C34.2826 52.2971 34.3258 52.3107 34.3711 52.3244C34.4045 52.3361 34.438 52.3459 34.4734 52.3576C34.5757 52.3907 34.678 52.4258 34.7803 52.4648C34.8334 52.4844 34.8845 52.5039 34.9377 52.5253C35.0045 52.5507 35.0734 52.5799 35.1423 52.6092C35.2131 52.6385 35.2839 52.6697 35.3547 52.7009C35.4275 52.7321 35.4983 52.7633 35.5691 52.7984C35.6616 52.8414 35.7541 52.8862 35.8465 52.933C36.0314 53.0247 36.2164 53.1223 36.3974 53.2237C36.4878 53.2725 36.5783 53.3252 36.6669 53.3759C36.718 53.4051 36.7692 53.4344 36.8203 53.4656C37.4262 53.8226 37.9849 54.203 38.4256 54.5386C38.4708 54.5737 38.5141 54.6068 38.5554 54.6381C38.5967 54.6712 38.638 54.7024 38.6774 54.7356C38.7718 54.8117 38.8603 54.8858 38.939 54.9541C40.0623 55.9373 41.0066 57.2541 41.223 58.805C39.6984 58.1163 39.2872 56.4035 38.0262 55.4067ZM36.6551 47.818C36.1672 44.4529 38.3351 41.5988 40.3102 40.0031C40.2531 39.0042 39.3167 38.3956 39.6236 37.3968C40.8787 37.4377 40.7607 38.8384 41.223 39.6636C41.8545 39.57 42.3306 39.3261 43.0506 39.3222C43.383 38.6316 42.9443 37.1783 43.9653 37.1705C44.3666 37.4904 44.1325 38.4405 44.1935 39.0959C44.9745 39.3417 46.2178 39.1291 46.7057 39.6636C47.1405 39.2266 47.0028 38.22 47.9628 38.3039C48.5077 38.8014 47.7975 39.4217 47.7346 40.0031C51.6749 41.9383 53.2133 48.0599 51.8461 53.8207C46.8631 56.2124 37.3928 52.9135 36.6551 47.818ZM51.732 58.4655C52.4894 58.7699 52.3104 59.5892 52.5307 60.1647C53.2487 62.0394 54.9248 63.1924 56.8724 64.0156C57.437 62.6871 57.4744 60.8377 58.0134 59.4839C57.7675 58.4812 56.5399 56.901 57.4429 55.8593C58.8554 56.347 61.5308 56.1636 61.6685 57.4453C61.8082 58.7309 59.5577 58.9708 58.8141 59.8233C58.4993 61.2494 58.2298 62.7183 57.8993 64.1287C59.3728 64.4623 60.9761 64.4799 62.241 64.1287C63.5472 63.764 63.9781 62.3125 65.2096 62.2033C65.603 63.5923 63.8502 64.7901 62.6974 65.1471C57.5 66.7565 50.7169 63.645 51.732 58.4655ZM81.036 73.3366C81.0439 73.3522 81.0498 73.3697 81.0537 73.3873C81.0773 73.4614 81.0931 73.5375 81.101 73.6175C81.1029 73.6351 81.1049 73.6546 81.1069 73.6741C81.1128 73.7716 81.1069 73.875 81.0872 73.9823C80.9495 73.9725 80.8118 73.9472 80.678 73.9121C80.6347 73.9004 80.5895 73.8887 80.5462 73.875C80.5009 73.8614 80.4577 73.8457 80.4124 73.8282C80.3711 73.8126 80.3298 73.797 80.2885 73.7794C80.198 73.7423 80.1095 73.7014 80.0209 73.6565C79.9777 73.6351 79.9344 73.6116 79.8931 73.5882C79.8498 73.5648 79.8065 73.5414 79.7632 73.5161C79.5075 73.3697 79.2576 73.2 79.0098 73.0303C78.7717 72.8664 78.5376 72.7026 78.3016 72.5543C78.278 72.5387 78.2543 72.525 78.2307 72.5094C77.3022 71.9359 76.352 71.3799 75.6045 70.6971C75.5887 70.4943 75.7442 70.4591 75.7186 70.2445H75.9468C76.1494 70.2816 76.3501 70.3382 76.5507 70.4065C76.592 70.4201 76.6314 70.4338 76.6727 70.4494C76.6786 70.4513 76.6845 70.4533 76.6904 70.4572C76.7317 70.4728 76.773 70.4884 76.8143 70.504C76.954 70.5586 77.0937 70.621 77.2314 70.6874C77.312 70.7244 77.3907 70.7635 77.4694 70.8044C77.5973 70.8708 77.7252 70.939 77.8511 71.0093C78.2288 71.2219 78.5966 71.4521 78.9449 71.6647C78.9744 71.6823 79.0019 71.6999 79.0294 71.7174C79.1101 71.7662 79.1947 71.8149 79.2852 71.8657C79.3324 71.891 79.3796 71.9164 79.4268 71.9437C79.5114 71.9905 79.596 72.0393 79.6845 72.0881C79.7436 72.1212 79.8006 72.1544 79.8577 72.1876C79.9442 72.2383 80.0308 72.2909 80.1154 72.3456C80.1547 72.3709 80.1921 72.3963 80.2314 72.4236C80.2531 72.4392 80.2747 72.4548 80.2963 72.4704C80.3259 72.4899 80.3534 72.5094 80.3809 72.5329C80.4262 72.568 80.4714 72.6011 80.5147 72.6382C80.5186 72.6421 80.5226 72.644 80.5245 72.6479C80.5698 72.687 80.615 72.7279 80.6564 72.7689C80.6701 72.7826 80.6839 72.7962 80.6977 72.8099C80.7114 72.8235 80.7232 72.8372 80.735 72.8508C80.7587 72.8762 80.7823 72.9035 80.8039 72.9308C80.8255 72.9581 80.8472 72.9854 80.8669 73.0147C80.8806 73.0323 80.8924 73.0518 80.9062 73.0713C80.9593 73.1552 81.0046 73.2429 81.036 73.3366Z" fill="white"/>
<path fill-rule="evenodd" clip-rule="evenodd" d="M46.9672 60.6464C46.9672 61.2336 46.8846 61.8013 46.7311 62.3417C46.6288 62.7045 46.4911 63.0556 46.3259 63.3892C45.3029 65.4551 43.1586 66.8792 40.6799 66.8792C39.1651 66.8792 37.7782 66.3486 36.6923 65.4649C36.4208 65.2445 36.169 65.0006 35.9369 64.7392C34.9768 63.6448 34.3926 62.2129 34.3926 60.6464C34.3926 60.5333 34.3965 60.4221 34.4004 60.3109C34.4182 59.9909 34.4595 59.6769 34.5244 59.3706C34.6719 58.6644 34.9395 58.005 35.3054 57.4081C35.4805 57.1232 35.6792 56.8521 35.8975 56.5985C36.3992 56.0152 37.009 55.5255 37.6956 55.1568C38.0064 54.9891 38.3349 54.8486 38.6772 54.7355C39.3067 54.5248 39.9795 54.4116 40.6799 54.4116C44.1521 54.4116 46.9672 57.2013 46.9672 60.6464Z" fill="#F9BFC2"/>
<path fill-rule="evenodd" clip-rule="evenodd" d="M79.8204 68.4895C79.8204 71.9325 77.0057 74.7239 73.5335 74.7239C70.0613 74.7239 67.2466 71.9325 67.2466 68.4895C67.2466 65.0461 70.0613 62.2549 73.5335 62.2549C77.0057 62.2549 79.8204 65.0461 79.8204 68.4895Z" fill="#F9BFC2"/>
<path d="M237.567 53.2548C233.562 52.6715 229.944 54.8154 226.716 55.746C219.876 57.7183 212.813 60.0846 203.416 59.1443C201.421 58.9453 199.619 58.4947 197.591 58.2391C195.663 57.9933 193.123 58.1065 191.65 57.4451C190.788 57.0589 189.856 56.0659 189.023 55.2934C182.681 49.3961 174.71 46.3899 164.352 44.5327C158.643 43.5105 152.34 43.2881 145.963 42.6073C142.909 42.2815 139.75 41.9616 136.596 41.8152C133.472 41.6689 130.274 41.7001 127.687 40.5687C127.85 39.4352 128.566 36.9343 127.801 35.6975C127.069 34.5134 123.274 34.6343 121.52 34.2266C114.009 32.4806 107.015 28.1557 98.2195 29.2423C98.611 25.208 98.6582 20.093 98.3336 15.651C98.2175 14.0747 98.3061 12.2526 97.7611 11.3455C96.6083 9.42201 93.2542 10.1302 91.0233 10.7798C87.6653 11.7591 85.1669 12.9413 82.456 14.5175C81.6986 14.9584 79.5642 16.9931 79.0291 17.0087C78.132 17.036 76.8749 16.0645 76.0605 15.7641C73.5995 14.8531 70.4125 14.4922 68.6361 13.3841C67.3476 8.5461 67.0466 2.72878 63.6098 0.019102C63.0865 -0.0413732 61.8668 0.0542166 61.554 0.132249C57.415 1.16423 54.6451 3.5052 51.9598 6.0237C50.3172 7.56289 48.3617 9.29131 46.9335 11.1192C46.4417 11.7493 46.1033 12.795 45.5643 13.1578C44.8777 13.6202 43.7289 13.8504 42.9361 14.1781C40.3944 15.2276 37.9865 16.6361 36.1983 18.3684C35.0081 19.5194 34.0068 21.1581 32.7713 22.5588C29.2421 26.5599 26.3542 31.9266 24.8906 37.6229C22.5692 46.6493 23.9404 56.6375 27.745 63.1083L30.1431 67.2987C30.6841 68.0107 31.6992 70.34 32.429 70.3576C33.269 70.379 33.8946 74.0668 34.3923 73.464C34.9648 72.7715 37.4219 73.5304 38.2403 72.9412C37.9688 72.7208 36.3114 70.9291 36.0792 70.6677C34.6589 71.8129 33.3851 67.3184 32.5431 68.8849C31.2127 67.1894 30.331 65.0474 29.1138 63.2404C28.6201 62.5073 28.2288 61.71 27.9229 60.8823C26.6538 57.4477 25.2661 54.4988 25.0047 50.3095C24.3535 39.9116 27.5267 30.815 32.2008 24.826C32.9897 23.8116 33.9123 22.8811 34.713 21.8803C37.5537 18.3279 41.1911 15.0954 46.363 13.839C47.9427 10.7392 50.7519 8.40993 53.331 6.02409C55.4222 4.08693 57.8969 2.42094 60.6413 1.49235C61.375 4.14936 61.6131 7.34089 61.7822 10.8933C61.8295 11.8512 61.6327 13.1172 62.3547 13.7259C63.3167 13.1777 62.9685 11.5859 62.9252 10.5539C62.7895 7.35649 62.1206 3.62069 61.6682 1.03977C64.5128 0.333573 65.4453 4.59415 66.0098 6.70297C66.8184 9.73063 67.1213 12.3018 67.7214 14.1785C69.5529 15.1071 71.6637 15.3763 73.6624 15.9908C75.6061 16.5877 77.4002 17.5944 79.2592 18.1425C79.9792 17.8753 80.4219 16.9408 81.0868 16.4434C82.9281 15.0622 85.7983 13.7864 88.3951 12.7056C89.5322 12.2335 91.0607 11.658 92.5086 11.3459C93.864 11.0552 95.9591 10.589 96.8483 12.0267C94.4424 13.0236 92.2017 14.3521 90.3368 15.9908C88.5584 17.5553 86.2449 19.034 85.4265 21.5408C86.0797 21.6247 86.4436 20.899 86.7977 20.5206C89.5381 17.5963 93.1086 14.8925 97.0765 13.0451C97.3618 16.6599 97.6156 20.9985 97.4188 25.1655C97.3598 26.451 96.9487 27.8147 97.0765 28.9032C97.1769 29.7499 97.7926 30.6843 98.1054 31.6207C100.21 37.9316 102.361 44.697 101.644 54.0472C101.332 58.1556 99.7795 62.6074 98.1054 66.1676C96.75 69.047 95.2706 71.3392 93.3899 73.4168C93.8955 73.4324 94.3991 73.4461 94.9027 73.4597C96.626 71.6435 98.0838 69.5074 99.0182 66.7333C110.7 60.6488 121.518 53.103 127.345 41.5893C130.628 42.9334 135.76 42.7052 140.252 43.0602C148.638 43.7235 157.674 44.4648 165.723 45.8928C170.939 46.8175 175.983 48.2475 180 50.4226C184.133 52.6621 187.465 55.4811 190.851 58.3527C193.637 62.5352 196.908 66.2398 198.96 71.1519C200.268 72.4024 200.786 73.9962 201.588 75.3423C203.194 78.0383 204.885 81.1108 207.071 83.4967C208.08 84.5989 209.18 85.9196 210.382 86.895C211.277 87.6207 212.249 88.2762 213.278 88.877C214.574 89.1423 215.89 89.431 217.204 89.7451C216.866 89.5929 216.533 89.4369 216.209 89.273C208.806 85.5392 204.789 79.1346 200.902 71.8308C202.639 72.26 204.506 72.5604 206.613 72.6228C208.759 76.2182 212.715 79.4877 216.437 81.6844C219.86 83.7074 223.708 85.3207 226.602 87.8002C228.238 89.2028 230.062 91.7427 230.644 94.548C231.156 94.8367 231.648 95.1372 232.116 95.4493C232.073 94.8231 231.959 94.2437 231.856 93.9179C230.8 90.5293 228.301 87.4451 225.687 85.6484C219.779 81.5868 211.596 78.4928 207.984 72.736C215.375 73.212 223.832 72.9194 230.485 71.2651C235.651 69.9795 241.555 67.2152 243.506 62.8824C245.517 58.4186 240.955 53.7484 237.567 53.2548ZM123.461 45.7793C122.125 47.7008 120.89 49.6536 119.464 51.1031C118.142 52.4452 116.442 53.5182 114.896 54.8408C113.44 56.0835 111.949 57.3886 110.44 58.5786C107.243 61.0971 103.608 63.0284 100.161 64.6944C100.81 61.4033 102.483 57.8704 102.787 53.9337C103.513 44.6029 101.123 36.3978 98.79 30.2625C105.073 29.7612 110.027 31.5852 114.896 33.2063C118.805 34.5075 122.527 35.6702 126.888 36.2652C127.392 40.5219 125.405 42.9838 123.461 45.7793ZM242.822 61.296C242.483 64.3803 238.317 67.008 235.968 68.2058C232.655 69.8952 229.073 70.5721 225.116 71.1515C216.99 72.3376 206.825 72.3552 199.989 70.3576C197.66 66.134 195.018 62.2227 192.108 58.5786C192.13 58.4498 192.222 58.5161 192.222 58.5786C199.806 59.7861 207.283 60.9937 215.066 59.8232C220.635 58.9863 224.91 57.3515 229.8 55.8591C232.041 55.1763 234.587 53.8264 237.681 54.3863C240.429 54.8857 243.195 57.8782 242.822 61.296Z" fill="black"/>
<path d="M231.515 106.375C230.322 108.326 226.309 110.086 223.86 110.681C219.811 111.662 213.849 110.975 209.241 110.794C199.159 110.394 189.423 110.523 180.114 109.547C177.756 109.3 175.328 109.347 173.032 109.095C170.744 108.843 168.584 108.299 166.523 108.075C163.759 107.776 160.845 107.704 157.955 107.396C149.585 106.504 140.166 106.53 130.658 106.717C127.725 106.773 124.772 107.224 121.748 107.283C106.361 107.583 91.7833 108.529 77.7746 110.341C72.2269 111.057 66.2367 111.231 60.5277 111.926C55.1513 112.581 48.5374 112.493 42.4803 112.493C39.2933 112.493 36.1694 112.757 33.4565 112.38C28.7548 111.727 25.1528 110.39 24.2046 106.036V104.45C24.9561 100.829 26.219 98.0104 28.6604 96.1825C33.9562 92.2126 43.4422 92.7061 50.4751 90.4061L52.4168 89.9535C57.5966 88.7089 62.977 87.6633 67.2656 85.5349C62.9829 85.5525 58.5703 85.7008 55.3873 84.6298L55.9578 83.4963C57.7933 83.9958 59.3376 84.2864 60.9841 84.4035C75.0322 85.4003 84.5301 81.764 91.5944 75.2288C92.2338 74.6377 92.8318 74.0369 93.3905 73.4165C93.8961 73.4321 94.3997 73.4458 94.9033 73.4594C92.7846 75.697 90.2626 77.4488 87.8252 79.306C84.3589 81.9474 79.9169 83.6017 75.2604 84.6298C73.6493 84.9848 71.7961 84.9009 70.0079 85.4218C68.6131 85.8276 67.3639 86.8186 66.0104 87.3472C64.5153 87.9325 63.0222 88.3831 61.4406 88.8201C55.2477 90.5349 48.6456 92.2711 42.138 93.465C37.57 94.3019 32.0736 94.8715 29.2309 97.2008C27.7535 98.4123 25.6112 101.877 25.4617 104.111C25.4302 104.579 25.6623 104.938 25.6899 105.47C25.7174 106.02 25.4656 106.391 25.5758 106.83C25.7449 107.503 26.7109 108.714 27.061 108.529C27.2597 106.649 27.3482 104.661 29.1168 104.337C29.1384 105.913 27.7928 107.097 28.202 109.434C28.922 110.006 30.0729 110.148 30.9444 110.568C31.0408 108.884 31.328 106.803 32.6578 106.717C32.7916 107.954 31.8316 109.06 32.0854 110.794C37.2966 112.522 45.4292 110.308 50.9335 111.699C57.9192 111.087 64.8419 110.482 71.8355 109.887C78.6303 109.31 85.4055 108.166 92.281 107.622C99.3218 107.066 106.481 106.664 113.753 106.375C127.75 105.821 143.705 104.694 157.499 106.262C167.719 107.425 177.931 108.716 188.568 109.208C195.88 109.546 203.214 109.59 210.727 109.887C214.462 110.035 218.44 110.211 222.148 109.887C224.995 109.639 229.827 107.663 230.828 105.583C231.536 104.116 231.499 100.357 230.714 98.9019C229.996 97.5695 227.968 96.2215 226.374 95.1622C224.639 94.0112 222.833 93.1665 221.006 92.4447C218.306 91.3776 215.643 90.2637 213.278 88.8767C214.575 89.142 215.891 89.4307 217.205 89.7448C218.775 90.4529 220.496 91.0675 222.263 91.7658C222.434 91.5669 222.615 91.4069 222.806 91.282C224.114 91.6937 225.387 92.1423 226.602 92.632C226.819 93.0943 226.913 93.6133 226.831 94.1439C227.458 94.5672 228.302 94.9964 229 95.5036C229.661 95.9796 230.232 96.9062 230.828 96.7482C230.865 96.0069 230.798 95.2675 230.645 94.5477C231.157 94.8364 231.648 95.1368 232.117 95.449C232.183 96.399 232.083 97.4544 231.515 97.8816C232.713 99.8129 232.646 104.526 231.515 106.375Z" fill="black"/>
<path fill-rule="evenodd" clip-rule="evenodd" d="M126.887 36.2641C127.39 40.5222 125.404 42.9841 123.46 45.7783C122.125 47.6994 120.889 49.6532 119.463 51.1018C118.141 52.4446 116.442 53.5173 114.894 54.8398C113.439 56.0838 111.949 57.3881 110.439 58.5775C107.243 61.0974 103.608 63.0283 100.16 64.6941C100.808 61.4029 102.481 57.8702 102.787 53.9336C103.511 44.6033 101.122 36.3972 98.7891 30.2611C105.072 29.7603 110.026 31.5853 114.894 33.206C118.804 34.5076 122.527 35.6693 126.887 36.2641ZM106.099 32.9794C105.83 33.3163 105.964 34.0531 105.756 34.4518C105.342 33.8346 103.894 33.4452 103.358 34.2253C103.281 35.0796 103.475 35.6315 103.815 36.0376C104.677 37.0675 107.282 38.4836 108.498 38.5294C108.971 36.4331 108.563 32.1665 106.099 32.9794ZM122.318 36.3775C122.119 36.8589 122.233 37.6523 122.204 38.3029C121.371 37.674 120.892 36.1592 119.349 36.604C119.142 38.0883 120.547 39.5922 121.633 40.3417C122.285 40.7918 123.263 41.0567 124.146 40.7947C124.439 38.9832 124.121 35.7433 122.318 36.3775ZM117.635 42.0407C116.648 42.0809 116.606 43.0586 116.607 44.0795C115.78 43.5789 115.532 42.503 114.095 42.607C113.458 45.4447 115.928 47.1192 117.978 48.0437C118.876 46.9388 118.983 42.6952 117.635 42.0407ZM107.812 42.2672C107.12 42.1755 106.472 42.575 106.67 43.853C105.59 42.7326 104.025 43.2451 104.386 44.8723C104.685 46.2176 108.286 47.7751 109.297 47.8172C109.829 46.4013 109.24 42.456 107.812 42.2672ZM106.556 55.0663C106.314 54.5142 105.929 54.1024 105.186 54.0468C103.763 55.9609 106.53 58.376 108.041 58.804C109.115 57.9537 108.916 54.7106 108.041 53.8203C106.855 53.5507 106.794 54.3958 106.556 55.0663Z" fill="#F1647B"/>
<path fill-rule="evenodd" clip-rule="evenodd" d="M108.5 38.5297C107.283 38.4838 104.678 37.0677 103.817 36.0379C103.477 35.6316 103.283 35.0799 103.36 34.2256C103.895 33.4457 105.344 33.8349 105.758 34.4521C105.965 34.0533 105.831 33.3165 106.101 32.9796C108.565 32.1665 108.972 36.4331 108.5 38.5297Z" fill="white"/>
<path fill-rule="evenodd" clip-rule="evenodd" d="M47.7341 40.0035C47.797 39.4221 48.5072 38.8018 47.9623 38.3043C47.0023 38.2204 47.14 39.2271 46.7052 39.664C46.2173 39.1295 44.974 39.3422 44.193 39.0964C44.1321 38.4409 44.3662 37.4908 43.9648 37.1709C42.9438 37.1787 43.3825 38.6321 43.0501 39.3226C42.3301 39.3265 41.854 39.5704 41.2225 39.664C40.7602 38.8388 40.8782 37.4382 39.6231 37.3972C39.3162 38.396 40.2527 39.0047 40.3097 40.0035C38.3346 41.5992 36.1667 44.4533 36.6546 47.8184C37.3923 52.914 46.8626 56.2128 51.8456 53.8211C53.2129 48.0603 51.6745 41.9387 47.7341 40.0035ZM50.8168 53.2554C50.1597 53.2827 49.8843 53.6884 49.1052 53.5948C50.2541 49.4318 49.0089 44.2641 45.6783 43.2867C41.4507 42.0479 38.6139 45.891 38.9385 49.857C35.8578 47.4653 38.4821 42.0343 41.1084 40.7955C43.4868 39.6757 46.7505 40.2668 48.4187 41.7026C50.9722 43.8993 51.9381 48.9616 50.8168 53.2554Z" fill="black"/>
<path fill-rule="evenodd" clip-rule="evenodd" d="M230.714 98.9023C229.996 97.5699 227.968 96.2219 226.374 95.1626C224.639 94.0116 222.833 93.1669 221.006 92.4451C218.307 91.378 215.643 90.2641 213.278 88.877C212.25 88.2762 211.278 87.6207 210.383 86.895C209.181 85.9196 208.081 84.5989 207.072 83.4967C204.886 81.1109 203.194 78.0383 201.589 75.3423C200.786 73.9963 200.269 72.4024 198.961 71.152C196.909 66.2398 193.638 62.5352 190.852 58.3527C187.466 55.4811 184.134 52.6622 180.001 50.4226C175.984 48.2475 170.939 46.8175 165.724 45.8928C157.674 44.4649 148.639 43.7235 140.252 43.0603C135.761 42.7052 130.629 42.9335 127.345 41.5894C121.518 53.103 110.701 60.6488 99.0191 66.7334C98.0846 69.5074 96.6269 71.6436 94.9036 73.4598C92.7849 75.6974 90.2629 77.4492 87.8255 79.3064C84.3592 81.9478 79.9172 83.602 75.2607 84.6301C73.6495 84.9852 71.7964 84.9013 70.0082 85.4222C68.6134 85.8279 67.3642 86.8189 66.0107 87.3476C64.5156 87.9328 63.0225 88.3835 61.4408 88.8205C55.2479 90.5352 48.6459 92.2715 42.1382 93.4654C37.5703 94.3022 32.0738 94.8719 29.2311 97.2012C27.7537 98.4126 25.6114 101.877 25.4619 104.111C25.4304 104.579 25.6626 104.938 25.6901 105.471C25.7177 106.021 25.4658 106.391 25.576 106.83C25.7452 107.503 26.7111 108.715 27.0613 108.53C27.26 106.649 27.3485 104.661 29.117 104.337C29.1387 105.913 27.7931 107.098 28.2023 109.435C28.9223 110.006 30.0731 110.149 30.9446 110.568C31.041 108.885 31.3282 106.803 32.6581 106.717C32.7919 107.954 31.8318 109.06 32.0856 110.794C37.2968 112.523 45.4294 110.309 50.9338 111.7C57.9194 111.087 64.8422 110.482 71.8357 109.887C78.6306 109.31 85.4058 108.167 92.2813 107.622C99.322 107.066 106.481 106.665 113.754 106.376C127.751 105.822 143.705 104.694 157.499 106.263C167.719 107.425 177.931 108.717 188.568 109.208C195.88 109.546 203.214 109.591 210.727 109.887C214.463 110.036 218.441 110.211 222.149 109.887C224.995 109.64 229.827 107.663 230.828 105.584C231.536 104.117 231.499 100.358 230.714 98.9023ZM229.459 99.3549C229.959 101.196 227.905 101.577 227.173 100.599C226.666 98.8945 228.692 98.438 229.459 99.3549ZM220.091 102.412C219.652 98.8496 221.464 96.5106 224.205 97.6557C225.733 98.2936 226.931 100.718 225.918 102.525C225.043 104.086 221.039 104.076 220.091 102.412ZM227.631 106.944C226.553 107.318 225.572 106.758 225.574 105.923C225.582 104.13 228.849 104.969 227.631 106.944ZM230.03 103.771C229.917 103.775 229.941 103.91 229.915 103.998C229.101 104.491 227.811 104.199 227.631 103.545C227.167 101.852 230.27 101.708 230.03 103.771Z" fill="white"/>
<path fill-rule="evenodd" clip-rule="evenodd" d="M117.98 48.0441C115.93 47.1196 113.459 45.445 114.096 42.6073C115.534 42.5034 115.781 43.5792 116.609 44.0798C116.607 43.059 116.65 42.0812 117.637 42.041C118.985 42.6955 118.878 46.9391 117.98 48.0441Z" fill="white"/>
<path fill-rule="evenodd" clip-rule="evenodd" d="M109.299 47.817C108.287 47.775 104.686 46.2173 104.387 44.872C104.026 43.2449 105.591 42.7324 106.671 43.8527C106.473 42.5748 107.121 42.1752 107.814 42.2669C109.241 42.4558 109.83 46.4011 109.299 47.817Z" fill="white"/>
<path fill-rule="evenodd" clip-rule="evenodd" d="M84.9711 50.5354C85.1462 49.997 86.1908 49.96 85.7698 49.1777C85.1029 48.8812 84.7271 49.5815 84.2845 49.8566C83.712 49.2538 82.9035 48.8851 82.2287 48.3837C82.4314 47.8433 82.8228 46.9674 82.571 46.3451C81.4871 46.2144 81.9612 47.6287 81.43 48.0443C80.7356 47.5624 79.4825 47.6346 78.6877 47.2522C78.8077 46.9323 78.9061 46.191 78.6877 45.8925C77.7277 45.7325 78.1841 46.9791 77.7749 47.3654C73.1696 47.4298 70.6869 49.4742 69.0935 52.4609C68.3852 53.7913 67.3387 56.62 68.4089 57.8978C69.601 59.3238 74.1945 60.4182 77.7749 60.6172C81.1841 60.8065 86.4386 59.792 87.0268 57.4452C87.7901 54.398 85.7088 52.4667 84.9711 50.5354ZM83.3717 58.9181C84.3888 55.7519 83.1632 51.9088 80.8576 50.7617C75.548 48.1223 70.8443 52.7867 71.1492 58.2392C68.2908 57.9524 68.8121 55.4261 69.8941 53.2549C70.4253 52.1858 71.6371 50.5901 72.4063 49.9697C75.3591 47.5878 80.8753 48.2218 83.3717 50.4223C85.0439 51.8971 85.7757 53.8616 85.8839 57.3321C85.3685 58.1787 84.3081 58.4889 83.3717 58.9181Z" fill="black"/>
<path fill-rule="evenodd" clip-rule="evenodd" d="M41.2236 58.8047C39.6984 58.1163 39.2874 56.4041 38.0254 55.4068C36.3853 54.1105 34.437 53.3739 32.0859 52.6884C32.1813 52.1646 32.684 52.148 32.9997 52.122C34.7179 51.9804 37.7827 53.9396 38.9392 54.9536C40.0623 55.9384 41.006 57.2542 41.2236 58.8047Z" fill="black"/>
<path fill-rule="evenodd" clip-rule="evenodd" d="M108.042 53.821C108.917 54.7113 109.116 57.9544 108.042 58.8048C106.531 58.3769 103.764 55.9616 105.186 54.0475C105.93 54.1031 106.314 54.5149 106.557 55.067C106.795 54.3965 106.856 53.5514 108.042 53.821Z" fill="white"/>
<path fill-rule="evenodd" clip-rule="evenodd" d="M58.8127 59.8238C58.4977 61.2481 58.229 62.7184 57.8987 64.1277C59.372 64.4611 60.9757 64.4802 62.2392 64.1277C63.5469 63.7631 63.9779 62.3117 65.209 62.202C65.6026 63.5928 63.8502 64.79 62.6962 65.1474C57.499 66.7568 50.7163 63.6443 51.7312 58.4647C52.4886 58.77 52.3106 59.5883 52.5307 60.1638C53.2484 62.0391 54.9242 63.1915 56.8712 64.0143C57.4364 62.6872 57.4742 60.8371 58.0134 59.484C57.7665 58.4799 56.5395 56.9013 57.4423 55.8594C58.8548 56.3463 61.5295 56.1623 61.6685 57.445C61.8074 58.73 59.5563 58.9701 58.8127 59.8238Z" fill="black"/>
<path fill-rule="evenodd" clip-rule="evenodd" d="M39.8528 59.3715C38.0025 58.2966 35.5078 57.4121 33.2282 56.7662C32.7956 56.6437 32.1501 56.9566 31.9717 56.313C32.0958 56.2851 32.0492 56.0879 32.2001 56.0865C34.7522 56.0754 39.3886 57.1156 39.8528 59.3715Z" fill="black"/>
<path fill-rule="evenodd" clip-rule="evenodd" d="M39.7381 60.3901C39.4037 61.252 38.2291 60.7346 37.4538 60.6168C35.9189 60.3833 34.0168 60.243 32.4281 60.277C32.2988 59.4067 33.7428 59.385 34.484 59.3708C36.2144 59.3373 38.7588 59.8148 39.7381 60.3901Z" fill="black"/>
<path fill-rule="evenodd" clip-rule="evenodd" d="M87.0257 65.4877C83.2474 64.524 78.232 64.5995 74.6899 65.3746C75.638 63.9563 79.2768 63.4946 82 63.6756C83.9946 63.8081 86.4582 64.0985 87.0257 65.4877Z" fill="black"/>
<path fill-rule="evenodd" clip-rule="evenodd" d="M85.997 71.1499C84.3402 70.5815 82.8077 69.7216 81.0855 69.1111C79.3557 68.498 77.4756 68.3529 75.603 67.752C75.603 67.6385 75.603 67.5253 75.603 67.4122C75.6955 67.3909 75.7169 67.2986 75.8314 67.299C78.4547 67.1763 80.6219 67.6991 82.5704 68.5446C83.951 69.1443 85.885 69.6829 85.997 71.1499Z" fill="black"/>
<path fill-rule="evenodd" clip-rule="evenodd" d="M75.7178 70.2441C75.7939 70.2441 75.87 70.2441 75.9462 70.2441C77.0252 70.4441 78.0944 71.1452 79.0302 71.7164C79.8667 72.2273 81.3006 72.7695 81.086 73.9819C80.0603 73.906 79.1445 73.0744 78.2305 72.5092C77.3024 71.9355 76.3522 71.3791 75.6035 70.6971C75.5891 70.4938 75.7434 70.4583 75.7178 70.2441Z" fill="black"/>
<path fill-rule="evenodd" clip-rule="evenodd" d="M200.902 71.8306C202.639 72.2611 204.506 72.5609 206.613 72.6234C208.758 76.2179 212.716 79.4871 216.436 81.6847C219.86 83.7075 223.708 85.3216 226.602 87.8013C228.659 89.5642 231.013 93.1225 230.828 96.7491C230.232 96.9065 229.66 95.9799 229 95.5031C228.301 94.9974 227.458 94.5673 226.83 94.144C227.199 91.7839 224.064 89.6682 222.261 91.7653C220.114 90.9179 218.03 90.1928 216.208 89.2736C208.806 85.5391 204.789 79.135 200.902 71.8306ZM227.173 92.3315C227.327 92.8123 227.921 92.9971 228.658 93.1247C228.683 93.0363 228.753 92.9928 228.886 93.0115C230.223 90.8935 226.377 89.8621 227.173 92.3315Z" fill="white"/>
<path fill-rule="evenodd" clip-rule="evenodd" d="M67.2657 85.5346C62.9771 87.6629 57.5967 88.7086 52.417 89.9532C53.4242 88.1935 54.6262 86.629 55.3875 84.6294C58.5705 85.7004 62.983 85.5521 67.2657 85.5346Z" fill="white"/>
<path fill-rule="evenodd" clip-rule="evenodd" d="M228.886 93.0115C228.753 92.9928 228.683 93.0363 228.658 93.1247C227.922 92.9971 227.328 92.8121 227.173 92.3315C226.377 89.8619 230.223 90.8933 228.886 93.0115Z" fill="black"/>
<path fill-rule="evenodd" clip-rule="evenodd" d="M220.092 102.411C219.653 98.8477 221.463 96.5091 224.204 97.654C225.732 98.2925 226.93 100.718 225.917 102.525C225.043 104.084 221.04 104.074 220.092 102.411Z" fill="black"/>
<path fill-rule="evenodd" clip-rule="evenodd" d="M229.457 99.3536C229.957 101.195 227.903 101.577 227.172 100.599C226.665 98.8942 228.691 98.4381 229.457 99.3536Z" fill="black"/>
<path fill-rule="evenodd" clip-rule="evenodd" d="M230.029 103.772C229.918 103.775 229.94 103.91 229.915 103.998C229.1 104.492 227.809 104.199 227.63 103.545C227.167 101.852 230.268 101.708 230.029 103.772Z" fill="black"/>
<path fill-rule="evenodd" clip-rule="evenodd" d="M227.63 106.943C226.554 107.317 225.571 106.759 225.574 105.923C225.581 104.13 228.849 104.97 227.63 106.943Z" fill="black"/>
<path fill-rule="evenodd" clip-rule="evenodd" d="M50.8183 53.2541C50.1604 53.2814 49.8854 53.6884 49.105 53.594C50.2553 49.4315 49.0092 44.2638 45.6785 43.2868C41.4509 42.0469 38.6141 45.8912 38.9395 49.8564C35.8582 47.4653 38.4829 42.0332 41.1095 40.7951C43.487 39.6743 46.7518 40.2662 48.4196 41.7012C50.9731 43.8982 51.938 48.9604 50.8183 53.2541Z" fill="white"/>
<path fill-rule="evenodd" clip-rule="evenodd" d="M71.1492 58.2379C68.2908 57.9523 68.8111 55.4266 69.8929 53.2542C70.425 52.1854 71.6369 50.5896 72.4056 49.9696C75.3581 47.5883 80.8744 48.2223 83.3707 50.4226C85.0438 51.8974 85.7742 53.8615 85.8834 57.332C85.3672 58.1794 84.3083 58.4882 83.3707 58.9178C84.3877 55.7512 83.1631 51.9083 80.8579 50.7624C75.5477 48.1228 70.8429 52.7854 71.1492 58.2379Z" fill="white"/>
<path fill-rule="evenodd" clip-rule="evenodd" d="M192.107 58.5783C192.129 58.4497 192.222 58.5154 192.222 58.5783C199.807 59.7862 207.283 60.9943 215.065 59.8242C220.635 58.9866 224.91 57.352 229.8 55.8598C232.04 55.1762 234.587 53.8257 237.681 54.3873C240.429 54.8861 243.196 57.8775 242.821 61.2965C242.482 64.3806 238.317 67.0079 235.968 68.2059C232.655 69.8949 229.072 70.5732 225.117 71.1508C216.99 72.3373 206.826 72.3557 199.989 70.358C197.66 66.1351 195.018 62.2231 192.107 58.5783Z" fill="white"/>
<path fill-rule="evenodd" clip-rule="evenodd" d="M124.148 40.7957C123.265 41.0577 122.287 40.7928 121.635 40.3427C120.549 39.5932 119.144 38.0893 119.35 36.6049C120.894 36.1602 121.372 37.675 122.206 38.3039C122.235 37.6533 122.121 36.8599 122.32 36.3785C124.122 35.7441 124.44 38.984 124.148 40.7957Z" fill="white"/>
<path d="M55.2905 68.2622C52.845 65.4503 47.0365 66.7545 42.8585 67.2342C38.1397 67.7771 33.8576 67.7353 29.7991 68.5186C25.2511 69.3931 21.1934 70.4085 16.5401 71.8139C13.8021 72.6432 5.04238 75.2795 2.58746 77.7873C-0.615407 81.0459 3.11881 90.1895 3.84492 94.8424C4.63477 99.8933 5.04514 104.854 7.69383 109.209C10.4362 109.838 13.544 108.576 16.5173 107.997L16.5956 107.982L17.3526 107.855L17.3801 107.848L22.0598 107.036L25.8096 106.386L27.7318 106.051L30.5794 105.557L32.1964 105.277L37.4238 104.365L39.9662 103.926C41.1499 103.681 42.3283 103.483 43.5053 103.311C48.3532 102.587 53.1361 102.202 58.2219 100.215C58.694 92.6944 58.1247 84.517 57.1171 76.4592C56.8218 74.1154 56.9453 70.1727 55.2905 68.2622ZM4.41208 79.0666C16.6912 72.3664 29.6487 70.3514 41.3543 69.1943C45.1885 68.8145 49.3209 67.7234 52.8297 69.301C46.5004 73.8402 41.4033 78.6109 36.9215 83.5014C37.8214 77.8511 30.131 80.0293 29.6656 84.0014C27.8785 79.8003 21.3457 81.7133 23.2915 85.7944C16.8498 84.3277 10.7153 81.2562 4.34283 79.4283C4.1768 79.2697 4.2907 79.1675 4.41208 79.0666ZM29.986 87.2411C31.6434 85.3096 30.9022 82.9269 34.506 81.3617C36.3904 85.7046 33.81 89.2038 31.9326 92.8389C29.2936 91.6308 24.6458 87.4609 24.7957 83.834C25.7364 82.865 26.3258 83.7324 27.1168 83.5254C28.4484 84.8357 28.7008 87.0704 29.986 87.2411ZM56.6142 98.7893C55.2602 99.175 53.9158 99.4912 52.5837 99.7612C52.3005 99.8203 52.0144 99.8751 51.7282 99.9297C51.3404 100.003 50.9568 100.073 50.5732 100.143C47.6312 100.657 44.7297 100.999 41.817 101.398L41.7429 101.41L34.9533 102.71L31.4961 103.37L29.6817 103.714L27.1687 104.196L25.6681 104.479L23.453 104.905L18.7741 105.793L18.6128 105.826C17.6314 106.061 16.658 106.234 15.6887 106.384L15.5943 106.404C13.4494 106.738 11.3228 106.997 9.12834 107.611C5.16986 98.4547 5.3774 90.0863 3.41665 81.3063C7.33835 82.4224 14.4944 84.8921 19.5211 86.7667C21.3369 87.4416 23.8183 88.0319 24.6267 88.6634C27.3505 90.79 28.5499 94.5882 32.3125 94.7794C35.5372 91.9593 35.5539 88.5358 36.9412 85.3703C42.614 81.1046 47.5964 75.1962 54.2939 70.5092C56.112 80.1349 56.0459 89.4024 56.6142 98.7893Z" fill="black"/>
<path fill-rule="evenodd" clip-rule="evenodd" d="M36.9222 83.502C37.822 77.8516 30.1316 80.0299 29.6662 84.0019C27.8791 79.8009 21.3463 81.7138 23.2921 85.7949C16.8504 84.3283 10.7159 81.2568 4.34344 79.4288C4.17741 79.2702 4.29131 79.1682 4.41269 79.0674C16.6918 72.3671 29.6493 70.3521 41.3549 69.1951C45.1891 68.8153 49.3215 67.7242 52.8303 69.3018C46.5011 73.8407 41.4039 78.6115 36.9222 83.502Z" fill="white"/>
<path fill-rule="evenodd" clip-rule="evenodd" d="M54.2943 70.5088C56.1122 80.1345 56.0461 89.4022 56.6143 98.7891C55.2602 99.1748 53.9158 99.491 52.5838 99.761C52.3005 99.8201 52.0145 99.8749 51.7282 99.9296C51.3405 100.003 50.9569 100.073 50.5733 100.143C47.6313 100.657 44.7298 100.998 41.8171 101.398L41.7429 101.41L34.9534 102.709L31.4961 103.37L29.6817 103.714C29.6802 103.702 29.6772 103.698 29.6756 103.686L27.1584 104.172L25.668 104.461L23.4688 104.882L23.4645 104.885L18.774 105.793L18.6127 105.826L15.6886 106.384L15.5941 106.404C13.4492 106.738 11.3227 106.997 9.12819 107.61C5.16971 98.4545 5.37725 90.0862 3.4165 81.3061C7.3382 82.4222 14.4942 84.8919 19.5209 86.7665C21.3367 87.4414 23.8182 88.0318 24.6265 88.6632C27.3504 90.7898 28.5498 94.588 32.3123 94.7792C35.537 91.9591 35.5538 88.5357 36.9411 85.3701C42.6144 81.1042 47.5968 75.1958 54.2943 70.5088Z" fill="white"/>
<path fill-rule="evenodd" clip-rule="evenodd" d="M34.5058 81.3613C36.3903 85.7042 33.8098 89.2034 31.9325 92.8385C29.2934 91.6304 24.6456 87.4605 24.7955 83.8336C25.7363 82.8646 26.3257 83.732 27.1167 83.525C28.4483 84.8353 28.7007 87.0698 29.9859 87.2405C31.6433 85.3092 30.9021 82.9265 34.5058 81.3613Z" fill="#F6A6B4"/>
<path d="M40.4571 83.29C41.6774 88.5573 38.248 94.856 32.9942 96.0732C27.7403 97.2904 22.4919 94.0071 21.2716 88.7398C20.0513 83.4724 22.6215 80.3876 27.8753 79.1704C33.1292 77.9532 39.2368 78.0226 40.4571 83.29Z" fill="#F1647B"/>
<path fill-rule="evenodd" clip-rule="evenodd" d="M37.9376 90.5063C39.1497 88.3829 39.6131 85.8497 39.0932 83.606C38.8498 82.5551 38.3829 81.8262 37.7895 81.3033C37.1828 80.7686 36.3741 80.3891 35.3726 80.1646C33.3362 79.7081 30.7361 79.9447 28.1913 80.5343C25.7416 81.1018 24.1522 82.0537 23.2791 83.258C22.4339 84.4239 22.089 86.0651 22.6355 88.4238C23.682 92.9412 28.1808 95.7512 32.6782 94.7093C34.8469 94.2069 36.7259 92.629 37.9376 90.5063ZM32.9942 96.0732C38.248 94.856 41.6774 88.5573 40.4571 83.29C39.2368 78.0226 33.1292 77.9532 27.8753 79.1704C22.6215 80.3876 20.0513 83.4724 21.2716 88.7398C22.4919 94.0071 27.7403 97.2904 32.9942 96.0732Z" fill="black"/>
<path fill-rule="evenodd" clip-rule="evenodd" d="M27.5381 82.6157C27.2056 82.6928 27.0463 83.0729 27.2246 83.3639L32.3734 91.773C32.4858 91.9565 32.703 92.0476 32.9127 91.999L33.2926 91.911C33.3055 91.909 33.3184 91.9065 33.3314 91.9035L34.7499 91.5749C34.9595 91.5263 35.1146 91.349 35.1348 91.1348L35.9679 82.306C36 81.9663 35.6898 81.6949 35.3573 81.772L33.5878 82.1819L33.5878 82.1823L31.4166 82.6853C31.085 82.7621 30.9254 83.1406 31.1019 83.4316L31.7548 84.5084C31.8668 84.6931 32.0848 84.785 32.2952 84.7362L33.3702 84.4872L33.0143 88.2594L29.4958 82.5131C29.3834 82.3296 29.1662 82.2385 28.9566 82.2871L27.5381 82.6157ZM24.6936 84.2434C24.3611 84.3204 24.2018 84.7005 24.3801 84.9916L29.0108 92.5544C29.1232 92.738 29.3404 92.829 29.55 92.7804L30.9685 92.4518C31.3009 92.3748 31.4603 91.9947 31.282 91.7036L26.6513 84.1408C26.5389 83.9572 26.3217 83.8662 26.1121 83.9148L24.6936 84.2434Z" fill="white"/>
<path d="M231.515 106.423C230.322 108.374 226.309 110.133 223.86 110.728C219.811 111.71 213.849 111.023 209.241 110.841C199.159 110.441 189.423 110.57 180.114 109.595C177.756 109.347 175.328 109.394 173.032 109.142C170.744 108.891 168.584 108.346 166.523 108.122C163.759 107.824 160.845 107.751 157.955 107.443C149.585 106.552 140.166 106.577 130.658 106.764C127.725 106.821 124.772 107.271 121.748 107.33C106.361 107.63 91.7833 108.577 77.7746 110.389C72.2269 111.105 66.2367 111.278 60.5277 111.973C55.1513 112.628 48.5374 112.541 42.4803 112.541C39.2933 112.541 36.1694 112.804 33.4565 112.427C28.7548 111.774 25.1528 110.438 24.2046 106.083V104.497C24.9561 100.877 26.219 98.0577 28.6604 96.2298C33.9562 92.2599 43.4422 92.7535 50.4751 90.4535L52.4168 90.0009C57.5966 88.7563 62.977 87.7106 67.2656 85.5823C62.9829 85.5999 59.9079 86.0218 56.7249 84.9508L56.9554 83.5796C58.7909 84.079 59.3376 84.3338 60.9841 84.4508C75.0322 85.4477 84.5301 81.8114 91.5944 75.2762C92.2338 74.6851 92.8318 74.0842 93.3905 73.4639C93.8961 73.4795 94.3997 73.4931 94.9033 73.5068C92.7846 75.7444 90.2626 77.4962 87.8252 79.3534C84.3589 81.9948 79.9169 83.6491 75.2604 84.6771C73.6493 85.0322 71.7961 84.9483 70.0079 85.4692C68.6131 85.8749 67.3639 86.8659 66.0104 87.3946C64.5153 87.9799 63.0222 88.4305 61.4406 88.8675C55.2477 90.5822 48.6456 92.3185 42.138 93.5124C37.57 94.3492 32.0736 94.9189 29.2309 97.2482C27.7535 98.4596 25.6112 101.924 25.4617 104.158C25.4302 104.626 25.6623 104.985 25.6899 105.518C25.7174 106.068 25.4656 106.438 25.5758 106.877C25.7449 107.55 26.7109 108.762 27.061 108.577C27.2597 106.696 27.3482 104.708 29.1168 104.384C29.1384 105.96 27.7928 107.145 28.202 109.482C28.922 110.053 30.0729 110.196 30.9444 110.615C31.0408 108.932 31.328 106.85 32.6578 106.764C32.7916 108.001 31.8316 109.107 32.0854 110.841C37.2966 112.57 45.4292 110.356 50.9335 111.747C57.9192 111.134 64.8419 110.529 71.8355 109.934C78.6303 109.357 85.4055 108.214 92.281 107.669C99.3218 107.113 106.481 106.712 113.753 106.423C127.75 105.869 143.705 104.741 157.499 106.31C167.719 107.472 177.931 108.764 188.568 109.255C195.88 109.593 203.214 109.638 210.727 109.934C214.462 110.083 218.44 110.258 222.148 109.934C224.995 109.687 229.827 107.71 230.828 105.631C231.536 104.164 231.499 100.405 230.714 98.9493C229.996 97.6169 227.968 96.2689 226.374 95.2096C224.639 94.0586 222.833 93.2139 221.006 92.4921C218.306 91.425 215.643 90.3111 213.278 88.924C214.575 89.1894 215.891 89.4781 217.205 89.7922C218.775 90.5003 220.496 91.1148 222.263 91.8132C222.434 91.6142 222.615 91.4542 222.806 91.3294C224.114 91.741 225.387 92.1897 226.602 92.6794C226.819 93.1417 226.913 93.6606 226.831 94.1912C227.458 94.6146 228.302 95.0437 229 95.551C229.661 96.0269 230.232 96.9536 230.828 96.7956C230.865 96.0543 230.798 95.3149 230.645 94.5951C231.157 94.8838 231.648 95.1842 232.117 95.4963C232.183 96.4464 232.083 97.5018 231.515 97.929C232.713 99.8603 232.646 104.573 231.515 106.423Z" fill="black"/>
<path fill-rule="evenodd" clip-rule="evenodd" d="M230.714 98.9496C229.996 97.6172 227.968 96.2692 226.374 95.2099C224.639 94.0589 222.833 93.2142 221.006 92.4924C218.307 91.4253 215.643 90.3114 213.278 88.9244C212.25 88.3235 211.278 87.6681 210.383 86.9424C209.181 85.967 208.081 84.6463 207.072 83.5441C204.886 81.1582 203.194 78.0857 201.589 75.3897C200.786 74.0436 200.269 72.4498 198.961 71.1993C196.909 66.2872 193.638 62.5826 190.852 58.4C187.466 55.5284 184.134 52.7095 180.001 50.47C175.984 48.2948 170.939 46.8649 165.724 45.9402C157.674 44.5122 148.639 43.7709 140.252 43.1076C135.761 42.7526 130.629 42.9808 127.345 41.6367C121.518 53.1504 110.701 60.6961 99.0191 66.7807C98.0846 69.5548 96.6269 71.6909 94.9036 73.5071C92.7849 75.7447 90.2629 77.4965 87.8255 79.3537C84.3592 81.9951 79.9172 83.6494 75.2607 84.6775C73.6495 85.0325 71.7964 84.9486 70.0082 85.4695C68.6134 85.8753 67.3642 86.8663 66.0107 87.395C64.5156 87.9802 63.0225 88.4308 61.4408 88.8678C55.2479 90.5826 48.6459 92.3188 42.1382 93.5127C37.5703 94.3496 32.0738 94.9192 29.2311 97.2485C27.7537 98.46 25.6114 101.925 25.4619 104.158C25.4304 104.626 25.6626 104.985 25.6901 105.518C25.7177 106.068 25.4658 106.439 25.576 106.878C25.7452 107.551 26.7111 108.762 27.0613 108.577C27.26 106.696 27.3485 104.708 29.117 104.385C29.1387 105.961 27.7931 107.145 28.2023 109.482C28.9223 110.054 30.0731 110.196 30.9446 110.615C31.041 108.932 31.3282 106.85 32.6581 106.765C32.7919 108.001 31.8318 109.107 32.0856 110.842C37.2968 112.57 45.4294 110.356 50.9338 111.747C57.9194 111.134 64.8422 110.53 71.8357 109.935C78.6306 109.357 85.4058 108.214 92.2813 107.67C99.322 107.114 106.481 106.712 113.754 106.423C127.751 105.869 143.705 104.742 157.499 106.31C167.719 107.473 177.931 108.764 188.568 109.256C195.88 109.593 203.214 109.638 210.727 109.935C214.463 110.083 218.441 110.258 222.149 109.935C224.995 109.687 229.827 107.711 230.828 105.631C231.536 104.164 231.499 100.405 230.714 98.9496ZM229.459 99.4022C229.959 101.244 227.905 101.624 227.173 100.647C226.666 98.9418 228.692 98.4853 229.459 99.4022ZM220.091 102.459C219.652 98.8969 221.464 96.5579 224.205 97.703C225.733 98.341 226.931 100.766 225.918 102.572C225.043 104.133 221.039 104.123 220.091 102.459ZM227.631 106.991C226.553 107.365 225.572 106.806 225.574 105.971C225.582 104.178 228.849 105.017 227.631 106.991ZM230.03 103.819C229.917 103.823 229.941 103.957 229.915 104.045C229.101 104.539 227.811 104.246 227.631 103.593C227.167 101.899 230.27 101.755 230.03 103.819Z" fill="white"/>
</g>
<defs>
<clipPath id="clip0">
<rect width="244" height="125" fill="white"/>
</clipPath>
</defs>
</svg>
