<svg width="170" height="151" viewBox="0 0 170 151" fill="none" xmlns="http://www.w3.org/2000/svg">
<g clip-path="url(#clip0)">
<path d="M108.089 21.167L25.9238 25.6455L31.4516 126.409L113.617 121.931L108.089 21.167Z" fill="#F5F7F8"/>
<path d="M169.998 55.572L92.1865 28.8896L59.2529 124.315L137.065 150.997L169.998 55.572Z" fill="#F5F7F8"/>
<path d="M167.431 50.0266L89.6191 23.3442L56.6856 118.769L134.497 145.452L167.431 50.0266Z" fill="#64B564"/>
<path d="M94.6134 33.5453L66.918 113.793L129.503 135.254L157.199 55.0063L94.6134 33.5453Z" fill="white"/>
<path d="M101.168 48.8861L100.245 51.561L129.672 61.6516L130.595 58.9766L101.168 48.8861Z" fill="#D0E8D0"/>
<path d="M99.5462 53.5868L98.623 56.2617L140.667 70.679L141.59 68.004L99.5462 53.5868Z" fill="#D0E8D0"/>
<path d="M97.9232 58.2913L97 60.9663L139.044 75.3836L139.967 72.7086L97.9232 58.2913Z" fill="#D0E8D0"/>
<path d="M93.055 72.3924L92.1318 75.0674L121.558 85.1579L122.481 82.483L93.055 72.3924Z" fill="#D0E8D0"/>
<path d="M91.433 77.0941L90.5098 79.769L132.554 94.1863L133.477 91.5113L91.433 77.0941Z" fill="#D0E8D0"/>
<path d="M89.8099 81.7982L88.8867 84.4731L130.931 98.8904L131.854 96.2154L89.8099 81.7982Z" fill="#D0E8D0"/>
<path d="M85.0267 95.6556L84.1035 98.3306L113.53 108.421L114.453 105.746L85.0267 95.6556Z" fill="#D0E8D0"/>
<path d="M83.4046 100.357L82.4814 103.032L124.526 117.449L125.449 114.775L83.4046 100.357Z" fill="#D0E8D0"/>
<path d="M81.7816 105.057L80.8584 107.732L122.903 122.15L123.826 119.475L81.7816 105.057Z" fill="#D0E8D0"/>
<path d="M56.6855 118.772L72.4387 124.174L113.622 121.928L108.567 29.8431L89.6195 23.3457L56.6855 118.772Z" fill="#009089"/>
<path d="M66.9189 113.793L93.7934 123.008L113.622 121.927L109.043 38.4919L94.6145 33.5444L66.9189 113.793Z" fill="#E6E6E6"/>
<path d="M100.247 51.5637L109.943 54.8884L109.775 51.8395L101.17 48.8887L100.247 51.5637Z" fill="#92C892"/>
<path d="M99.5472 53.5903L98.624 56.2653L110.237 60.2475L110.069 57.1983L99.5472 53.5903Z" fill="#92C892"/>
<path d="M97.9251 58.292L97.002 60.967L110.531 65.6064L110.364 62.5572L97.9251 58.292Z" fill="#92C892"/>
<path d="M92.1338 75.0713L111.413 81.6823L111.246 78.6334L93.0569 72.396L92.1338 75.0713Z" fill="#92C892"/>
<path d="M91.4342 77.0977L90.5107 79.7726L111.707 87.0411L111.54 83.9922L91.4342 77.0977Z" fill="#92C892"/>
<path d="M89.8109 81.8013L88.8877 84.4766L112.001 92.4022L111.834 89.353L89.8109 81.8013Z" fill="#92C892"/>
<path d="M84.1064 98.3322L112.869 108.195L112.702 105.146L85.0296 95.6572L84.1064 98.3322Z" fill="#92C892"/>
<path d="M83.4056 100.36L82.4824 103.035L113.162 113.556L112.995 110.507L83.4056 100.36Z" fill="#92C892"/>
<path d="M113.29 115.866L81.7838 105.062L80.8604 107.737L113.457 118.915L113.29 115.866Z" fill="#92C892"/>
<path d="M102.612 16.1128L20.4473 20.5913L25.975 121.355L108.14 116.876L102.612 16.1128Z" fill="#64B564"/>
<path d="M95.0133 24.5654L28.9268 28.1675L33.5753 112.904L99.6618 109.302L95.0133 24.5654Z" fill="white"/>
<path d="M71.2053 10.0776C70.5337 4.87289 65.935 0.989673 60.5941 1.281C55.2532 1.57232 51.107 5.93233 51.0089 11.1791L38.9199 11.8384L39.9526 30.6504L84.3269 28.23L83.2943 9.41807L71.2053 10.0776ZM61.3078 14.2853C59.2716 14.3962 57.5308 12.8412 57.4193 10.8115C57.308 8.78175 58.868 7.04663 60.9043 6.93541C62.9405 6.82449 64.6813 8.3795 64.7928 10.4092C64.9041 12.4389 63.3438 14.1744 61.3078 14.2853Z" fill="#D0E8D0"/>
<path d="M64.7935 10.4095C64.9048 12.4392 63.3448 14.1744 61.3085 14.2856L62.1404 29.4407L84.3276 28.2306L83.2949 9.41867L71.2059 10.0779C70.5344 4.87289 65.9356 0.989673 60.5947 1.281L60.9052 6.93541C62.9412 6.82449 64.6819 8.3798 64.7935 10.4095Z" fill="#92C892"/>
<path d="M49.9196 48.5353C51.2846 46.0025 50.3312 42.8462 47.7902 41.4856C45.2491 40.125 42.0826 41.0753 40.7176 43.6082C39.3526 46.141 40.306 49.2973 42.8471 50.6579C45.3881 52.0185 48.5546 51.0682 49.9196 48.5353Z" fill="#D0E8D0"/>
<path d="M46.7659 76.0975C49.6502 76.0547 51.9535 73.6893 51.9106 70.8143C51.8676 67.9392 49.4945 65.6433 46.6102 65.6861C43.7259 65.7289 41.4225 68.0944 41.4655 70.9694C41.5085 73.8444 43.8815 76.1404 46.7659 76.0975Z" fill="#D0E8D0"/>
<path d="M53.2344 95.8542C53.4562 92.9875 51.3046 90.4844 48.4287 90.2633C45.5527 90.0421 43.0414 92.1868 42.8196 95.0535C42.5978 97.9202 44.7494 100.423 47.6253 100.645C50.5013 100.866 53.0125 98.7209 53.2344 95.8542Z" fill="#D0E8D0"/>
<path d="M45.4966 49.8504L41.3311 46.1291L43.4358 43.7883L45.2528 45.4116L50.5934 39.4722L52.9417 41.5702L45.4966 49.8504Z" fill="#64B564"/>
<path d="M46.842 74.3684L42.6768 70.6471L44.7812 68.3064L46.5985 69.9297L51.9388 63.9902L54.2871 66.0882L46.842 74.3684Z" fill="#64B564"/>
<path d="M48.189 98.8894L44.0234 95.1681L46.1282 92.8274L47.9452 94.4507L53.2858 88.5112L55.6341 90.6092L48.189 98.8894Z" fill="#64B564"/>
<path d="M71.8664 38.2264L57.3418 39.0181L57.4968 41.8427L72.0214 41.051L71.8664 38.2264Z" fill="#D0E8D0"/>
<path d="M85.4634 42.467L57.6152 43.9849L57.7702 46.8095L85.6184 45.2916L85.4634 42.467Z" fill="#D0E8D0"/>
<path d="M85.7359 47.4308L57.8877 48.9487L58.0426 51.7733L85.8909 50.2554L85.7359 47.4308Z" fill="#D0E8D0"/>
<path d="M73.2278 63.0482L58.7031 63.8398L58.8581 66.6645L73.3827 65.8728L73.2278 63.0482Z" fill="#D0E8D0"/>
<path d="M86.8238 67.2887L58.9756 68.8066L59.1305 71.6312L86.9788 70.1133L86.8238 67.2887Z" fill="#D0E8D0"/>
<path d="M87.0973 72.2546L59.249 73.7725L59.404 76.5971L87.2522 75.0792L87.0973 72.2546Z" fill="#D0E8D0"/>
<path d="M74.5764 87.6097L60.0518 88.4014L60.2067 91.226L74.7313 90.4343L74.5764 87.6097Z" fill="#D0E8D0"/>
<path d="M88.1724 91.8498L60.3242 93.3677L60.4792 96.1923L88.3274 94.6744L88.1724 91.8498Z" fill="#D0E8D0"/>
<path d="M88.4449 96.8166L60.5967 98.3345L60.7516 101.159L88.5998 99.6412L88.4449 96.8166Z" fill="#D0E8D0"/>
<path d="M10.1354 7.26764C11.06 6.51205 12.1534 6.04151 13.0891 5.75109C13.5309 5.61422 13.5309 4.994 13.0891 4.85714C12.1534 4.56701 11.0597 4.09648 10.1354 3.34059C10.1105 3.32031 10.0875 3.29735 10.0672 3.2726C9.30913 2.35092 8.83708 1.26107 8.54572 0.328357C8.40841 -0.112057 7.78619 -0.112057 7.64888 0.328357C7.35782 1.26107 6.88577 2.35092 6.12774 3.2726C6.1074 3.29735 6.08436 3.32031 6.05953 3.34059C5.13488 4.09618 4.04151 4.56671 3.10579 4.85714C2.66396 4.994 2.66396 5.61422 3.10579 5.75109C4.04151 6.04122 5.13488 6.51175 6.05953 7.26764C6.08436 7.28791 6.1074 7.31087 6.12774 7.33562C6.88577 8.2573 7.35782 9.34715 7.64888 10.2799C7.78619 10.7203 8.40841 10.7203 8.54572 10.2799C8.83678 9.34715 9.30883 8.257 10.0672 7.33562C10.0875 7.31087 10.1105 7.28791 10.1354 7.26764Z" fill="#64B564"/>
<path d="M165.447 137.218C166.372 136.462 167.465 135.991 168.401 135.701C168.843 135.564 168.843 134.944 168.401 134.807C167.465 134.517 166.372 134.047 165.447 133.291C165.422 133.271 165.399 133.248 165.379 133.223C164.621 132.301 164.149 131.211 163.858 130.279C163.72 129.838 163.098 129.838 162.961 130.279C162.67 131.211 162.198 132.301 161.439 133.223C161.419 133.248 161.396 133.271 161.371 133.291C160.446 134.046 159.353 134.517 158.417 134.807C157.975 134.944 157.975 135.564 158.417 135.701C159.353 135.991 160.447 136.462 161.371 137.218C161.396 137.238 161.419 137.261 161.439 137.286C162.197 138.207 162.669 139.297 162.961 140.23C163.098 140.67 163.72 140.67 163.858 140.23C164.149 139.297 164.621 138.207 165.379 137.286C165.399 137.261 165.422 137.238 165.447 137.218Z" fill="#64B564"/>
</g>
<defs>
<clipPath id="clip0">
<rect width="170" height="151" fill="white"/>
</clipPath>
</defs>
</svg>
