<svg width="20" height="20" viewBox="0 0 20 20" fill="none" xmlns="http://www.w3.org/2000/svg">
<path d="M2.06886 5.72305L17.844 1.6691L17.7118 1.0522C17.5356 0.30313 16.7424 -0.137516 15.9933 0.0387078L2.95016 3.38762C2.20106 3.56388 1.76041 4.35704 1.93667 5.10614L2.06886 5.72305Z" fill="#64B564"/>
<path d="M18.8587 11.1442C19.6078 10.968 20.0485 10.1748 19.8722 9.42572L18.5943 4.40234L7.57812 7.22248H15.0251C16.5233 7.22248 17.7571 8.4563 17.7571 9.95449V11.4527L18.8587 11.1442Z" fill="#64B564"/>
<path d="M16.3899 9.95304C16.3899 9.15987 15.773 8.54297 14.9798 8.54297H1.49601C0.702843 8.54297 0.0859375 9.15987 0.0859375 9.95304V18.5897C0.0859375 19.3829 0.702843 19.9998 1.49601 19.9998H14.9798C15.773 19.9998 16.3899 19.3829 16.3899 18.5897V9.95304ZM1.6282 10.9665C1.6282 10.614 1.93665 10.3056 2.28917 10.3056H9.78016C10.1327 10.3056 10.4411 10.614 10.4411 10.9665C10.4411 11.319 10.1327 11.6275 9.78016 11.6275H2.28917C1.93665 11.6275 1.6282 11.3191 1.6282 10.9665ZM10.1327 18.7219C8.89887 18.7219 7.88538 17.7085 7.88538 16.4746C7.88538 15.2408 8.89887 14.2714 10.1327 14.2714C11.3665 14.2714 12.3799 15.2849 12.3799 16.5187C12.3799 17.7525 11.3665 18.7219 10.1327 18.7219ZM14.9798 16.5187C14.9798 17.7525 13.9663 18.766 12.7325 18.766C12.6003 18.766 12.424 18.766 12.2919 18.7219C12.8647 18.1491 13.1731 17.4 13.1731 16.5187C13.1731 15.6374 12.8206 14.8883 12.2919 14.3155C12.424 14.2714 12.5562 14.2714 12.7325 14.2714C14.0104 14.2714 14.9798 15.2849 14.9798 16.5187Z" fill="#64B564"/>
</svg>
