<svg width="16" height="16" viewBox="0 0 16 16" fill="none" xmlns="http://www.w3.org/2000/svg">
<path d="M7.9487 4.84083C8.68881 4.84083 9.13343 5.23561 9.13343 5.90154C9.13343 7.11099 6.97452 7.44436 6.97452 8.91221C6.97452 9.30699 7.23292 9.73845 7.76368 9.73845C8.57795 9.73845 8.47946 9.13392 8.77574 8.70166C9.17012 8.12226 11.0088 7.50537 11.0088 5.90114C11.0088 4.16214 9.45483 3.43359 7.87533 3.43359C6.3708 3.43359 4.98828 4.50707 4.98828 5.71652C4.98828 6.20979 5.35873 6.46898 5.79059 6.46898C6.98649 6.46938 6.37 4.84083 7.9487 4.84083Z" fill="#353839"/>
<path d="M8.82802 11.5546C8.82802 10.9992 8.37143 10.543 7.81635 10.543C7.26127 10.543 6.80469 11 6.80469 11.5546C6.80469 12.1101 7.26127 12.5663 7.81635 12.5663C8.37143 12.5663 8.82802 12.1101 8.82802 11.5546Z" fill="#353839"/>
<path d="M16 8C16 3.58887 12.4111 0 8 0C3.58887 0 0 3.58887 0 8C0 12.4111 3.58887 16 8 16C12.4111 16 16 12.4115 16 8ZM0.797528 8C0.797528 4.02871 4.02871 0.797528 8 0.797528C11.9713 0.797528 15.2025 4.02871 15.2025 8C15.2025 11.9713 11.9713 15.2025 8 15.2025C4.02871 15.2025 0.797528 11.9713 0.797528 8Z" fill="#353839"/>
</svg>
