<svg width="25" height="24" viewBox="0 0 25 24" fill="none" xmlns="http://www.w3.org/2000/svg">
<path d="M24.4671 9.20146C24.3883 8.96009 24.1814 8.78768 23.9302 8.74827L16.4428 7.68428L13.0735 0.911189C12.9602 0.684599 12.7287 0.541748 12.4775 0.541748C12.2263 0.541748 11.9948 0.684599 11.8815 0.916115L8.55648 7.70891L1.06913 8.82216C0.817914 8.86157 0.611026 9.03398 0.532212 9.27534C0.453398 9.51671 0.52236 9.78271 0.704618 9.95512L6.13787 15.2209L4.88177 22.6787C4.83744 22.9299 4.94088 23.1811 5.14777 23.3289C5.26106 23.4126 5.39899 23.457 5.53691 23.457C5.64528 23.457 5.74873 23.4323 5.84724 23.3782L12.5317 19.8364L19.2358 23.3388C19.3343 23.388 19.4378 23.4126 19.5412 23.4126C19.9057 23.4126 20.2062 23.1122 20.2062 22.7476C20.2062 22.6935 20.2013 22.6442 20.1865 22.5949L18.891 15.1815L24.2898 9.88615C24.4819 9.70882 24.5459 9.44283 24.4671 9.20146Z" fill="#F2C94C"/>
</svg>
