<svg width="14" height="14" viewBox="0 0 14 14" fill="none" xmlns="http://www.w3.org/2000/svg">
<path d="M13.9808 5.3679C13.9348 5.2271 13.8141 5.12653 13.6676 5.10355L9.29998 4.48289L7.33455 0.531914C7.26846 0.399736 7.13341 0.316406 6.98687 0.316406C6.84032 0.316406 6.70527 0.399736 6.63918 0.534787L4.69961 4.49725L0.331995 5.14665C0.18545 5.16964 0.0647653 5.27021 0.0187904 5.411C-0.0271845 5.5518 0.0130435 5.70697 0.119361 5.80754L3.28876 8.87924L2.55603 13.2296C2.53017 13.3762 2.59051 13.5227 2.7112 13.6089C2.77729 13.6578 2.85774 13.6836 2.9382 13.6836C3.00141 13.6836 3.06176 13.6693 3.11923 13.6376L7.01847 11.5716L10.9292 13.6147C10.9867 13.6434 11.047 13.6578 11.1074 13.6578C11.32 13.6578 11.4953 13.4825 11.4953 13.2698C11.4953 13.2382 11.4924 13.2095 11.4838 13.1808L10.7281 8.85625L13.8774 5.76731C13.9894 5.66387 14.0268 5.5087 13.9808 5.3679ZM10.0442 8.44535C9.95225 8.53443 9.91202 8.66373 9.93501 8.79016L10.593 12.563L7.19663 10.7901C7.08456 10.7297 6.94951 10.7326 6.83458 10.7901L3.44967 12.5831L4.0847 8.80453C4.10481 8.6781 4.06458 8.55167 3.97264 8.46259L1.22563 5.79604L5.01569 5.23285C5.14212 5.21274 5.25131 5.13515 5.30591 5.02022L6.98974 1.58072L8.69656 5.0116C8.75403 5.12653 8.86322 5.20412 8.98965 5.22423L12.7826 5.76444L10.0442 8.44535Z" fill="#353839"/>
</svg>
