<svg width="17" height="17" viewBox="0 0 17 17" fill="none" xmlns="http://www.w3.org/2000/svg">
<g clip-path="url(#clip0)">
<path d="M12.9246 11.246C12.3692 10.6977 11.6758 10.6977 11.124 11.246C10.703 11.6635 10.282 12.0809 9.86815 12.5054C9.75495 12.6221 9.65943 12.6469 9.52147 12.5691C9.24908 12.4205 8.959 12.3002 8.69722 12.1375C7.47677 11.3698 6.45442 10.3829 5.54881 9.27208C5.09955 8.72023 4.6998 8.12946 4.42034 7.4644C4.36374 7.32997 4.37435 7.24154 4.48401 7.13187C4.90498 6.72506 5.31534 6.30763 5.72923 5.8902C6.30585 5.31004 6.30585 4.63083 5.72569 4.04714C5.3967 3.71461 5.06771 3.38916 4.73872 3.05663C4.39911 2.71702 4.06305 2.37388 3.71991 2.03782C3.16451 1.49657 2.47115 1.49657 1.9193 2.04135C1.49479 2.45878 1.08798 2.88682 0.656396 3.29718C0.256654 3.6757 0.0550145 4.13911 0.0125641 4.68036C-0.0546492 5.5612 0.161141 6.39253 0.465369 7.20262C1.08798 8.87942 2.03604 10.3687 3.18574 11.7342C4.73872 13.5808 6.59239 15.0418 8.7609 16.096C9.73726 16.57 10.749 16.9344 11.8492 16.9945C12.6062 17.037 13.2642 16.846 13.7913 16.2552C14.1521 15.8519 14.5589 15.484 14.941 15.0984C15.507 14.5253 15.5105 13.832 14.9481 13.266C14.2759 12.5903 13.6003 11.9182 12.9246 11.246Z" fill="#64B564"/>
<path d="M12.2488 8.42638L13.5541 8.20351C13.3489 7.00429 12.7829 5.91826 11.9233 5.0551C11.0142 4.14595 9.86445 3.57287 8.59801 3.396L8.41406 4.70842C9.39396 4.84639 10.2854 5.28858 10.9894 5.99255C11.6544 6.65761 12.0896 7.49954 12.2488 8.42638Z" fill="#64B564"/>
<path d="M14.29 2.75221C12.7831 1.24521 10.8763 0.293616 8.77148 0L8.58752 1.31243C10.4058 1.56713 12.0543 2.39138 13.3561 3.68965C14.5907 4.92425 15.4008 6.48431 15.6944 8.20002L16.9998 7.97715C16.6567 5.98905 15.7192 4.18491 14.29 2.75221Z" fill="#64B564"/>
</g>
<defs>
<clipPath id="clip0">
<rect width="17" height="17" fill="white"/>
</clipPath>
</defs>
</svg>
