<svg width="16" height="16" viewBox="0 0 16 16" fill="none" xmlns="http://www.w3.org/2000/svg">
<path d="M12.3772 12.2236C13.2016 11.3989 13.7394 10.3961 13.9909 9.33903C14.0629 9.03623 13.6909 8.8318 13.4715 9.05243C13.4688 9.05515 13.4661 9.05784 13.4634 9.06054C11.6291 10.8955 8.63304 10.8601 6.84351 8.95441C5.15638 7.15772 5.17853 4.36838 6.89178 2.59661C6.91339 2.57427 6.93515 2.5522 6.9571 2.53039C7.17716 2.31168 6.97148 1.94124 6.66968 2.01298C5.62236 2.26197 4.62829 2.79231 3.80787 3.60428C1.4091 5.97838 1.39559 9.82753 3.77836 12.2177C6.15072 14.5974 10.0023 14.5993 12.3772 12.2236Z" fill="#ACB4B9"/>
</svg>
