<svg width="134" height="176" viewBox="0 0 134 176" fill="none" xmlns="http://www.w3.org/2000/svg">
<g clip-path="url(#clip0)">
<path fill-rule="evenodd" clip-rule="evenodd" d="M119.084 162.08C119.084 169.768 104.542 176 86.6034 176C68.6649 176 54.123 169.768 54.123 162.08C54.123 154.392 68.6649 148.16 86.6034 148.16C104.542 148.16 119.084 154.392 119.084 162.08Z" fill="#DDD9D8"/>
<path fill-rule="evenodd" clip-rule="evenodd" d="M87.9535 0.94373C90.9796 3.67282 90.5233 9.8778 91.5015 14.651C93.5494 15.5011 96.041 15.9077 98.0253 16.8215C102.596 14.0667 106.049 9.98812 112.904 9.39671C113.656 9.8267 114.351 10.3133 114.506 11.3386C111.843 12.1714 109.423 13.5059 107.296 15.108C105.758 16.2667 103.792 17.2412 102.947 18.9919C103.466 19.4515 104.004 18.6803 104.32 18.4207C107.235 16.0296 110.672 13.5109 114.85 12.2524C114.848 15.7196 115.464 19.6499 115.079 22.9898C114.962 23.9975 114.189 25.2626 114.277 26.1881C114.407 27.5497 115.8 28.5113 116.223 29.5008C117.456 32.3824 118.168 36.1266 117.94 40.2382C117.561 47.044 115.994 53.7196 113.133 57.7148C111.882 59.4613 109.565 60.9476 107.525 62.5124C102.395 66.4461 93.7487 69.2391 84.9778 68.2237C77.1164 67.3137 69.4695 64.6478 63.8043 60.6847C59.7689 57.8618 56.3942 53.0587 55.9074 46.749C55.2387 38.079 57.0773 31.819 59.7986 26.4164C62.6551 20.7457 66.5145 16.5306 71.5869 14.0798C72.0435 13.8592 72.5557 13.6401 73.3037 13.6228C75.8701 8.3787 79.9774 4.67248 84.6341 1.5147C85.1616 3.99355 85.2065 7.39083 85.2065 10.6529C85.2065 11.5996 84.8628 12.8598 85.6641 13.3946C86.4446 12.996 86.122 11.8748 86.1222 11.1099C86.1222 7.82214 86.1241 3.84236 85.4354 1.17222C86.185 1.00688 86.9758 0.882152 87.9535 0.94373ZM63.5753 35.0978C60.9239 39.7825 66.3567 44.164 69.9846 43.7791C74.3996 43.3105 73.7611 35.9476 71.1288 33.6129C70.0494 32.6552 68.7611 32.4306 67.1231 32.6989C65.3903 32.983 64.1734 34.0411 63.5753 35.0978ZM88.869 38.639C87.3087 39.4958 84.2931 43.342 85.2065 45.8352C85.8676 47.6396 89.4602 48.1448 91.8447 48.1197C93.6371 48.1008 96.2919 47.4439 97.6816 46.5205C98.187 46.1845 99.3359 45.0656 99.3981 44.5785C99.5013 43.7743 98.6638 42.264 98.1392 41.3801C96.8627 39.2293 95.1872 37.5149 91.9589 37.839C90.7722 37.9587 89.7506 38.1547 88.869 38.639ZM61.9733 44.9213C61.8583 44.921 61.837 45.0138 61.7443 45.0355C61.7383 45.1815 61.5976 45.1938 61.6299 45.3783C62.4469 45.9951 63.292 46.4227 64.0329 47.0917C64.7326 47.7232 65.1593 48.7842 66.2076 49.0336C66.0748 47.1556 63.5065 45.5934 61.9733 44.9213ZM78.7972 47.6629C78.6426 46.8145 76.3576 45.9859 75.2492 46.7492C74.7401 48.3903 76.1841 49.7275 75.3636 51.0898C74.6222 51.1181 74.3156 50.1918 73.6469 50.5186C72.9369 53.886 73.7592 58.9556 77.1949 57.9433C79.3882 57.2974 80.4079 53.6751 79.713 50.6328C78.8726 50.5909 77.6136 51.6338 76.2794 51.0898C76.2928 49.3386 79.1178 49.4193 78.7972 47.6629ZM61.2865 48.0054C61.2865 48.1197 61.2865 48.2339 61.2865 48.3481C61.9861 48.705 62.8662 48.9165 63.6898 49.3764C64.3275 49.7322 65.2357 50.9109 65.7503 49.9473C64.6079 49.0271 63.2422 47.7347 61.2865 48.0054ZM61.4009 51.0898C62.7244 51.0922 64.1251 52.139 65.2921 51.5465C64.745 50.7751 61.9142 49.7569 61.4009 51.0898ZM89.3266 51.2041C88.1927 51.3306 86.7999 51.6854 86.5799 52.4605C87.4042 52.7695 88.3069 52.1196 89.4408 52.0035C90.6496 51.8801 92.3104 52.4503 92.9889 51.5465C92.1936 51.039 90.5327 51.0694 89.3266 51.2041ZM87.3811 53.9452C87.0241 53.984 86.5481 54.2321 86.5799 54.6307C87.2441 54.9624 88.53 54.6917 89.67 54.7449C90.8166 54.7984 92.4204 55.3162 92.7604 54.2879C91.9607 53.8118 88.7831 53.793 87.3811 53.9452ZM86.6946 55.7732C86.6883 55.9191 86.5478 55.9314 86.5801 56.1159C87.4137 56.5111 88.446 56.7574 89.4411 57.1439C90.3114 57.4819 91.5162 58.3338 92.3023 57.6009C91.0274 56.7304 88.3667 55.5947 86.6946 55.7732Z" fill="white"/>
<path fill-rule="evenodd" clip-rule="evenodd" d="M68.2442 50.1216C68.2442 52.389 66.4024 54.2269 64.1312 54.2269C61.8591 54.2269 60.0176 52.389 60.0176 50.1216C60.0176 47.8545 61.8591 46.0166 64.1312 46.0166C66.4024 46.0166 68.2442 47.8545 68.2442 50.1216Z" fill="#F9BFC2"/>
<path fill-rule="evenodd" clip-rule="evenodd" d="M91.6817 55.9703C91.6817 58.2377 89.8399 60.0756 87.5687 60.0756C85.2966 60.0756 83.4551 58.2377 83.4551 55.9703C83.4551 53.7031 85.2966 51.8652 87.5687 51.8652C89.8399 51.8652 91.6817 53.7034 91.6817 55.9703Z" fill="#F9BFC2"/>
<path fill-rule="evenodd" clip-rule="evenodd" d="M92.4175 14.0796C94.3861 14.5896 96.3696 15.0851 98.0255 15.9073C101.083 13.4707 104.315 11.2075 108.44 9.39629C111.27 8.15425 114.502 8.08822 115.536 10.9955C116.318 13.1929 116.319 18.4632 116.109 21.3901C115.995 22.9681 115.221 24.5841 115.308 25.7307C115.398 26.9337 116.774 28.018 117.253 29.2719C120.708 38.3171 118.326 51.7314 114.277 57.8289C115.255 58.2899 116.392 58.7039 117.253 59.3139C118.618 60.2811 120.025 61.7238 120 63.9972C118.055 65.0952 114.639 64.6646 112.675 63.883C114.18 68.5401 115.766 73.48 116.91 78.6182C118.067 83.8147 119.258 88.9513 119.542 94.9529C119.831 101.068 119.444 107.315 118.856 113.001C118.266 118.696 116.975 123.725 114.735 127.851C119.673 127.223 121.894 123.111 123.548 118.826C124.697 115.849 125.661 112.406 127.439 110.488C128.295 109.565 130.19 108.189 132.246 109.003C133.51 109.503 134.166 111.934 133.963 114.143C133.716 116.819 132.608 120.09 131.559 122.482C128.119 130.326 123.341 138.27 111.302 136.189C112.212 145.466 114.749 160.027 108.212 165.546C103.41 169.599 92.6496 168.422 91.7307 161.776C91.4508 159.75 91.8659 157.559 91.8454 155.608C91.7829 149.687 90.5408 144.293 90.1286 138.474C89.2712 138.111 88.0519 138.109 86.8095 138.131C84.9969 146.072 83.4356 154.862 79.3703 160.748C78.5341 161.958 77.4072 163.373 76.1657 164.175C73.5557 165.859 68.8876 166.394 65.9794 165.088C63.4781 163.966 61.0026 160.879 61.4014 156.864C61.5728 155.138 62.3754 153.319 62.8892 151.381C63.9305 147.453 64.2214 142.473 63.8045 137.102C63.6147 134.656 63.6026 131.747 62.7745 129.678C62.2113 128.271 60.5345 127.194 59.6843 126.022C57.7754 123.393 56.2258 119.982 54.9919 116.313C52.8442 109.928 51.3735 101.629 52.8172 93.1247C43.7617 94.5046 35.9583 86.5613 35.3064 77.4758C35.1124 74.7703 35.4474 72.0399 36.4509 70.0508C37.641 67.6919 41.2318 64.3138 44.9203 66.7381C45.1249 65.9014 44.9715 65.0108 45.0348 63.9967C45.1018 62.9226 45.6192 61.5545 45.4927 60.7983C45.3559 59.9802 44.411 59.5809 44.1193 58.7421C43.1413 55.9302 43.8292 52.3975 47.6674 52.6881C50.3264 54.6182 48.7664 60.2499 46.2937 61.1408C45.934 62.99 46.0931 65.3575 45.7214 67.1948C46.1533 68.0192 46.9706 68.8082 47.6671 69.822C48.4437 70.9524 48.9026 72.2366 50.1849 72.4494C52.5712 72.8454 53.6529 70.6639 54.7632 69.1368C56.8822 66.2216 59.159 62.8883 61.9737 60.6838C58.2768 57.2488 55.3458 53.0528 54.8779 46.6338C53.6941 30.4002 61.2447 17.3451 72.7321 12.8224C74.0955 10.3483 76.0659 7.44099 78.4545 5.16915C79.2201 4.44122 80.2593 3.83749 81.0868 3.11296C82.6403 1.753 83.8262 0.310766 86.3519 0.0288169C89.3134 -0.301871 90.5424 2.17803 91.0441 4.59818C91.7144 7.83247 91.8005 11.0445 92.4175 14.0796ZM85.4359 1.17181C86.1245 3.84194 86.1227 7.82173 86.1227 11.1095C86.1224 11.8744 86.4451 12.9956 85.6646 13.3942C84.8633 12.8593 85.2069 11.5992 85.2069 10.6525C85.2069 7.39042 85.1621 3.99314 84.6346 1.51429C79.9778 4.67207 75.8706 8.37855 73.3042 13.6224C72.5562 13.6397 72.0439 13.8587 71.5874 14.0794C66.515 16.5302 62.6553 20.7453 59.7991 26.416C57.0778 31.8186 55.2392 38.0783 55.9079 46.7485C56.3946 53.0583 59.7694 57.8612 63.8047 60.6843C69.4697 64.6473 77.1166 67.3133 84.9783 68.2233C93.7491 69.2387 102.396 66.4457 107.525 62.512C109.566 60.9472 111.883 59.4609 113.133 57.7144C115.994 53.7192 117.562 47.0436 117.94 40.2378C118.169 36.1262 117.456 32.382 116.224 29.5004C115.8 28.5109 114.408 27.5493 114.278 26.1877C114.189 25.2622 114.963 23.9971 115.079 22.9893C115.464 19.6494 114.848 15.7192 114.85 12.2519C110.672 13.5105 107.235 16.0292 104.321 18.4202C104.005 18.6797 103.466 19.4511 102.947 18.9915C103.793 17.2408 105.759 16.2663 107.296 15.1076C109.423 13.5055 111.844 12.171 114.507 11.3382C114.352 10.3129 113.656 9.82629 112.904 9.39629C106.049 9.98771 102.597 14.0663 98.0257 16.821C96.0414 15.9073 93.5499 15.5004 91.502 14.6506C90.5238 9.87739 90.9803 3.67241 87.954 0.943318C86.9762 0.88174 86.1855 1.00647 85.4359 1.17181ZM45.2638 59.0851C47.5749 62.6928 49.6737 53.0869 46.5227 53.6023C44.63 53.9118 44.1456 57.34 45.2638 59.0851ZM113.362 58.8569C112.87 59.8516 111.752 60.2208 111.187 61.1413C111.629 61.5006 111.542 62.387 112.217 62.512C112.837 62.2547 112.61 61.1526 113.591 61.2556C113.571 62.0356 113.109 62.3739 112.904 62.969C114.526 63.519 117.224 64.0415 119.084 63.3118C118.062 60.943 116.325 59.2882 113.362 58.8569ZM66.2083 71.0792C66.8148 70.9477 67.299 69.6506 68.0396 70.394C68.1711 71.0813 66.9004 71.2962 66.6662 71.9932C67.6518 74.0017 69.2197 75.6772 70.6721 77.2478C71.8463 78.5171 72.2327 79.2209 74.6778 78.961C77.0901 78.7044 79.5822 77.9369 82.117 77.3618C84.6236 76.7932 87.264 76.4056 89.5565 75.6483C91.649 74.9571 93.7743 73.7706 95.8513 72.7927C101.216 70.2667 105.84 67.8098 109.471 63.883C109.99 63.3209 110.772 62.5241 110.615 61.7128C104.957 65.9266 97.6093 69.7895 87.9545 69.3661C83.4949 69.1703 79.1337 68.4657 75.4791 67.3099C74.0973 66.8728 72.3514 66.3731 70.7866 65.5964C69.5332 64.9741 67.3701 63.4789 66.4378 63.5402C65.9899 63.5696 65.4005 64.4705 64.95 64.1115C64.7809 63.4056 65.8494 63.4684 65.5223 62.9693C64.5412 62.6158 63.872 61.951 63.0042 61.4843C63.2122 65.5404 64.6538 68.3659 66.2083 71.0792ZM58.7691 65.1392C56.8087 67.5318 55.4238 70.7855 53.5043 72.4499C52.9926 72.8938 52.1742 73.3846 51.4441 73.4779C48.3684 73.8704 47.5865 71.4254 46.1793 69.5943C45.9359 72.5225 43.9552 77.0222 40.9144 75.6483C41.3012 75.0244 42.0956 75.2579 42.6312 74.9631C43.3406 74.5724 43.6247 73.8015 44.1191 73.2497C43.7281 72.5736 42.2119 73.0209 42.0589 72.1075C42.7772 71.0994 44.1931 72.6224 44.5769 72.2217C45.4181 70.7941 43.0568 70.7323 42.6312 69.823C43.7447 69.1826 44.7896 70.7729 45.149 70.5085C46.2536 66.8817 41.4164 66.263 39.541 67.7669C37.4249 69.4638 36.2721 72.9177 36.3367 76.7908C36.4624 84.3487 42.5629 91.1406 48.926 92.2115C50.6572 92.5029 51.625 92.2514 53.0461 91.7548C53.8456 83.0081 56.6399 75.201 59.913 69.0233C60.3378 68.222 60.712 66.8558 61.8588 66.8531C60.8679 69.5314 59.2735 71.8632 58.1965 74.5064C55.9772 79.9533 54.9564 86.1551 53.8474 92.897C52.3092 102.247 53.9963 111.324 56.5942 117.913C57.8195 121.02 59.4011 123.881 61.2867 126.251C61.9257 127.055 62.9347 127.782 63.3469 128.65C64.1038 130.244 64.38 132.772 64.6058 134.818C65.2424 140.585 65.1474 146.604 64.0334 151.267C63.5404 153.331 62.5949 155.19 62.4311 157.093C62.2253 159.486 63.22 160.685 64.0334 162.118C64.3361 160.898 64.4243 159.463 65.636 159.149C65.6969 160.362 64.6893 161.471 64.7202 163.032C65.6103 163.744 66.5801 164.375 67.9249 164.631C68.2066 163.123 68.4098 161.536 69.6419 160.976C69.7903 162.201 68.848 163.298 68.8406 164.746C73.8482 165.036 76.9557 162.886 78.7977 160.063C80.6221 157.267 82.0139 153.26 83.147 149.325C84.3206 145.25 85.1271 140.933 86.1227 137.217C87.5874 137.133 89.9506 137.122 91.0439 137.788C91.3232 143.076 92.6359 149.299 92.8751 155.265C92.9625 157.448 92.4703 159.646 92.7607 161.661C93.0817 163.892 94.9099 165.288 96.6518 166.117C96.5534 164.905 96.0349 162.427 97.3387 162.004C97.8892 163.244 97.2539 165.668 98.0252 166.688C98.5125 166.775 99.559 166.904 99.8565 166.802C99.522 166.087 99.0652 163.047 99.9707 162.69C100.864 163.474 100.09 165.922 100.886 166.802C105.232 166.961 107.984 165.174 109.356 162.69C113.42 155.327 110.553 143.003 110.157 134.475C110.131 133.913 109.942 133.382 110.042 132.876C110.215 132.009 111.348 130.945 112.103 130.021C114.424 127.176 115.53 123.489 116.681 119.74C118.307 114.445 118.225 108.222 118.512 101.692C118.641 98.7663 118.767 95.9602 118.626 93.2395C118.41 89.0283 117.224 84.7789 116.452 81.3599C114.979 74.8308 113.691 68.7775 111.187 63.1978C107.877 68.1628 101.744 70.939 95.3932 74.0494C92.4934 75.4694 89.304 76.823 85.6646 77.5905C81.9522 78.3732 78.1555 79.603 74.5631 79.875C71.7431 80.0885 71.344 79.4106 69.9851 77.9333C66.4029 74.0387 62.6553 67.9416 62.0879 61.7131C61.3268 62.9457 59.8891 63.7719 58.7691 65.1392ZM127.096 112.544C123.904 118.35 123.062 128.218 114.278 128.878C113.262 130.977 110.575 131.791 111.187 135.161C113.978 135.296 116.772 135.764 119.428 135.047C124.735 133.614 127.461 128.772 129.728 124.195C131.231 121.162 132.757 117.184 133.047 114.029C133.188 112.5 132.934 110.761 131.903 109.917C129.404 109.281 127.881 111.115 127.096 112.544Z" fill="black"/>
<path fill-rule="evenodd" clip-rule="evenodd" d="M4.17651 13.2803C7.58567 12.631 9.86299 14.7865 10.1276 17.6209C10.512 21.7333 6.56541 25.9259 2.23078 23.4465C-0.575046 21.8418 -0.783769 17.0607 1.88737 14.5368C2.42927 14.0248 3.44978 13.4187 4.17651 13.2803ZM0.857667 19.1059C1.02386 22.4405 4.86149 24.3833 7.61035 22.0758C8.74953 21.1194 9.24023 19.004 9.09793 17.6209C8.86453 15.352 6.94506 13.6071 3.94757 14.3083C2.30009 15.3748 0.741097 16.7798 0.857667 19.1059Z" fill="black"/>
<path fill-rule="evenodd" clip-rule="evenodd" d="M3.94759 14.3083C6.94508 13.6071 8.86481 15.352 9.09795 17.621C9.24025 19.004 8.74955 21.1194 7.61037 22.0758C4.86151 24.3833 1.02388 22.4406 0.857687 19.1059C0.741379 16.7798 2.30038 15.3748 3.94759 14.3083Z" fill="white"/>
<path fill-rule="evenodd" clip-rule="evenodd" d="M67.1249 32.6989C68.763 32.4306 70.0513 32.6551 71.1306 33.6129C73.7626 35.9476 74.4014 43.3108 69.9864 43.779C66.3586 44.1637 60.9257 39.7825 63.5772 35.0978C64.175 34.041 65.3919 32.9829 67.1249 32.6989ZM69.0707 33.4986C64.8442 32.8063 62.4729 37.3938 64.7213 40.0097C64.8571 37.3269 68.2544 34.5085 70.444 36.5828C71.7581 37.8277 71.6691 41.0125 70.9019 42.5228C73.4975 40.2366 72.0296 34.2968 69.0707 33.4986Z" fill="black"/>
<path fill-rule="evenodd" clip-rule="evenodd" d="M70.9016 42.5222C71.6687 41.0118 71.7577 37.827 70.4437 36.5821C68.2541 34.5078 64.8567 37.3263 64.721 40.009C62.4728 37.3934 64.8441 32.8059 69.0703 33.498C72.0292 34.2964 73.4971 40.2362 70.9016 42.5222Z" fill="white"/>
<path fill-rule="evenodd" clip-rule="evenodd" d="M14.9353 32.6984C17.3531 32.2149 19.2051 33.8917 19.6278 35.2115C20.4898 37.9016 18.6897 40.9226 16.5377 41.3798C13.0061 42.13 9.9509 38.4267 11.9596 34.983C12.5971 33.8898 13.5157 32.9821 14.9353 32.6984ZM13.4475 39.8949C15.9635 41.7066 19.4559 39.3645 18.7123 35.5543C17.9924 34.4828 16.8409 33.2342 14.9353 33.7266C12.4293 34.3151 11.199 38.276 13.4475 39.8949Z" fill="black"/>
<path fill-rule="evenodd" clip-rule="evenodd" d="M14.9362 33.7268C16.8417 33.2345 17.9933 34.4831 18.7132 35.5545C19.4567 39.3648 15.9643 41.7068 13.4483 39.8951C11.1999 38.2763 12.4302 34.3154 14.9362 33.7268Z" fill="white"/>
<path fill-rule="evenodd" clip-rule="evenodd" d="M91.9604 37.8394C95.1887 37.515 96.8642 39.2297 98.1407 41.3805C98.6653 42.2643 99.5028 43.7747 99.3996 44.5789C99.3374 45.066 98.1885 46.1846 97.6831 46.5208C96.2935 47.4442 93.6386 48.1012 91.8462 48.12C89.4618 48.1452 85.8688 47.6397 85.208 45.8356C84.2946 43.3421 87.3102 39.4959 88.8705 38.6393C89.7519 38.1548 90.7734 37.9588 91.9604 37.8394ZM95.8516 39.7813C93.4816 37.8808 89.5849 38.6359 87.7258 40.8095C86.7213 41.984 85.638 44.3947 86.238 45.7214C86.548 42.8911 88.2199 40.2349 91.0449 40.581C93.454 40.8763 94.6998 43.6846 94.1353 46.8633C95.996 46.4359 97.6196 45.7722 98.3699 44.2361C97.6002 42.5004 97.1299 40.8061 95.8516 39.7813Z" fill="black"/>
<path fill-rule="evenodd" clip-rule="evenodd" d="M98.3685 44.2364C97.6184 45.7724 95.9946 46.4362 94.1339 46.8636C94.6984 43.6845 93.4526 40.8763 91.0435 40.5813C88.2185 40.2349 86.5466 42.8911 86.2365 45.7216C85.6366 44.3949 86.7199 41.9842 87.7244 40.8098C89.5835 38.6364 93.4802 37.881 95.8502 39.7815C97.1288 40.8064 97.599 42.5007 98.3685 44.2364Z" fill="white"/>
<path fill-rule="evenodd" clip-rule="evenodd" d="M27.4096 44.2361C26.967 42.1804 28.667 40.396 29.9277 40.1237C34.448 39.1482 34.2694 45.8188 30.729 46.0638C29.2616 46.1652 28.3474 45.2905 27.4096 44.2361ZM31.0724 45.0356C32.4319 44.7075 32.9541 42.4359 31.9876 41.4944C30.6334 40.1748 27.8804 41.4926 28.3254 43.8934C29.054 44.4827 29.6759 45.3725 31.0724 45.0356Z" fill="black"/>
<path fill-rule="evenodd" clip-rule="evenodd" d="M28.3254 43.8933C27.8807 41.4926 30.6335 40.1748 31.9877 41.4944C32.9541 42.4356 32.4316 44.7075 31.0724 45.0355C29.676 45.3722 29.054 44.4824 28.3254 43.8933Z" fill="white"/>
<path fill-rule="evenodd" clip-rule="evenodd" d="M66.2095 49.0333C65.1612 48.7838 64.7345 47.7228 64.0349 47.0913C63.2939 46.4224 62.4488 45.9947 61.6318 45.3779C61.5995 45.1934 61.7399 45.1811 61.7462 45.0351C61.8389 45.0134 61.8602 44.9204 61.9752 44.9209C63.5082 45.593 66.0764 47.1553 66.2095 49.0333Z" fill="black"/>
<path fill-rule="evenodd" clip-rule="evenodd" d="M76.2813 51.0901C77.6155 51.6341 78.8745 50.5912 79.7149 50.6332C80.4101 53.6754 79.3904 57.2977 77.1968 57.9437C73.7611 58.9559 72.9388 53.8863 73.6487 50.5189C74.3174 50.1921 74.6241 51.1184 75.3655 51.0901C76.1857 49.7276 74.742 48.3904 75.2511 46.7495C76.3595 45.9862 78.6445 46.8148 78.7991 47.6633C79.1197 49.4197 76.2947 49.339 76.2813 51.0901ZM76.3958 49.1482C77.013 48.8885 77.3422 48.3414 77.7689 47.8917C77.2829 47.6533 76.7757 47.4361 76.0524 47.4348C76.0726 48.0998 76.2204 48.638 76.3958 49.1482ZM76.8536 57.0299C78.2184 56.7721 79.2906 53.8698 79.0283 51.7754C77.6956 52.1949 75.5619 52.2491 74.3356 51.6611C74.4246 54.1381 74.475 57.4788 76.8536 57.0299Z" fill="black"/>
<path fill-rule="evenodd" clip-rule="evenodd" d="M76.0508 47.4346C76.7741 47.4356 77.2816 47.6531 77.7673 47.8916C77.3404 48.3412 77.0112 48.8883 76.3942 49.148C76.2185 48.6378 76.0707 48.0996 76.0508 47.4346Z" fill="white"/>
<path fill-rule="evenodd" clip-rule="evenodd" d="M65.7509 49.9472C65.2363 50.9107 64.3282 49.7321 63.6905 49.3762C62.8666 48.9166 61.9868 48.7049 61.2871 48.348C61.2871 48.2338 61.2871 48.1195 61.2871 48.0053C63.2431 47.7346 64.6088 49.027 65.7509 49.9472Z" fill="black"/>
<path fill-rule="evenodd" clip-rule="evenodd" d="M65.2935 51.546C64.1265 52.1385 62.7258 51.0917 61.4023 51.0893C61.9156 49.7564 64.7464 50.7746 65.2935 51.546Z" fill="black"/>
<path fill-rule="evenodd" clip-rule="evenodd" d="M37.5962 50.0611C40.9061 49.5525 41.0668 54.6417 38.3972 55.2014C34.9088 55.9327 34.2634 50.5733 37.5962 50.0611ZM38.0538 54.2874C39.7102 54.017 39.9819 50.6601 37.7104 50.975C35.3785 51.2981 36.1435 54.5995 38.0538 54.2874Z" fill="black"/>
<path fill-rule="evenodd" clip-rule="evenodd" d="M37.7116 50.9749C39.9828 50.66 39.7111 54.0169 38.055 54.2873C36.1444 54.5994 35.3794 51.298 37.7116 50.9749Z" fill="white"/>
<path fill-rule="evenodd" clip-rule="evenodd" d="M92.9891 51.5463C92.3107 52.4498 90.6498 51.8797 89.441 52.0033C88.3071 52.1194 87.4042 52.7693 86.5801 52.4603C86.8001 51.6852 88.1929 51.3304 89.3268 51.2039C90.5327 51.0692 92.1936 51.0388 92.9891 51.5463Z" fill="black"/>
<path fill-rule="evenodd" clip-rule="evenodd" d="M74.334 51.6611C75.5603 52.2491 77.694 52.1949 79.0267 51.7754C79.289 53.8698 78.2168 56.7721 76.852 57.03C74.4734 57.4788 74.423 54.1381 74.334 51.6611Z" fill="white"/>
<path fill-rule="evenodd" clip-rule="evenodd" d="M46.5225 53.6021C49.6736 53.0867 47.5748 62.6926 45.2636 59.0849C44.1454 57.3398 44.6298 53.9116 46.5225 53.6021Z" fill="white"/>
<path fill-rule="evenodd" clip-rule="evenodd" d="M92.7602 54.2878C92.4202 55.316 90.8166 54.7982 89.6698 54.7448C88.5298 54.6919 87.2441 54.9625 86.5796 54.6305C86.5479 54.232 87.0236 53.9839 87.3809 53.9451C88.7832 53.7928 91.9608 53.8117 92.7602 54.2878Z" fill="black"/>
<path fill-rule="evenodd" clip-rule="evenodd" d="M92.3032 57.6003C91.5171 58.3332 90.3123 57.4813 89.4419 57.1433C88.4466 56.7568 87.4143 56.5105 86.581 56.1153C86.5487 55.9308 86.6892 55.9185 86.6955 55.7726C88.3676 55.5944 91.0283 56.73 92.3032 57.6003Z" fill="black"/>
<path fill-rule="evenodd" clip-rule="evenodd" d="M119.085 63.3123C117.224 64.042 114.527 63.5195 112.904 62.9695C113.109 62.3745 113.572 62.0362 113.591 61.2561C112.611 61.1531 112.837 62.2555 112.218 62.5125C111.542 62.3876 111.629 61.5008 111.188 61.1418C111.753 60.2211 112.871 59.8521 113.362 58.8574C116.325 59.2887 118.063 60.9435 119.085 63.3123ZM115.651 62.6268C116.213 62.4638 116.502 62.0283 116.681 61.4843C116.066 60.7737 114.986 62.0598 115.651 62.6268Z" fill="#D09DC7"/>
<path fill-rule="evenodd" clip-rule="evenodd" d="M116.681 61.4841C116.501 62.0281 116.212 62.4633 115.651 62.6266C114.985 62.0595 116.066 60.7735 116.681 61.4841Z" fill="black"/>
<path fill-rule="evenodd" clip-rule="evenodd" d="M63.0039 61.4844C63.8716 61.9513 64.5409 62.6158 65.522 62.9693C65.8491 63.4685 64.7808 63.4059 64.9496 64.1115C65.4002 64.4708 65.9896 63.5699 66.4375 63.5403C67.37 63.479 69.5329 64.9739 70.7863 65.5965C72.3511 66.3732 74.097 66.8728 75.4788 67.3099C79.1334 68.4658 83.4943 69.1704 87.9542 69.3661C97.609 69.7896 104.957 65.9266 110.615 61.7129C110.771 62.5241 109.99 63.3212 109.471 63.883C105.839 67.8099 101.216 70.267 95.851 72.7927C93.7743 73.7707 91.6487 74.9571 89.5562 75.6484C87.2639 76.4057 84.6232 76.7932 82.1167 77.3618C79.5818 77.9367 77.0898 78.7045 74.6775 78.961C72.2327 79.221 71.8459 78.5172 70.6718 77.2479C69.2194 75.6772 67.6515 74.0018 66.6659 71.9933C66.9003 71.2965 68.1708 71.0814 68.0393 70.3941C67.2989 69.6509 66.8148 70.9478 66.208 71.0793C64.654 68.3664 63.2124 65.5409 63.0039 61.4844ZM65.8651 68.3382C66.9303 68.1448 67.4575 67.4147 68.2682 66.9677C67.8109 65.6895 65.4991 67.3487 65.8651 68.3382ZM70.7863 69.4806C71.5471 69.9164 72.5212 68.8439 72.961 68.2242C72.2518 67.4983 71.1363 68.7674 70.7863 69.4806ZM100.887 69.7091C101.712 69.9316 102.919 69.0247 102.833 68.3384C102.01 68.1657 101.122 68.9146 100.887 69.7091ZM92.9898 71.6508C93.9247 71.8434 95.0923 71.3243 95.3934 70.5086C94.6633 70.1365 93.22 70.7876 92.9898 71.6508ZM80.8581 72.2218C80.8854 72.385 81.0463 72.4144 81.0868 72.5645C81.8035 72.2139 82.6471 71.9896 82.918 71.1938C82.2963 70.4591 81.1975 71.6015 80.8581 72.2218ZM70.6721 74.164C71.5569 74.3812 72.423 73.6407 72.8467 73.0218C72.0032 72.4704 70.9312 73.3986 70.6721 74.164ZM85.0927 74.6207C85.905 74.7653 87.1332 74.3867 87.2671 73.4785C86.3949 73.2744 85.3387 73.8241 85.0927 74.6207ZM75.4788 76.7911C76.331 76.9751 77.3166 76.3548 77.539 75.5344C76.8372 75.1249 75.6429 75.9309 75.4788 76.7911Z" fill="#D09DC7"/>
<path fill-rule="evenodd" clip-rule="evenodd" d="M62.0878 61.7129C62.6552 67.9415 66.403 74.0385 69.985 77.9331C71.3439 79.4104 71.7427 80.0886 74.563 79.8748C78.1557 79.6028 81.9523 78.3733 85.6645 77.5903C89.3036 76.8229 92.4933 75.4692 95.3931 74.0492C101.744 70.9386 107.877 68.1626 111.187 63.1976C113.691 68.7773 114.978 74.8309 116.452 81.3597C117.224 84.7787 118.41 89.0282 118.626 93.2393C118.766 95.96 118.641 98.7662 118.512 101.692C118.225 108.222 118.307 114.445 116.681 119.74C115.53 123.489 114.424 127.176 112.103 130.02C111.348 130.945 110.215 132.008 110.042 132.876C109.942 133.382 110.131 133.913 110.157 134.475C110.553 143.003 113.42 155.327 109.356 162.689C107.984 165.173 105.232 166.961 100.886 166.802C100.09 165.921 100.864 163.473 99.9706 162.689C99.0651 163.047 99.5216 166.087 99.8564 166.802C99.5589 166.904 98.5127 166.775 98.0251 166.688C97.2535 165.668 97.8889 163.244 97.3386 162.004C96.0348 162.427 96.5533 164.905 96.6517 166.116C94.9095 165.288 93.0814 163.892 92.7606 161.661C92.4699 159.645 92.9622 157.447 92.875 155.264C92.6358 149.299 91.3234 143.076 91.0438 137.788C89.9505 137.122 87.5873 137.133 86.1226 137.217C85.127 140.933 84.3205 145.25 83.1469 149.325C82.0138 153.26 80.622 157.267 78.7976 160.062C76.9556 162.885 73.8481 165.035 68.8405 164.746C68.8476 163.298 69.7899 162.201 69.6418 160.976C68.4097 161.536 68.2065 163.123 67.9248 164.631C66.58 164.375 65.6102 163.743 64.7201 163.032C64.6891 161.471 65.6971 160.361 65.6359 159.149C64.4245 159.463 64.3363 160.898 64.0333 162.118C63.2199 160.685 62.2252 159.486 62.431 157.092C62.5948 155.189 63.5402 153.331 64.0333 151.267C65.1473 146.604 65.2421 140.585 64.6057 134.818C64.3801 132.772 64.1037 130.244 63.3468 128.65C62.9348 127.782 61.9256 127.055 61.2866 126.251C59.401 123.88 57.8194 121.02 56.5941 117.913C53.9962 111.324 52.3091 102.247 53.8473 92.8968C54.9566 86.155 55.9771 79.9531 58.1964 74.5062C59.2736 71.8631 60.8681 69.5312 61.8586 66.853C60.7118 66.8556 60.3377 68.2218 59.9129 69.0231C56.6395 75.2009 53.8455 83.0079 53.046 91.7546C51.6249 92.2512 50.6569 92.5027 48.9259 92.2114C42.5628 91.1404 36.4623 84.3485 36.3366 76.7906C36.272 72.9175 37.4248 69.4636 39.5409 67.7667C41.4166 66.2629 46.2534 66.8815 45.1489 70.5083C44.7895 70.7727 43.7446 69.1824 42.6311 69.8229C43.0567 70.7324 45.418 70.7942 44.5768 72.2215C44.193 72.6224 42.7773 71.0995 42.0587 72.1073C42.2118 73.0207 43.7277 72.5734 44.1189 73.2495C43.6246 73.8013 43.3405 74.5722 42.6311 74.9629C42.0955 75.2577 41.301 75.0242 40.9143 75.6482C43.9551 77.022 45.9358 72.5223 46.1791 69.5941C47.5861 71.4255 48.3682 73.8702 51.444 73.4777C52.1739 73.3847 52.9922 72.8936 53.5042 72.4498C55.4236 70.7853 56.8086 67.5316 58.769 65.139C59.889 63.7722 61.3267 62.946 62.0878 61.7129ZM99.7419 78.8471C96.2209 86.4128 87.9843 89.2724 79.5989 91.9834C79.1439 90.4953 78.356 89.3397 77.5384 88.2138C77.8398 87.3048 77.86 85.6049 77.6531 84.5586C76.0655 82.6529 69.5633 82.199 68.4969 84.9014C68.4827 86.21 68.426 87.5613 68.8405 88.4425C65.7107 91.1755 64.7858 96.5006 65.2925 103.064C65.4928 105.659 65.9481 110.53 67.3527 111.516C68.0077 111.977 69.798 112.336 70.9007 112.43C74.0977 112.705 79.7952 112.027 80.858 110.488C81.7192 109.242 81.3918 107.459 81.6591 105.462C90.2866 108.175 101.19 105.486 106.266 101.464C107.337 100.616 109.095 99.6518 108.67 98.1514C107.614 98.2982 107.394 99.2436 106.724 99.8649C102.38 103.892 94.47 106.051 86.8094 105.462C82.8408 105.157 78.8031 103.916 77.1955 101.236C77.7537 100.612 79.0533 100.729 79.3702 99.8649C78.4681 99.0966 77.2525 100.445 76.6232 100.322C76.4922 99.7294 76.2102 99.2871 76.2798 98.4942C76.72 97.4484 78.675 97.9145 79.0268 96.7807C78.3263 96.238 76.8251 97.0616 76.3945 97.1235C76.9663 93.3646 80.5779 92.7663 83.8337 91.6406C86.2379 90.8089 88.8337 89.8363 90.9296 88.785C94.6882 86.8989 96.6798 84.8445 98.9411 81.9312C99.477 81.2408 101.025 79.6893 99.9711 78.8471C99.8947 78.8471 99.8183 78.8471 99.7419 78.8471Z" fill="white"/>
<path fill-rule="evenodd" clip-rule="evenodd" d="M68.2684 66.9676C67.4576 67.4147 66.9302 68.1447 65.8653 68.3381C65.4993 67.3486 67.811 65.6894 68.2684 66.9676Z" fill="black"/>
<path fill-rule="evenodd" clip-rule="evenodd" d="M72.9618 68.2237C72.522 68.8434 71.548 69.9159 70.7871 69.4801C71.1371 68.7671 72.2526 67.4981 72.9618 68.2237Z" fill="black"/>
<path fill-rule="evenodd" clip-rule="evenodd" d="M102.832 68.3375C102.919 69.024 101.711 69.9307 100.887 69.7082C101.122 68.914 102.009 68.1651 102.832 68.3375Z" fill="black"/>
<path fill-rule="evenodd" clip-rule="evenodd" d="M95.3938 70.5083C95.0927 71.324 93.9249 71.8431 92.9902 71.6505C93.2205 70.7874 94.6637 70.1363 95.3938 70.5083Z" fill="black"/>
<path fill-rule="evenodd" clip-rule="evenodd" d="M82.9174 71.1935C82.6467 71.9893 81.8031 72.2136 81.0861 72.5642C81.0457 72.414 80.8845 72.3844 80.8574 72.2214C81.1969 71.6009 82.2956 70.4585 82.9174 71.1935Z" fill="black"/>
<path fill-rule="evenodd" clip-rule="evenodd" d="M72.8465 73.0212C72.4228 73.6404 71.5567 74.3806 70.6719 74.1634C70.931 73.3982 72.003 72.4701 72.8465 73.0212Z" fill="black"/>
<path fill-rule="evenodd" clip-rule="evenodd" d="M87.2682 73.4784C87.1343 74.3866 85.9061 74.7652 85.0938 74.6206C85.3395 73.824 86.3957 73.2742 87.2682 73.4784Z" fill="black"/>
<path fill-rule="evenodd" clip-rule="evenodd" d="M77.5387 75.5337C77.3163 76.3541 76.331 76.9744 75.4785 76.7904C75.6426 75.9301 76.8369 75.1241 77.5387 75.5337Z" fill="black"/>
<path fill-rule="evenodd" clip-rule="evenodd" d="M99.9713 78.8467C101.025 79.6889 99.4772 81.2404 98.9414 81.9308C96.6803 84.8441 94.6886 86.8985 90.9298 88.7846C88.8339 89.8361 86.2381 90.8088 83.834 91.6402C80.5781 92.7659 76.9665 93.3642 76.3947 97.1231C76.8256 97.0615 78.3265 96.2376 79.027 96.7803C78.6752 97.9141 76.7203 97.448 76.28 98.4938C76.2101 99.2864 76.4924 99.729 76.6234 100.321C77.2525 100.445 78.4683 99.0962 79.3704 99.8645C79.0535 100.729 77.7539 100.612 77.1957 101.235C78.8033 103.916 82.841 105.157 86.8096 105.462C94.4702 106.051 102.381 103.892 106.724 99.8645C107.395 99.2432 107.615 98.2975 108.67 98.151C109.095 99.6514 107.337 100.615 106.266 101.464C101.191 105.485 90.2871 108.175 81.6593 105.462C81.392 107.459 81.7194 109.241 80.8583 110.488C79.7955 112.026 74.098 112.704 70.9009 112.43C69.7985 112.335 68.008 111.976 67.3529 111.516C65.9483 110.53 65.493 105.659 65.2927 103.063C64.7857 96.5002 65.7109 91.1751 68.8407 88.4421C68.4264 87.5612 68.4832 86.2096 68.4971 84.901C69.5635 82.1989 76.0657 82.6525 77.6534 84.5582C77.8602 85.6045 77.84 87.3044 77.5386 88.2134C78.3559 89.3393 79.1438 90.4949 79.5991 91.983C87.9845 89.272 96.2209 86.4124 99.7421 78.8467C99.8188 78.8467 99.8952 78.8467 99.9713 78.8467ZM69.6423 84.9007C71.5975 85.0396 74.8412 85.5576 76.395 84.6722C74.9764 83.7326 70.7392 83.5295 69.6423 84.9007ZM76.6237 85.4717C74.9103 86.4687 71.4129 85.9989 69.4134 85.5862C69.3412 86.6485 69.4842 87.4956 69.7568 88.2134C71.7839 88.4914 74.668 88.7474 76.5094 88.2134C76.7573 87.6445 77.1469 86.0552 76.6237 85.4717ZM77.0815 89.0128C75.1663 89.7266 71.6148 89.5791 69.5276 89.1273C66.6131 91.4956 65.7585 96.8938 66.2085 102.72C66.3445 104.478 66.8105 109.702 67.8105 110.602C68.469 111.195 70.4289 111.446 71.3586 111.516C74.2479 111.735 77.9416 110.9 79.9425 110.031C80.4521 108.674 80.7677 107.123 80.7435 105.233C79.5718 104.727 78.5878 104.034 77.5389 103.405C73.423 105.787 65.5537 103.586 68.3829 98.1508C69.5131 95.9801 72.4594 95.4688 75.8224 95.2954C76.5814 93.9967 77.7513 93.1082 78.9125 92.211C78.3039 91.1432 77.9143 89.8571 77.0815 89.0128ZM68.7265 100.778C68.977 103.565 74.0142 103.876 76.8523 102.835C75.9347 101.472 74.695 98.8562 75.479 96.0951C75.5425 96.0954 75.6089 96.0023 75.479 95.9806C71.7568 96.3396 68.4099 97.2583 68.7265 100.778Z" fill="black"/>
<path fill-rule="evenodd" clip-rule="evenodd" d="M76.3953 84.6723C74.8415 85.5577 71.598 85.0396 69.6426 84.9008C70.7398 83.5296 74.977 83.7326 76.3953 84.6723Z" fill="white"/>
<path fill-rule="evenodd" clip-rule="evenodd" d="M76.5092 88.2133C74.6677 88.7474 71.7836 88.4913 69.7565 88.2133C69.484 87.4956 69.3409 86.6482 69.4131 85.5862C71.4127 85.9989 74.91 86.4687 76.6234 85.4717C77.1469 86.0552 76.7573 87.6445 76.5092 88.2133Z" fill="white"/>
<path fill-rule="evenodd" clip-rule="evenodd" d="M78.9126 92.2118C77.7513 93.109 76.5814 93.9973 75.8224 95.2962C72.4595 95.4697 69.5132 95.9809 68.3829 98.1516C65.5537 103.587 73.423 105.788 77.5389 103.406C78.5878 104.035 79.5718 104.728 80.7436 105.234C80.7677 107.124 80.4524 108.675 79.9425 110.032C77.9417 110.901 74.2479 111.736 71.3586 111.517C70.4289 111.447 68.469 111.195 67.8106 110.603C66.8105 109.702 66.3442 104.479 66.2085 102.721C65.7585 96.8946 66.6131 91.4965 69.5276 89.1282C71.6146 89.5802 75.1663 89.7275 77.0816 89.0137C77.9144 89.8577 78.304 91.1438 78.9126 92.2118Z" fill="#F7B9D4"/>
<path fill-rule="evenodd" clip-rule="evenodd" d="M75.4783 95.9805C75.6083 96.0022 75.5419 96.0952 75.4783 96.095C74.6946 98.856 75.9341 101.472 76.8517 102.835C74.0133 103.876 68.9763 103.565 68.7259 100.778C68.4092 97.2582 71.7562 96.3395 75.4783 95.9805Z" fill="white"/>
<path fill-rule="evenodd" clip-rule="evenodd" d="M131.903 109.917C132.934 110.761 133.188 112.5 133.047 114.029C132.757 117.185 131.231 121.162 129.728 124.195C127.461 128.772 124.735 133.614 119.428 135.047C116.772 135.763 113.978 135.296 111.187 135.161C110.575 131.791 113.262 130.978 114.278 128.878C123.062 128.218 123.904 118.35 127.096 112.544C127.882 111.115 129.404 109.281 131.903 109.917Z" fill="white"/>
</g>
<defs>
<clipPath id="clip0">
<rect width="134" height="176" fill="white"/>
</clipPath>
</defs>
</svg>
