<svg width="12" height="12" viewBox="0 0 12 12" fill="none" xmlns="http://www.w3.org/2000/svg">
<path d="M8.92787 7.81709C8.56033 7.45423 8.10149 7.45423 7.73629 7.81709C7.45771 8.09333 7.17913 8.36957 6.90523 8.65049C6.83032 8.72775 6.76711 8.74413 6.67581 8.69263C6.49555 8.59431 6.30359 8.51471 6.13035 8.40703C5.3227 7.89902 4.64615 7.24588 4.04685 6.5108C3.74954 6.1456 3.485 5.75465 3.30006 5.31454C3.26261 5.22558 3.26963 5.16706 3.3422 5.09449C3.62078 4.82527 3.89234 4.54903 4.16624 4.27279C4.54783 3.88886 4.54783 3.43938 4.1639 3.05312C3.94618 2.83306 3.72847 2.61769 3.51075 2.39763C3.28602 2.17289 3.06362 1.94581 2.83654 1.72342C2.469 1.36524 2.01016 1.36524 1.64496 1.72576C1.36404 2.002 1.09482 2.28526 0.809218 2.55682C0.544683 2.80731 0.411245 3.11398 0.383153 3.47216C0.338674 4.05507 0.481476 4.60521 0.682803 5.14131C1.09482 6.25095 1.72222 7.23652 2.48305 8.14015C3.51075 9.36216 4.73745 10.329 6.17249 11.0266C6.81861 11.3403 7.48815 11.5814 8.2162 11.6212C8.71718 11.6493 9.15261 11.5229 9.50142 11.132C9.7402 10.8651 10.0094 10.6216 10.2623 10.3665C10.6368 9.98721 10.6392 9.52837 10.2669 9.15381C9.82214 8.70668 9.37501 8.26188 8.92787 7.81709Z" fill="white"/>
<path d="M8.48102 5.95124L9.34486 5.80376C9.20908 5.01015 8.83452 4.29146 8.26565 3.72025C7.66401 3.11861 6.90318 2.73937 6.06509 2.62231L5.94336 3.49083C6.59182 3.58213 7.18176 3.87476 7.64762 4.34062C8.08773 4.78073 8.37568 5.3379 8.48102 5.95124Z" fill="white"/>
<path d="M9.83134 2.19631C8.83407 1.19904 7.57226 0.569305 6.17935 0.375L6.05762 1.24352C7.2609 1.41207 8.35182 1.95753 9.21331 2.81668C10.0303 3.6337 10.5664 4.66609 10.7607 5.80148L11.6246 5.654C11.3975 4.33834 10.7771 3.14443 9.83134 2.19631Z" fill="white"/>
</svg>
