<svg width="7" height="16" viewBox="0 0 7 16" fill="none" xmlns="http://www.w3.org/2000/svg">
<path d="M6.90578 2.34039C6.90578 2.80779 6.72288 3.21422 6.36725 3.54953C6.00146 3.88484 5.5747 4.04741 5.06666 4.04741C4.56878 4.04741 4.13186 3.88484 3.76607 3.54953C3.41043 3.21422 3.22754 2.80779 3.22754 2.34039C3.22754 1.86283 3.41043 1.45639 3.76607 1.12108C4.13186 0.785772 4.56878 0.613037 5.06666 0.613037C5.5747 0.613037 6.01162 0.785772 6.36725 1.12108C6.72288 1.45639 6.90578 1.86283 6.90578 2.34039Z" fill="white"/>
<path d="M6.70248 13.7612L6.49927 14.6046C5.87945 14.8485 5.39173 15.0313 5.02594 15.1533C4.64999 15.2854 4.22323 15.3463 3.73551 15.3463C2.99376 15.3463 2.40443 15.1634 1.998 14.7976C1.5814 14.442 1.37818 13.9746 1.37818 13.4158C1.37818 13.1922 1.38834 12.9687 1.41883 12.7451C1.44931 12.5114 1.50011 12.2574 1.57124 11.9729L2.34347 9.23965C2.41459 8.97546 2.4654 8.7316 2.5162 8.4979C2.56701 8.2642 2.58733 8.05082 2.58733 7.85777C2.58733 7.5123 2.5162 7.26844 2.37395 7.12618C2.22154 6.99409 1.94719 6.92297 1.54076 6.92297C1.3477 6.92297 1.14448 6.95345 0.931104 7.01441C0.717726 7.07538 0.53483 7.13634 0.392578 7.19731L0.595796 6.35396C1.10384 6.14058 1.59156 5.96784 2.0488 5.82559C2.5162 5.67318 2.95312 5.60205 3.35955 5.60205C4.1013 5.60205 4.68047 5.78495 5.07674 6.14058C5.48318 6.49621 5.6864 6.96361 5.6864 7.53262C5.6864 7.65455 5.66607 7.86793 5.64575 8.16259C5.61527 8.46742 5.56447 8.74176 5.48318 8.98562L4.72111 11.7087C4.64999 11.9323 4.59918 12.1761 4.54838 12.4606C4.49757 12.735 4.47725 12.9484 4.47725 13.0906C4.47725 13.4564 4.55854 13.7003 4.72111 13.8324C4.87353 13.9645 5.15803 14.0356 5.5543 14.0356C5.74736 14.0356 5.95058 13.9949 6.19444 13.934C6.42814 13.873 6.60088 13.812 6.70248 13.7612Z" fill="white"/>
</svg>
