<svg width="32" height="32" viewBox="0 0 32 32" fill="none" xmlns="http://www.w3.org/2000/svg">
<path fill-rule="evenodd" clip-rule="evenodd" d="M25.4114 8.67847C25.989 8.10089 25.989 7.16446 25.4114 6.58688C24.8338 6.00931 23.8974 6.00931 23.3198 6.58688L15.9989 13.9078L8.67858 6.58742C8.101 6.00985 7.16457 6.00985 6.58699 6.58742C6.00942 7.165 6.00941 8.10143 6.58699 8.67901L13.9073 15.9994L6.58713 23.3196C6.00955 23.8972 6.00955 24.8336 6.58713 25.4112C7.1647 25.9887 8.10114 25.9887 8.67871 25.4112L15.9989 18.091L23.3197 25.4117C23.8973 25.9893 24.8337 25.9893 25.4113 25.4117C25.9888 24.8341 25.9888 23.8977 25.4113 23.3201L18.0905 15.9994L25.4114 8.67847Z" fill="white"/>
</svg>
