<svg width="30" height="30" viewBox="0 0 30 30" fill="none" xmlns="http://www.w3.org/2000/svg">
<path fill-rule="evenodd" clip-rule="evenodd" d="M11.4551 0C17.7715 0 22.9102 5.13863 22.9102 11.4551C22.9102 17.7715 17.7715 22.9102 11.4551 22.9102C9.39651 22.9102 7.3922 22.3622 5.63255 21.3217L0.0421143 22.8678L1.58844 17.2776C0.547943 15.518 0 13.5136 0 11.4551C0 5.13863 5.13863 0 11.4551 0ZM7.93945 8.78906H9.69727C9.69727 7.81975 10.4858 7.03125 11.4551 7.03125C12.4244 7.03125 13.2129 7.81975 13.2129 8.78906C13.2129 9.28825 13.0096 9.74899 12.6407 10.0866L10.5762 11.9762V14.1211H12.334V12.7503L13.8274 11.3834C14.5541 10.7188 14.9707 9.77303 14.9707 8.78906C14.9707 6.85043 13.3937 5.27344 11.4551 5.27344C9.51645 5.27344 7.93945 6.85043 7.93945 8.78906ZM12.334 15.8789V17.6367H10.5762V15.8789H12.334ZM24.6657 11.6414C27.8643 13.2575 30 16.58 30 20.3027C30 22.0482 29.5351 23.7456 28.6519 25.237L29.9577 29.9577L25.237 28.6519C23.7456 29.5351 22.0482 30 20.3027 30C16.58 30 13.2575 27.8643 11.6414 24.6657C18.7793 24.5663 24.5663 18.7793 24.6657 11.6414Z" fill="white"/>
</svg>
