<svg width="40" height="40" viewBox="0 0 40 40" fill="none" xmlns="http://www.w3.org/2000/svg">
<circle cx="20" cy="20" r="20" fill="#EEF3FF"/>
<path d="M15.4401 13.0552L23.0145 10.8789L22.6134 10.0254C22.3509 9.4707 21.7108 9.24161 21.1838 9.51786L14.4031 13.0552H15.4401Z" fill="#5383EC"/>
<path d="M25.3658 10.9418C25.2719 10.9418 25.178 10.9552 25.0841 10.9822L23.3047 11.4943L17.8703 13.0552H24.0386H26.727L26.3942 11.7705C26.2661 11.2697 25.8352 10.9418 25.3658 10.9418Z" fill="#5383EC"/>
<path d="M27.8386 13.8413H27.5954H27.2647H26.934H24.4099H15.135H13.9188H12.8947H12.7048H12.069C11.7318 13.8413 11.431 14.0053 11.2347 14.2635C11.1451 14.3826 11.0768 14.5196 11.0384 14.6701C11.0149 14.7644 11 14.8632 11 14.9643V15.099V16.3792V27.4763C11 28.0962 11.4779 28.5993 12.0668 28.5993H27.8365C28.4254 28.5993 28.9033 28.0962 28.9033 27.4763V24.3433H22.5728C21.5722 24.3433 20.7592 23.4876 20.7592 22.4342V21.4056V21.0575V20.7094V19.9368C20.7592 19.4202 20.9555 18.9508 21.2734 18.6072C21.5551 18.3017 21.9327 18.0951 22.3552 18.0434C22.4256 18.0345 22.4981 18.03 22.5707 18.03H28.0157H28.3464H28.6771H28.9033V14.9643C28.9054 14.3444 28.4275 13.8413 27.8386 13.8413Z" fill="#5383EC"/>
<path d="M29.6522 19.1035C29.5455 19.0002 29.4196 18.9216 29.2788 18.8699C29.17 18.8318 29.0548 18.8093 28.9332 18.8093H28.9054H28.8841H28.5534H27.3607H22.5728C21.9839 18.8093 21.506 19.3124 21.506 19.9323V20.4915V20.8396V21.1877V22.432C21.506 23.0519 21.9839 23.555 22.5728 23.555H28.9054H28.9332C29.0548 23.555 29.17 23.5325 29.2788 23.4943C29.4196 23.4449 29.5455 23.3641 29.6522 23.2607C29.8656 23.0564 30 22.7599 30 22.432V19.9323C30 19.6044 29.8656 19.3079 29.6522 19.1035ZM24.8003 21.4056C24.8003 21.7155 24.5613 21.9671 24.2669 21.9671H23.9127C23.6183 21.9671 23.3793 21.7155 23.3793 21.4056V21.0328C23.3793 20.8531 23.4583 20.6936 23.5841 20.5926C23.6759 20.5184 23.789 20.4713 23.9127 20.4713H24.0023H24.2669C24.5613 20.4713 24.8003 20.7228 24.8003 21.0328V21.4056Z" fill="#5383EC"/>
</svg>
