<svg width="40" height="40" viewBox="0 0 40 40" fill="none" xmlns="http://www.w3.org/2000/svg">
<circle cx="20" cy="20" r="20" fill="#5383EC"/>
<path d="M24.3918 12.3918C23.4525 12.3918 22.5525 12.564 21.7213 12.8738C23.7279 14.5951 25.0016 17.1525 25.0016 20C25.0016 22.8525 23.7279 25.405 21.7213 27.1263C22.5525 27.4361 23.4525 27.6082 24.3918 27.6082C28.5967 27.6082 32 24.2 32 20C32 15.8 28.5918 12.3918 24.3918 12.3918Z" fill="white"/>
<path d="M15.6082 12.3918C11.4082 12.3918 8 15.7951 8 20C8 24.205 11.4082 27.6082 15.6082 27.6082C19.8131 27.6082 23.2164 24.2 23.2164 20C23.2164 15.8 19.8131 12.3918 15.6082 12.3918ZM17.7967 23C17.4623 23.4033 17.0344 23.6738 16.5279 23.8115C16.3066 23.8705 16.2082 23.9886 16.218 24.2148C16.2279 24.441 16.218 24.6623 16.218 24.8886C16.218 25.0902 16.1148 25.1984 15.918 25.2033C15.677 25.2082 15.4361 25.2082 15.1902 25.2033C14.9787 25.1984 14.8803 25.0804 14.8754 24.8738C14.8754 24.7115 14.8705 24.5443 14.8705 24.382C14.8656 24.0181 14.8557 24.0033 14.5066 23.9492C14.059 23.8804 13.6213 23.7771 13.2131 23.5804C12.8934 23.423 12.859 23.3443 12.9525 23.0099C13.0213 22.7591 13.0902 22.5082 13.1689 22.2623C13.2574 21.9771 13.3361 21.9377 13.6016 22.0755C14.0541 22.3115 14.5311 22.4443 15.0328 22.5033C15.3574 22.5427 15.6721 22.5132 15.9721 22.3804C16.5328 22.1345 16.6213 21.4853 16.1443 21.0968C15.982 20.964 15.8 20.8656 15.6082 20.782C15.1164 20.5656 14.6049 20.4033 14.1426 20.123C13.3902 19.6705 12.9131 19.0558 12.9721 18.141C13.0361 17.1082 13.6213 16.464 14.5656 16.1148C14.9541 15.9722 14.959 15.9771 14.959 15.5689C14.959 15.4312 14.959 15.2935 14.959 15.1558C14.9689 14.8459 15.018 14.7968 15.3279 14.7869C15.4213 14.782 15.5197 14.7869 15.6131 14.7869C16.2672 14.7869 16.2672 14.7869 16.2721 15.441C16.2721 15.9033 16.2721 15.9033 16.7344 15.9771C17.0885 16.0312 17.423 16.1345 17.7525 16.282C17.9344 16.3607 17.9984 16.4886 17.9443 16.6755C17.8607 16.9558 17.7869 17.241 17.6934 17.5214C17.6098 17.7869 17.5213 17.8263 17.2705 17.7033C16.759 17.4574 16.223 17.3541 15.6623 17.3836C15.5148 17.3935 15.3721 17.4132 15.2344 17.4722C14.7475 17.6836 14.6689 18.2246 15.082 18.5541C15.2934 18.7214 15.5295 18.8443 15.7803 18.9476C16.2131 19.1246 16.6459 19.2968 17.0541 19.523C18.3623 20.2459 18.7164 21.8836 17.7967 23Z" fill="white"/>
</svg>
