<svg width="40" height="40" viewBox="0 0 40 40" fill="none" xmlns="http://www.w3.org/2000/svg">
<path d="M40 20.0044C40 31.0477 31.0477 40 20.0044 40C8.95234 40 0 31.0477 0 20.0044C0 8.95234 8.95234 0 20.0044 0C31.0477 0 40 8.95234 40 20.0044Z" fill="#EEF3FF"/>
<path d="M23.5581 17.6663C25.5217 15.7027 25.5217 12.519 23.5581 10.5554C21.5944 8.59178 18.4108 8.59178 16.4472 10.5554C14.4836 12.519 14.4836 15.7027 16.4472 17.6663C18.4108 19.6299 21.5944 19.6299 23.5581 17.6663Z" fill="#5383EC"/>
<path d="M28 26.8654C28 27.4679 27.7269 28.0385 27.2473 28.4295C25.2956 30.0321 22.7644 31 20 31C17.2356 31 14.7044 30.0321 12.7527 28.4295C12.2798 28.0385 12 27.4615 12 26.8654C12 24.1603 14.2781 22 17.0891 22H22.9242C25.7352 22 28 24.1603 28 26.8654Z" fill="#5383EC"/>
</svg>
