<svg width="40" height="40" viewBox="0 0 40 40" fill="none" xmlns="http://www.w3.org/2000/svg">
<circle cx="20" cy="20" r="20" fill="#EEF3FF"/>
<path d="M27.8571 10H12.1429C10.9594 10 10 10.9594 10 12.1429V27.8571C10 29.0406 10.9594 30 12.1429 30H27.8571C29.0406 30 30 29.0406 30 27.8571V12.1429C30 10.9594 29.0406 10 27.8571 10ZM16.4286 25.7143H14.2857C13.8912 25.7143 13.5714 25.3945 13.5714 25C13.5714 24.6055 13.8912 24.2857 14.2857 24.2857H16.4286C16.8231 24.2857 17.1429 24.6055 17.1429 25C17.1429 25.3945 16.8231 25.7143 16.4286 25.7143ZM16.4286 20.7143H14.2857C13.8912 20.7143 13.5714 20.3945 13.5714 20C13.5714 19.6055 13.8912 19.2857 14.2857 19.2857H16.4286C16.8231 19.2857 17.1429 19.6055 17.1429 20C17.1429 20.3945 16.8231 20.7143 16.4286 20.7143ZM16.4286 15.7143H14.2857C13.8912 15.7143 13.5714 15.3945 13.5714 15C13.5714 14.6055 13.8912 14.2857 14.2857 14.2857H16.4286C16.8231 14.2857 17.1429 14.6055 17.1429 15C17.1429 15.3945 16.8231 15.7143 16.4286 15.7143ZM25.7143 25.7143H19.2857C18.8912 25.7143 18.5714 25.3945 18.5714 25C18.5714 24.6055 18.8912 24.2857 19.2857 24.2857H25.7143C26.1088 24.2857 26.4286 24.6055 26.4286 25C26.4286 25.3945 26.1087 25.7143 25.7143 25.7143ZM25.7143 20.7143H19.2857C18.8912 20.7143 18.5714 20.3945 18.5714 20C18.5714 19.6055 18.8912 19.2857 19.2857 19.2857H25.7143C26.1088 19.2857 26.4286 19.6055 26.4286 20C26.4286 20.3945 26.1087 20.7143 25.7143 20.7143ZM25.7143 15.7143H19.2857C18.8912 15.7143 18.5714 15.3945 18.5714 15C18.5714 14.6055 18.8912 14.2857 19.2857 14.2857H25.7143C26.1088 14.2857 26.4286 14.6055 26.4286 15C26.4286 15.3945 26.1087 15.7143 25.7143 15.7143Z" fill="#5383EC"/>
</svg>
