<svg width="143" height="173" viewBox="0 0 143 173" fill="none" xmlns="http://www.w3.org/2000/svg">
<g clip-path="url(#clip0)">
<path fill-rule="evenodd" clip-rule="evenodd" d="M35.9894 173H126.437L128.162 166.207C128.162 166.207 128.545 171.041 135.06 169.688C136.785 168.141 143.683 164.08 141.958 146.87C141.958 139.909 138.317 107.229 124.712 93.1127C107.467 112.45 73.9334 129.273 73.9334 129.273L46.7238 103.168L40.4517 105.448L35.8017 96.2068C35.8017 96.2068 38.4843 89.2455 32.9274 79.9638C31.2029 78.6103 24.1129 70.1019 15.4899 83.058C14.915 84.4115 5.52598 97.7542 18.3643 120.379C20.6637 125.02 29.8613 132.948 37.5262 136.041C37.5262 138.748 35.9857 165.29 35.9894 173Z" fill="white"/>
<path fill-rule="evenodd" clip-rule="evenodd" d="M73.3901 19.2401C80.8168 18.6239 91.1746 18.4753 98.0412 20.3121C101.725 15.2378 105.579 10.3347 113.129 9.16131C111.363 11.8796 108.835 15.4748 107.179 19.4541C106.7 20.603 105.661 22.1077 106.328 23.3145C107.968 23.2514 108.234 21.1791 108.667 20.0978C110.086 16.552 112.082 12.6481 114.829 10.2329C116.871 13.794 118.005 17.5281 118.867 22.4565C119.126 23.9374 118.848 25.778 119.292 27.1746C119.759 28.6422 122.501 31.3879 123.542 32.9647C127.392 38.7998 130.337 45.9319 132.043 53.9808C135.488 70.2442 130.32 88.7897 119.292 94.9405C115.551 97.0269 110.233 98.9139 104.841 100.302C95.7808 102.634 85.0446 104.376 73.1781 103.518C67.8159 103.131 62.1909 101.613 57.2406 100.302C52.1066 98.9421 47.1934 97.4207 43.4276 94.9405C39.8488 84.6128 35.9258 74.6324 32.1647 64.4886C32.7908 47.1068 37.5711 33.9167 48.7401 27.1746C51.267 19.8597 54.756 13.5161 60.003 8.94624C60.9434 12.6752 62.6624 16.1464 64.0405 19.6688C64.4203 20.6397 64.4281 22.3844 65.7406 22.6712C67.1331 21.7786 65.7152 20.0157 65.3155 19.0254C63.9437 15.6274 62.334 11.5137 61.0656 7.87425C66.4072 3.98669 71.271 15.9109 73.3901 19.2401ZM101.866 51.836C97.4 50.3164 96.8044 60.5802 101.228 61.2719C104.683 60.269 105.284 52.9987 101.866 51.836ZM64.89 62.3446C68.3452 61.695 66.7459 51.9163 62.9775 53.7664C60.5584 54.9539 61.1555 63.0463 64.89 62.3446ZM81.253 61.7005C81.2674 63.7342 83.8068 66.094 82.528 69.421C79.8536 69.034 78.3919 66.3198 77.0024 65.3466C77.3359 70.3352 78.5903 81.3006 84.8654 79.7146C88.6378 78.7607 89.2878 72.3937 90.6026 68.3479C91.0031 67.4836 92.305 66.5665 91.6653 65.347C90.1418 65.4666 90.1042 67.1214 89.1156 67.9204C87.8071 68.9764 86.0682 69.3928 83.8027 69.6354C83.2918 65.4923 84.5525 64.4162 85.2901 61.4866C84.0114 61.4067 82.1533 60.9064 81.253 61.7005ZM108.241 64.06C105.819 64.6584 103.251 65.9072 102.291 67.4906C104.811 66.7641 108.356 65.3426 112.066 64.9176C113.411 64.7631 115.164 65.1918 116.104 64.0596C113.913 62.858 110.61 63.4738 108.241 64.06ZM52.1397 64.4886C54.2543 66.0992 57.0727 66.2623 59.3651 67.4906C60.5264 68.1136 61.4219 68.8969 62.3403 69.635C63.1828 70.3129 64.1244 71.5717 65.3151 71.3503C63.0787 67.0156 57.8932 64.5648 52.1397 64.4886ZM103.141 70.0644C106.493 70.1157 111.532 69.7498 115.041 69.8497C112.706 67.4572 105.562 68.5883 103.141 70.0644ZM52.5648 69.8497C52.5556 70.1457 52.6646 70.3211 52.7776 70.493C56.8397 70.4039 59.5687 72.7797 62.5527 73.0668C60.5728 70.769 56.7322 69.2271 52.5648 69.8497ZM106.966 72.4223C105.438 72.1612 103.635 71.9547 102.929 73.0664C106.605 73.7941 110.914 75.008 114.192 75.4255C113.247 73.8754 109.591 72.8722 106.966 72.4223ZM52.5648 75.6394C54.9345 76.4191 60.0402 76.3507 61.9148 75.2104C59.6386 74.7249 54.177 74.0957 52.5648 75.6394Z" fill="white"/>
<path fill-rule="evenodd" clip-rule="evenodd" d="M71.3907 72.4219C71.3907 76.4997 68.1151 79.8052 64.0743 79.8052C60.0336 79.8052 56.7576 76.4997 56.7576 72.4219C56.7576 68.3449 60.0332 65.0387 64.0743 65.0387C68.1151 65.0387 71.3907 68.3449 71.3907 72.4219Z" fill="#F9BFC2"/>
<path d="M110.709 73.3776C111.583 69.3966 109.093 65.4546 105.148 64.5731C101.203 63.6915 97.2968 66.204 96.4232 70.1851C95.5496 74.1661 98.0394 78.108 101.984 78.9896C105.929 79.8712 109.835 77.3586 110.709 73.3776Z" fill="#F9BFC2"/>
<path fill-rule="evenodd" clip-rule="evenodd" d="M19.6254 0.153699C14.5201 -0.552049 9.80129 1.28289 7.08853 3.37042C6.51433 3.81244 5.71927 4.20989 5.17451 4.65563C1.11459 8.01721 -2.16501 18.9266 1.77713 25.4603C4.80275 30.4748 11.9803 34.7688 20.4756 31.6783C21.0903 33.5578 21.9995 35.6008 22.8129 37.4692C23.6043 39.2893 24.1012 41.8485 26.0005 42.6137C26.6373 38.3124 22.916 34.7353 21.7529 30.8203C27.506 28.4282 31.4776 23.9708 32.1659 17.5225C33.0456 9.28385 27.3551 1.21975 19.6254 0.153699ZM30.4653 16.4528C30.1709 23.5697 24.4362 29.1971 17.715 30.6049C15.1348 31.1472 11.9251 31.0134 9.84914 30.1777C7.31306 29.1488 3.93776 26.1029 2.8372 23.5288C1.4569 20.2972 1.63726 13.2249 3.26418 9.58843C4.86901 5.99655 9.74608 2.70182 15.3777 2.08522C24.1564 1.11946 30.8261 7.72006 30.4653 16.4528Z" fill="black"/>
<path fill-rule="evenodd" clip-rule="evenodd" d="M30.4653 16.4528C30.1708 23.5697 24.4361 29.1971 17.715 30.6049C15.1347 31.1472 11.9251 31.0135 9.84909 30.1777C7.31302 29.1488 3.93772 26.103 2.83716 23.5288C1.45686 20.2973 1.63722 13.2249 3.26413 9.58846C4.86896 5.99658 9.74603 2.70185 15.3777 2.08525C24.1564 1.11949 30.826 7.72009 30.4653 16.4528Z" fill="white"/>
<path fill-rule="evenodd" clip-rule="evenodd" d="M12.7081 10.0776C12.367 10.0776 12.1261 10.4115 12.2335 10.7351L16.273 22.9052C16.3409 23.1097 16.5321 23.2477 16.7476 23.2477H17.1827C17.1886 23.2479 17.1946 23.248 17.2007 23.248H19.3263C19.5417 23.248 19.7329 23.11 19.8008 22.9055L23.4429 11.9327C23.5504 11.6091 23.3094 11.2752 22.9684 11.2752H22.783H20.4819H17.4738C17.1337 11.2752 16.8928 11.6075 16.9986 11.9307L17.5854 13.7243C17.6527 13.9299 17.8444 14.0689 18.0606 14.0689H19.5547L18.037 18.6412L15.3082 10.4201C15.2403 10.2156 15.0491 10.0776 14.8336 10.0776H12.7081ZM8.73393 11.2752C8.39292 11.2752 8.15196 11.6091 8.25939 11.9327L11.9015 22.9055C11.9694 23.11 12.1606 23.248 12.3761 23.248H14.5017C14.8427 23.248 15.0836 22.9141 14.9762 22.5905L11.3341 11.6177C11.2662 11.4132 11.075 11.2752 10.8595 11.2752H8.73393Z" fill="#ACB4B9"/>
<path fill-rule="evenodd" clip-rule="evenodd" d="M74.4527 18.1675C81.3778 16.7058 90.8209 17.2218 97.1905 18.8112C100.1 15.6193 104.187 10.0569 109.091 8.30297C115.937 5.85402 118.046 11.9283 119.504 17.5241C120.31 20.6198 120.063 24.1073 120.992 26.7456C121.778 28.9806 124.62 31.1733 125.879 33.3934C131.083 42.57 135.409 53.4571 134.592 68.348C134.109 77.1465 130.861 85.4643 126.729 90.6515C126.879 91.7324 126.347 92.1254 126.091 92.7959C134.756 104.815 141.906 125.63 142.88 147.266C142.996 149.841 143.079 152.887 142.88 155.415C142.341 162.221 139.844 172.192 131.617 170.641C130.376 170.407 129.369 169.464 128.216 168.711C127.766 170.369 128.741 172.144 127.579 173C125.729 172.793 126.69 170.296 126.729 169.14C127.17 156.268 126.348 142.291 123.754 131.611C123.212 129.38 122.128 126.836 123.117 124.748C124.405 126.444 124.862 128.906 125.454 131.182C127.173 137.791 128.057 146.074 128.429 154.343C128.673 159.759 126.923 167.111 131.404 168.496C131.973 167.784 131.171 165.688 132.254 165.493C133.271 165.898 132.918 167.684 133.104 168.925C136.488 169.729 135.068 166.495 136.08 165.279C137.112 165.167 136.772 166.44 137.142 166.994C141.093 162.756 141.55 155.112 141.18 146.622C140.274 125.82 133.646 107.337 125.455 94.2965C120.009 106.075 109.615 114.171 100.166 122.389C96.7507 125.361 92.8273 127.873 88.6908 130.968C85.4631 133.383 80.2206 138.38 75.7281 137.829C74.0409 137.623 72.655 135.741 71.0528 134.399C69.4686 133.073 67.7647 131.931 66.5905 130.968C63.3006 128.268 61.045 125.492 58.7276 122.818C53.5071 116.795 48.7077 111.434 45.3401 104.162C43.4125 104.29 42.7051 105.649 40.452 105.448C38.6039 102.882 37.2122 99.8545 35.777 96.8714C34.0143 97.5065 29.6769 101.308 26.8518 98.8003C28.4508 97.8888 30.621 98.2944 32.3771 97.2993C33.9562 96.4045 34.8554 94.8511 35.777 93.4392C35.7086 92.0786 35.957 90.3978 35.5643 89.3644C33.3345 88.931 32.5122 90.9617 30.8893 90.4368C31.1403 88.2594 33.2752 87.9834 35.3519 87.6487C35.1495 86.1373 34.7067 84.8692 34.0769 83.7887C32.6417 84.2968 30.5867 85.2347 28.9768 84.8607C29.4483 83.2408 31.9575 82.6104 33.4394 82.7167C31.8261 79.0148 29.2223 75.4683 23.2388 76.7119C19.8127 77.4243 16.5769 82.0755 15.1638 84.861C12.8806 89.3615 12.3049 96.1823 12.6134 101.803C13.1559 111.682 19.8675 122.689 26.0012 127.75C29.4096 130.563 33.8531 133.009 37.0513 134.828C38.206 132.133 37.9925 128.057 39.6014 125.821C40.0243 129.822 38.8778 134.108 38.3264 138.688C37.2634 147.52 37.1286 158.614 36.6266 168.497C36.5596 169.813 37.1253 172.185 35.9891 173C34.378 171.707 35.035 167.667 35.1388 165.28C35.5382 156.113 35.1399 144.908 36.8393 137.187C32.7698 133.95 27.9097 131.87 23.4511 127.751C18.3116 123.003 11.7657 112.174 11.1263 103.304C10.5201 94.9053 12.4194 85.1374 16.6509 79.9293C18.4872 77.6695 22.2346 74.2596 27.2766 75.4259C27.087 74.0256 26.0976 71.6628 25.1513 68.9925C23.6639 64.7944 21.8113 61.9848 25.3641 59.5566C27.387 58.1745 30.2047 57.6158 30.8889 60.8433C31.8069 44.6137 37.2424 32.9432 47.6771 26.3174C50.4406 19.0248 55.2257 8.5927 62.1276 5.51601C65.8595 3.8523 68.7445 9.13501 70.4149 11.3057C72.178 13.5961 73.7265 15.402 74.4527 18.1675ZM61.0649 7.87432C62.3337 11.5137 63.9433 15.6271 65.3148 19.0255C65.7145 20.0154 67.1327 21.7787 65.7399 22.6713C64.4273 22.3849 64.4196 20.6398 64.0397 19.6689C62.6616 16.1464 60.9423 12.6749 60.0023 8.94631C54.7553 13.5158 51.2662 19.8594 48.7394 27.1747C37.5703 33.9168 32.7901 47.1069 32.164 64.4887C35.925 74.6325 39.8484 84.6129 43.4269 94.9406C47.1923 97.4207 52.1058 98.9418 57.2398 100.302C62.1905 101.613 67.8151 103.131 73.1773 103.518C85.0439 104.376 95.78 102.634 104.841 100.302C110.232 98.9143 115.55 97.0274 119.292 94.9406C130.319 88.7898 135.487 70.2442 132.042 53.9808C130.336 45.932 127.392 38.7998 123.541 32.9648C122.5 31.388 119.758 28.6423 119.292 27.1747C118.847 25.778 119.125 23.9379 118.866 22.4566C118.004 17.5282 116.871 13.7944 114.829 10.233C112.081 12.6481 110.085 16.552 108.666 20.0979C108.233 21.1792 107.968 23.2515 106.328 23.3146C105.66 22.1078 106.7 20.603 107.178 19.4542C108.834 15.4745 111.363 11.8793 113.128 9.16138C105.578 10.3348 101.724 15.2379 98.0404 20.3122C91.1743 18.4754 80.8161 18.624 73.3894 19.2402C71.271 15.9109 66.4072 3.98676 61.0649 7.87432ZM28.7644 59.5562C27.3675 60.658 25.0328 60.8675 24.7265 62.559C24.4619 64.0192 26.3402 67.0606 27.0642 69.2068C27.9686 71.8879 28.5715 74.351 29.4015 75.8542C34.5315 79.1853 38.7283 86.6447 36.6269 95.1553C38.0349 98.0949 39.7704 100.704 40.8772 103.947C42.3701 103.811 43.3514 103.156 44.7019 102.875C39.3894 88.4347 34.3824 73.6879 28.7644 59.5562ZM120.141 95.7979C111.972 100.802 99.7126 103.974 87.8409 104.805C71.1466 105.973 55.5058 103.078 44.7019 97.7283C46.2964 104.242 48.9691 108.561 52.7772 113.383C57.5884 119.475 61.4087 124.51 67.4397 129.467C69.0802 130.815 74.1616 135.909 76.1525 136.115C80.1753 136.53 85.2239 131.202 88.2653 129.037C92.1283 126.29 95.8345 123.524 99.1031 120.674C108.362 112.598 119.187 104.704 123.754 93.0102C122.486 93.7991 121.481 94.9774 120.141 95.7979Z" fill="black"/>
<path fill-rule="evenodd" clip-rule="evenodd" d="M101.228 61.2719C96.8048 60.5802 97.4003 50.3164 101.866 51.836C105.284 52.9986 104.683 60.2689 101.228 61.2719Z" fill="black"/>
<path fill-rule="evenodd" clip-rule="evenodd" d="M62.9775 53.7661C66.7459 51.9163 68.3452 61.6947 64.89 62.3443C61.1555 63.0463 60.5584 54.954 62.9775 53.7661Z" fill="black"/>
<path fill-rule="evenodd" clip-rule="evenodd" d="M44.7019 102.875C43.3518 103.156 42.3705 103.811 40.8772 103.947C39.77 100.704 38.0345 98.0948 36.627 95.1552C38.7283 86.6446 34.5315 79.1852 29.4015 75.8541C28.5715 74.3509 27.9686 71.8878 27.0642 69.2067C26.3402 67.0605 24.4619 64.0187 24.7265 62.5589C25.0324 60.8674 27.3675 60.6579 28.7644 59.5562C34.3824 73.6878 39.3894 88.4346 44.7019 102.875Z" fill="#D6D9DD"/>
<path fill-rule="evenodd" clip-rule="evenodd" d="M85.2905 61.4862C84.5529 64.4162 83.2922 65.4919 83.8031 69.635C86.0682 69.3925 87.8074 68.9761 89.116 67.9201C90.1046 67.1214 90.1422 65.4666 91.6656 65.3467C92.3054 66.5661 91.0035 67.4832 90.603 68.3476C89.2882 72.3934 88.6382 78.7604 84.8657 79.7142C78.5903 81.3007 77.3363 70.3348 77.0028 65.3463C78.3919 66.3195 79.8539 69.0337 82.5284 69.4207C83.8071 66.0937 81.2677 63.7335 81.2534 61.7002C82.1533 60.9064 84.0114 61.4067 85.2905 61.4862ZM83.8031 78.4275C87.1383 78.4019 88.4291 72.5999 88.9028 69.4211C86.3336 71.9458 80.8341 70.9451 78.703 69.4211C79.6305 72.9038 80.2386 78.4558 83.8031 78.4275Z" fill="black"/>
<path fill-rule="evenodd" clip-rule="evenodd" d="M116.104 64.06C115.164 65.1921 113.411 64.7635 112.066 64.918C108.356 65.3429 104.811 66.7645 102.291 67.491C103.251 65.9072 105.818 64.6587 108.241 64.0603C110.61 63.4738 113.913 62.858 116.104 64.06Z" fill="black"/>
<path fill-rule="evenodd" clip-rule="evenodd" d="M65.3148 71.3507C64.124 71.5721 63.1825 70.3133 62.34 69.6354C61.4216 68.8973 60.5261 68.1136 59.3648 67.491C57.0724 66.2627 54.254 66.0996 52.1393 64.489C57.8932 64.5648 63.0787 67.0156 65.3148 71.3507Z" fill="black"/>
<path fill-rule="evenodd" clip-rule="evenodd" d="M115.041 69.8497C111.532 69.7502 106.493 70.1157 103.141 70.0644C105.562 68.5883 112.706 67.4572 115.041 69.8497Z" fill="black"/>
<path fill-rule="evenodd" clip-rule="evenodd" d="M78.703 69.4211C80.8342 70.9452 86.3336 71.9459 88.9028 69.4211C88.4291 72.6 87.1379 78.402 83.8031 78.4276C80.2386 78.4558 79.6305 72.9038 78.703 69.4211Z" fill="white"/>
<path fill-rule="evenodd" clip-rule="evenodd" d="M62.5527 73.0668C59.5687 72.7797 56.8397 70.4039 52.7776 70.4931C52.6646 70.3207 52.5556 70.1454 52.5648 69.8497C56.7322 69.2272 60.5728 70.7691 62.5527 73.0668Z" fill="black"/>
<path fill-rule="evenodd" clip-rule="evenodd" d="M114.192 75.4255C110.914 75.008 106.606 73.7941 102.929 73.0664C103.635 71.9547 105.437 72.1608 106.966 72.4223C109.591 72.8721 113.247 73.8754 114.192 75.4255Z" fill="black"/>
<path fill-rule="evenodd" clip-rule="evenodd" d="M61.9148 75.2104C60.0402 76.3507 54.9345 76.4191 52.5648 75.6394C54.177 74.0957 59.6386 74.7249 61.9148 75.2104Z" fill="black"/>
<path fill-rule="evenodd" clip-rule="evenodd" d="M123.754 93.0105C119.188 104.704 108.363 112.598 99.1035 120.674C95.8349 123.524 92.1287 126.29 88.2657 129.038C85.2239 131.201 80.1753 136.53 76.1529 136.115C74.162 135.909 69.0806 130.815 67.4401 129.467C61.4087 124.51 57.5888 119.476 52.7776 113.383C48.9691 108.561 46.2964 104.242 44.7023 97.7286C55.5062 103.078 71.1466 105.973 87.8413 104.806C99.713 103.974 111.972 100.802 120.142 95.7982C121.481 94.9773 122.486 93.7991 123.754 93.0105Z" fill="#F9BFC2"/>
</g>
<defs>
<clipPath id="clip0">
<rect width="143" height="173" fill="white"/>
</clipPath>
</defs>
</svg>
