<svg width="40" height="40" viewBox="0 0 40 40" fill="none" xmlns="http://www.w3.org/2000/svg">
<circle cx="20" cy="20" r="20" fill="#5383EC"/>
<g clip-path="url(#clip0)">
<path d="M28.9754 17.9012C28.9163 17.7201 28.7611 17.5908 28.5727 17.5613L22.9572 16.7633L20.4302 11.6835C20.3452 11.5135 20.1716 11.4064 19.9832 11.4064C19.7948 11.4064 19.6211 11.5135 19.5362 11.6871L17.0424 16.7817L11.4269 17.6167C11.2385 17.6462 11.0833 17.7755 11.0242 17.9566C10.9651 18.1376 11.0168 18.3371 11.1535 18.4664L15.2285 22.4157L14.2864 28.0091C14.2531 28.1975 14.3307 28.3859 14.4859 28.4967C14.5709 28.5595 14.6743 28.5928 14.7777 28.5928C14.859 28.5928 14.9366 28.5743 15.0105 28.5337L20.0238 25.8774L25.0519 28.5041C25.1258 28.5411 25.2034 28.5595 25.281 28.5595C25.5544 28.5595 25.7797 28.3342 25.7797 28.0608C25.7797 28.0202 25.776 27.9832 25.7649 27.9463L24.7933 22.3862L28.8424 18.4147C28.9865 18.2817 29.0345 18.0822 28.9754 17.9012Z" fill="white"/>
</g>
<defs>
<clipPath id="clip0">
<rect width="18" height="18" fill="white" transform="translate(11 11)"/>
</clipPath>
</defs>
</svg>
